<?xml version="1.0" encoding="UTF-8" standalone="no"?>
<svg
   width="100"
   height="26"
   version="1.1"
   id="svg10"
   sodipodi:docname="page-logo-i.svg"
   inkscape:version="1.1.1 (3bf5ae0d25, 2021-09-20)"
   xmlns:inkscape="http://www.inkscape.org/namespaces/inkscape"
   xmlns:sodipodi="http://sodipodi.sourceforge.net/DTD/sodipodi-0.dtd"
   xmlns="http://www.w3.org/2000/svg"
   xmlns:svg="http://www.w3.org/2000/svg">
  <defs
     id="defs14" />
  <sodipodi:namedview
     id="namedview12"
     pagecolor="#505050"
     bordercolor="#ffffff"
     borderopacity="1"
     inkscape:pageshadow="0"
     inkscape:pageopacity="0"
     inkscape:pagecheckerboard="1"
     showgrid="true"
     width="129px"
     inkscape:current-layer="svg10"
     showguides="true"
     inkscape:guide-bbox="true">
    <inkscape:grid
       type="xygrid"
       id="grid5602" />
    <sodipodi:guide
       position="43,8"
       orientation="0,-1"
       id="guide140" />
  </sodipodi:namedview>
  <g
     aria-label="flatpak"
     id="text2096"
     style="font-weight:900;font-size:11.9007px;line-height:1.25;font-family:Inter;-inkscape-font-specification:'Inter, Heavy';text-align:center;letter-spacing:0px;word-spacing:0px;text-anchor:middle;fill:#ffffff"
     transform="matrix(1.4405369,0,0,1.4405369,-15.555093,-6.3700208)">
    <path
       d="m 39.063534,11.281649 h -1.183308 v -0.287375 c 0,-0.304279 0.118331,-0.507132 0.557845,-0.507132 0.169044,0 0.42261,0.03381 0.591654,0.08452 l 0.338088,-1.6735358 c -0.27047,-0.067618 -0.895933,-0.1859485 -1.487587,-0.1859485 -1.41997,0 -2.332808,0.7776026 -2.332808,2.3835213 v 0.185948 h -0.828315 v 1.69044 h 0.828315 v 4.800851 h 2.332808 v -4.800851 h 1.183308 z"
       id="path2247"
       style="fill:#ffffff" />
    <path
       d="M 42.292257,9.1178854 H 39.959449 V 17.77294 h 2.332808 z"
       id="path2249"
       style="fill:#ffffff" />
    <path
       d="m 45.28433,17.874366 c 0.84522,0 1.483361,-0.287375 1.876389,-1.014264 h 0.05071 V 17.77294 H 49.3921 v -4.445858 c 0,-1.200213 -1.136821,-2.129955 -2.992079,-2.129955 -1.939781,0 -2.894879,1.014264 -2.975175,2.197572 h 2.146859 c 0.05494,-0.401479 0.350766,-0.591654 0.794507,-0.591654 0.405705,0 0.69308,0.185949 0.69308,0.524037 v 0.0169 c 0,0.376123 -0.414158,0.494454 -1.504492,0.57475 -1.339673,0.0972 -2.38352,0.638141 -2.38352,2.062337 0,1.293187 0.870576,1.893293 2.11305,1.893293 z m 0.760698,-1.470683 c -0.397253,0 -0.676176,-0.194401 -0.676176,-0.557845 0,-0.333862 0.236662,-0.591654 0.777603,-0.676176 0.371896,-0.05917 0.684628,-0.135236 0.929742,-0.236662 v 0.540941 c 0,0.591654 -0.502906,0.929742 -1.031169,0.929742 z"
       id="path2251"
       style="fill:#ffffff" />
    <path
       d="M 54.378886,11.281649 H 53.263195 V 9.7264439 h -2.332807 v 1.5552051 h -0.828316 v 1.69044 h 0.828316 v 2.932914 c -0.01691,1.360805 0.82409,2.049659 2.434234,1.960911 0.528262,-0.02958 0.92129,-0.139461 1.132595,-0.202853 l -0.338088,-1.639727 c -0.08875,0.02113 -0.316958,0.06762 -0.456419,0.06762 -0.304279,0 -0.439515,-0.135236 -0.439515,-0.405706 v -2.713157 h 1.115691 z"
       id="path2253"
       style="fill:#ffffff" />
    <path
       d="m 55.325527,20.207174 h 2.332807 v -3.499212 h 0.03381 c 0.270471,0.659272 0.895934,1.1495 1.808771,1.1495 1.386161,0 2.552565,-1.081882 2.552565,-3.330168 0,-2.349712 -1.250926,-3.330167 -2.53566,-3.330167 -0.963551,0 -1.57211,0.557845 -1.825676,1.217117 h -0.05071 v -1.132595 h -2.315903 z m 2.282094,-5.67988 c 0,-0.963551 0.388801,-1.5383 1.031169,-1.5383 0.642367,0 1.014264,0.574749 1.014264,1.5383 0,0.963551 -0.371897,1.538301 -1.014264,1.538301 -0.642368,0 -1.031169,-0.591654 -1.031169,-1.538301 z"
       id="path2255"
       style="fill:#ffffff" />
    <path
       d="m 64.842691,17.874366 c 0.84522,0 1.483361,-0.287375 1.876389,-1.014264 h 0.05071 v 0.912838 h 2.180668 v -4.445858 c 0,-1.200213 -1.136821,-2.129955 -2.992079,-2.129955 -1.939781,0 -2.894879,1.014264 -2.975175,2.197572 h 2.146859 c 0.05494,-0.401479 0.350766,-0.591654 0.794507,-0.591654 0.405705,0 0.69308,0.185949 0.69308,0.524037 v 0.0169 c 0,0.376123 -0.414158,0.494454 -1.504492,0.57475 -1.339673,0.0972 -2.38352,0.638141 -2.38352,2.062337 0,1.293187 0.870576,1.893293 2.11305,1.893293 z m 0.760698,-1.470683 c -0.397253,0 -0.676176,-0.194401 -0.676176,-0.557845 0,-0.333862 0.236662,-0.591654 0.777603,-0.676176 0.371896,-0.05917 0.684628,-0.135236 0.929742,-0.236662 v 0.540941 c 0,0.591654 -0.502906,0.929742 -1.031169,0.929742 z"
       id="path2257"
       style="fill:#ffffff" />
    <path
       d="m 70.066139,17.77294 h 2.332807 v -1.84258 l 0.350767,-0.443741 1.322769,2.286321 h 2.670896 l -2.273642,-3.647125 2.206024,-2.844166 h -2.620182 l -1.57211,2.180668 h -0.08452 V 9.1178854 h -2.332807 z"
       id="path2259"
       style="fill:#ffffff" />
  </g>
  <path
     style="color:#000000;clip-rule:nonzero;display:inline;overflow:visible;visibility:visible;isolation:auto;mix-blend-mode:normal;color-interpolation:sRGB;color-interpolation-filters:linearRGB;solid-color:#000000;solid-opacity:1;vector-effect:none;fill:#e66100;fill-opacity:1;fill-rule:nonzero;stroke:none;stroke-width:0.218647;stroke-linecap:square;stroke-linejoin:round;stroke-miterlimit:4;stroke-dasharray:none;stroke-dashoffset:0;stroke-opacity:1;marker:none;marker-start:none;marker-mid:none;marker-end:none;paint-order:normal;color-rendering:auto;image-rendering:auto;shape-rendering:auto;text-rendering:auto;enable-background:accumulate"
     d="M 15.925436,0.47571227 5,6.8112304 4.9568683,19.447374 15.978682,25.782954 27,19.458021 26.952032,6.8112304 Z m 0,1.00451153 v 9.1476952 l 1.284903,0.771154 -1.284903,0.743157 -9.2486949,-5.3677975 z m 10.26827,5.8850566 0.0343,11.6490426 -9.756384,5.495476 V 12.906197 Z"
     id="path5902"
     inkscape:connector-curvature="0"
     sodipodi:nodetypes="cccccccccccccccccc" />
</svg>
