<svg width="2000" height="2000" viewBox="0 0 2000 2000" fill="none" xmlns="http://www.w3.org/2000/svg">
<path d="M369.221 486.26V481.26H374.221H1590.36H1595.36V486.26V1625.43V1630.43H1590.36H374.221H369.221V1625.43V486.26Z" fill="#FDD005" stroke="white" stroke-width="10"/>
<path d="M1378.27 915.022C1387.35 911.223 1396.55 907.71 1404.37 905.559C1389.51 892.913 1379.51 871.098 1369.83 837.92C1369.83 837.911 1369.83 837.902 1369.83 837.893L1369.75 837.661C1360.97 808.78 1352.14 779.765 1344.78 749.957C1343.88 755.392 1342.82 760.476 1341.51 765.085C1332.14 808.301 1318.4 850.268 1304.72 892.056C1302.65 898.399 1300.57 904.738 1298.51 911.076C1282.84 959.337 1268.11 1007.68 1260.74 1058.4L1260.74 1058.44L1260.73 1058.47C1257.89 1076.26 1261.17 1092.08 1264.15 1106.49C1264.45 1107.92 1264.74 1109.34 1265.03 1110.74C1266.57 1118.34 1267.89 1125.84 1267.52 1132.69C1267.13 1139.77 1264.93 1146.41 1259.33 1152L1259.21 1152.12L1259.09 1152.23C1256.3 1154.67 1253.97 1156.87 1251.83 1158.9C1251.51 1159.21 1251.19 1159.51 1250.87 1159.81C1248.51 1162.04 1246.26 1164.13 1243.93 1165.87C1238.96 1169.6 1233.79 1171.62 1226.09 1171.62H1074.24H1074H1073.76H1073.51H1073.27H1073.03H1072.79H1072.55H1072.3H1072.06H1071.82H1071.58H1071.34H1071.1H1070.85H1070.61H1070.37H1070.13H1069.89H1069.64H1069.4H1069.16H1068.92H1068.68H1068.43H1068.19H1067.95H1067.71H1067.47H1067.23H1066.98H1066.74H1066.5H1066.26H1066.02H1065.77H1065.53H1065.29H1065.05H1064.81H1064.57H1064.32H1064.08H1063.84H1063.6H1063.36H1063.11H1062.87H1062.63H1062.39H1062.15H1061.9H1061.66H1061.42H1061.18H1060.94H1060.7H1060.45H1060.21H1059.97H1059.73H1059.49H1059.24H1059H1058.76H1058.52H1058.28H1058.04H1057.79H1057.55H1057.31H1057.07H1056.83H1056.58H1056.34H1056.1H1055.86H1055.62H1055.38H1055.13H1054.89H1054.65H1054.41H1054.17H1053.92H1053.68H1053.44H1053.2H1052.96H1052.72H1052.47H1052.23H1051.99H1051.75H1051.51H1051.26H1051.02H1050.78H1050.54H1050.3H1050.06H1049.81H1049.57H1049.33H1049.09H1048.85H1048.6H1048.36H1048.12H1047.88H1047.64H1047.4H1047.15H1046.91H1046.67H1046.43H1046.19H1045.95H1045.7H1045.46H1045.22H1044.98H1044.74H1044.49H1044.25H1044.01H1043.77H1043.53H1043.29H1043.04H1042.8H1042.56H1042.32H1042.08H1041.83H1041.59H1041.35H1041.11H1040.87H1040.63H1040.38H1040.14H1039.9H1039.66H1039.42H1039.18H1038.93H1038.69H1038.45H1038.21H1037.97H1037.72H1037.48H1037.24H1037H1036.76H1036.52H1036.27H1036.03H1035.79H1035.55H1035.31H1035.07H1034.82H1034.58H1034.34H1034.1H1033.86H1033.61H1033.37H1033.13H1032.89H1032.65H1032.41H1032.16H1031.92H1031.68H1031.44H1031.2H1030.96H1030.71H1030.47H1030.23H1029.99H1029.75H1029.5H1029.26H1029.02H1028.78H1028.54H1028.3H1028.05H1027.81H1027.57H1027.33H1027.09H1026.85H1026.6H1026.36H1026.12H1025.88H1025.64H1025.39H1025.15H1024.91H1024.67H1024.43H1024.19H1023.94H1023.7H1023.46H1023.22H1022.98H1022.74H1022.49H1022.25H1022.01H1021.77H1021.53H1021.28H1021.04H1020.8H1020.56H1020.32H1020.08H1019.83H1019.59H1019.35H1019.11H1018.87H1018.63H1018.38H1018.14H1017.9H1017.66H1017.42H1017.17H1016.93H1016.69H1016.45H1016.21H1015.97H1015.72H1015.48H1015.24H1015H1014.76H1014.52H1014.27H1014.03H1013.79H1013.55H1013.31H1013.07H1012.82H1012.58H1012.34H1012.1H1011.86H1011.61H1011.37H1011.13H1010.89H1010.65H1010.41H1010.16H1009.92H1009.68H1009.44H1009.2H1008.96H1008.71H1008.47H1008.23H1007.99H1007.75H1007.5H1007.26H1007.02H1006.78H1006.54H1006.3H1006.05H1005.81H1005.57H1005.33H1005.09H1004.85H1004.6H1004.36H1004.12H1003.88H1003.64H1003.4H1003.15H1002.91H1002.67H1002.43H1002.19H1001.94H1001.7H1001.46H1001.22H1000.98H1000.74H1000.49H1000.25H1000.01H999.769H999.527H999.285H999.044H998.802H998.56H998.318H998.076H997.835H997.593H997.351H997.109H996.868H996.626H996.384H996.142H995.901H995.659H995.417H995.175H994.934H994.692H994.45H994.208H993.967H993.725H993.483H993.241H993H992.758H992.516H992.274H992.032H991.791H991.549H991.307H991.065H990.824H990.582H990.34H990.098H989.857H989.615H989.373H989.131H988.889H988.648H988.406H988.164H987.922H987.681H987.439H987.197H986.955H986.714H986.472H986.23H985.988H985.746H985.505H985.263H985.021H984.779H984.538H984.296H984.054H983.812H983.57H983.329H983.087H982.845H982.603H982.362H982.12H981.878H981.636H981.394H981.153H980.911H980.669H980.427H980.185H979.944H979.702H979.46H979.218H978.977H978.735H978.493H978.251H978.009H977.768H977.526H977.284H977.042H976.8H976.559H976.317H976.075H975.833H975.591H975.35H975.108H974.866H974.624H974.382H974.141H973.899H973.657H973.415H973.173H972.932H972.69H972.448H972.206H971.964H971.723H971.481H971.239H970.997H970.755H970.513H970.272H970.03H969.788H969.546H969.304H969.063H968.821H968.579H968.337H968.095H967.854H967.612H967.37H967.128H966.886H966.644H966.403H966.161H965.919H965.677H965.435H965.193H964.952H964.71H964.468H964.226H963.984H963.742H963.501H963.259H963.017H962.775H962.533H962.291H962.05H961.808H961.566H961.324H961.082H960.84H960.599H960.357H960.115H959.873H959.631H959.389H959.147H958.906H958.664H958.422H958.18H957.938H957.696H957.454H957.213H956.971H956.729H956.487H956.245H956.003H955.761H955.52H955.278H955.036H954.794H954.552H954.31H954.068H953.827H953.585H953.343H953.101H952.859H952.617H952.375H952.133H951.892H951.65H951.408H951.166H950.924H950.682H950.44H947.351L945.969 1168.86C945.088 1167.1 944.761 1165.08 945.234 1163.05C945.699 1161.06 946.843 1159.46 948.222 1158.28C950.786 1156.08 954.399 1155.1 958.212 1155.02C979.901 1150.96 995.735 1145 1007.92 1134.91C1020.09 1124.83 1029.14 1110.19 1036.37 1087.78C1037.84 1079.87 1039.43 1046.15 1031.35 1002.47L1031.31 1002.21L1031.29 1001.96C1028.25 964.078 1023.84 927.577 1019.28 889.796C1018.89 886.544 1018.49 883.282 1018.1 880.009L1018.1 879.971L1018.09 879.933C1011.51 817.24 1004.84 747.554 1008.17 684.375L1008.18 684.328L1008.18 684.282C1011.52 637.734 1019.82 591.154 1033.13 546.252C1049.76 488.019 1073.3 435.651 1127.34 395.086L1127.36 395.069L1127.38 395.052C1140.79 385.223 1161.21 379.726 1181.37 376.611C1201.73 373.467 1222.64 372.638 1237.64 372.638C1264.85 372.638 1303.61 374.141 1342.86 394.017C1367.41 348.168 1388.77 301.56 1399.66 277.796C1402.88 270.763 1405.18 265.732 1406.38 263.312C1416.64 238.622 1432.78 219.142 1447.1 205.45C1461.24 191.933 1473.9 183.799 1477.89 181.754C1483.09 178.768 1486.32 175.68 1488.33 172.595C1490.33 169.514 1491.31 166.144 1491.58 162.294C1491.84 158.37 1491.36 153.999 1490.43 148.998C1489.83 145.746 1489.09 142.45 1488.3 138.928C1487.86 136.959 1487.4 134.92 1486.94 132.779C1475.72 84.7043 1450.16 52.6841 1411.36 25.1714L1405.12 20.7455L1411.68 16.8059C1417.41 13.3608 1424.73 13.6401 1430.45 14.7417C1436.26 15.8596 1441.83 18.1017 1445 20.1992C1479.48 41.5178 1513.96 59.5823 1548.61 77.7375L1548.79 77.8351L1548.97 77.948C1555.8 82.2937 1564.11 85.116 1573.17 88.1969C1575.31 88.9253 1577.5 89.6681 1579.72 90.449C1590.87 94.3748 1602.71 99.2474 1611.07 108.528L1611.11 108.574L1611.15 108.621C1631.72 132.611 1640.64 158.277 1645.89 184.561C1648.36 196.906 1650.03 209.467 1651.7 222.003C1651.8 222.756 1651.9 223.509 1652 224.261C1653.78 237.604 1655.61 250.942 1658.46 264.349L1658.48 264.455L1658.5 264.561C1660.07 273.987 1664.85 288.229 1669.41 295.837L1669.43 295.878L1669.45 295.92C1671.7 299.839 1675.36 304.546 1679.5 309.882C1681.07 311.909 1682.72 314.027 1684.38 316.228C1690.03 323.695 1696.03 332.268 1698.01 339.986C1716.04 399.673 1727.11 454.748 1738.95 513.673C1741.24 525.033 1743.55 536.536 1745.94 548.243C1774.12 675.803 1782.41 760.619 1759.21 914.748C1757.54 928.124 1754.93 941.976 1752.25 955.846C1752.01 957.095 1751.77 958.344 1751.53 959.593C1749.07 972.29 1746.62 984.983 1744.76 997.541C1740.66 1025.2 1739.58 1051.44 1747.43 1074.21L1747.46 1074.27L1747.48 1074.33C1749.63 1081.15 1754.33 1088.03 1760.9 1094.95C1767.44 1101.84 1775.59 1108.5 1784.26 1114.93C1790.8 1119.77 1797.51 1124.4 1803.99 1128.87C1806.13 1130.34 1808.24 1131.79 1810.32 1133.23C1818.37 1138.83 1825.89 1144.24 1831.5 1149.34C1834.19 1150.99 1836.22 1153.9 1837.59 1156.26C1839.23 1159.07 1840.6 1162.29 1841.52 1165.04L1843.71 1171.62H1836.78H1402.7C1398.54 1171.62 1395.51 1169.77 1393.34 1167.36C1391.53 1165.36 1390.21 1162.82 1389.2 1160.88C1389.12 1160.74 1389.05 1160.61 1388.98 1160.48C1386.69 1156.09 1385.27 1154.05 1382.65 1153.5C1382.4 1153.56 1381.99 1153.78 1381.35 1154.46C1380.34 1155.52 1379.4 1157.01 1378.1 1159.07L1378.03 1159.18L1378.01 1159.21C1376.84 1161.05 1375.26 1163.55 1373.25 1165.38C1371.08 1167.36 1368.04 1168.89 1364.22 1168.3C1361.02 1168.14 1358.54 1166.52 1356.98 1164.13C1355.56 1161.96 1355.04 1159.38 1354.8 1157.26C1354.55 1155.05 1354.56 1152.71 1354.61 1150.65C1354.63 1149.78 1354.66 1148.99 1354.69 1148.26C1354.73 1147.12 1354.76 1146.12 1354.76 1145.15C1354.76 1137.52 1356.73 1131.61 1360.57 1125.87L1360.67 1125.72L1360.78 1125.58C1364.1 1121.31 1367.95 1118.19 1371.69 1115.61C1373.54 1114.33 1375.41 1113.15 1377.15 1112.05L1377.28 1111.97C1379.01 1110.89 1380.6 1109.88 1382.12 1108.84C1385.21 1106.72 1387.64 1104.64 1389.41 1102.11C1391.1 1099.68 1392.36 1096.58 1392.73 1092.15C1392.68 1079.35 1387.77 1066.66 1381.82 1053.31C1380.97 1051.4 1380.1 1049.48 1379.21 1047.53C1374.06 1036.18 1368.65 1024.29 1366.42 1012.37L1366.39 1012.22L1366.37 1012.07C1365.38 1004.16 1367.44 998.63 1369.36 993.742C1369.42 993.585 1369.48 993.43 1369.54 993.275C1371.33 988.706 1372.94 984.619 1372.94 978.453C1372.94 973.231 1371.02 968.863 1367.88 964.418C1365.75 961.415 1363.38 958.767 1360.78 955.859C1359.29 954.185 1357.71 952.426 1356.07 950.463C1353.72 948.126 1351.35 946.842 1347.2 945.419C1345.39 945.188 1343.73 944.334 1342.53 942.899C1341.2 941.315 1340.74 939.42 1340.74 937.802C1340.74 934.62 1342.5 931.157 1345.96 929.413L1346.05 929.367L1346.14 929.326C1347.71 928.613 1349.35 927.861 1351.07 927.08C1359.21 923.36 1368.82 918.976 1378.27 915.022Z" fill="#231F20" stroke="white" stroke-width="10"/>
<path d="M1496.77 1166.65H1490.08L1491.97 1160.24C1500.18 1132.37 1504.72 1113.83 1495.34 1085.66L1495.3 1085.56L1495.27 1085.46C1492.2 1074.74 1486.03 1065.03 1479.18 1054.65C1478.81 1054.07 1478.42 1053.5 1478.04 1052.92C1471.65 1043.25 1464.83 1032.94 1460.72 1021.39L1460.69 1021.31L1460.66 1021.22C1456.28 1007.37 1455.29 992.867 1454.36 979.221C1454.18 976.721 1454.02 974.249 1453.83 971.815C1452.59 955.783 1450.57 941.121 1442.94 928.154L1442.85 928.004L1442.77 927.848C1441.53 925.359 1439.17 922.555 1435.9 919.667C1432.68 916.827 1428.83 914.12 1424.91 911.765C1414.93 905.946 1407.8 901.107 1402.12 894.975C1396.42 888.818 1392.45 881.65 1388.26 871.6L1388.21 871.507C1385.02 865.147 1381.53 858.203 1379.72 851.13C1364.63 807.131 1352.94 762.025 1343.73 717.702C1343.02 722.341 1342.32 726.97 1341.61 731.606L1341.56 731.963C1339.52 745.453 1337.46 759.014 1335 772.997L1334.96 773.202L1334.91 773.403C1326.64 804.779 1318.35 834.629 1308.4 864.489L1308.4 864.508L1308.39 864.527C1286.94 927.254 1265.62 991.215 1255.78 1056.7C1254.21 1069.46 1254.21 1080.57 1255.78 1093.33C1256.1 1095.55 1256.77 1098.36 1257.59 1101.81C1257.73 1102.39 1257.87 1102.98 1258.02 1103.6C1259 1107.76 1260.09 1112.56 1260.74 1117.47C1262.02 1127.01 1261.9 1138.46 1254.59 1146.79C1248.93 1153.26 1244.83 1157.88 1240.56 1160.96C1235.97 1164.28 1231.39 1165.72 1225.13 1166.6L1224.78 1166.65H1224.43H1224.21H1223.99H1223.76H1223.54H1223.32H1223.09H1222.87H1222.65H1222.42H1222.2H1221.98H1221.75H1221.53H1221.3H1221.08H1220.85H1220.63H1220.41H1220.18H1219.95H1219.73H1219.5H1219.28H1219.05H1218.83H1218.6H1218.37H1218.15H1217.92H1217.7H1217.47H1217.24H1217.01H1216.79H1216.56H1216.33H1216.11H1215.88H1215.65H1215.42H1215.19H1214.97H1214.74H1214.51H1214.28H1214.05H1213.82H1213.59H1213.37H1213.14H1212.91H1212.68H1212.45H1212.22H1211.99H1211.76H1211.53H1211.3H1211.07H1210.84H1210.61H1210.38H1210.15H1209.92H1209.69H1209.45H1209.22H1208.99H1208.76H1208.53H1208.3H1208.07H1207.83H1207.6H1207.37H1207.14H1206.91H1206.67H1206.44H1206.21H1205.98H1205.74H1205.51H1205.28H1205.04H1204.81H1204.58H1204.34H1204.11H1203.88H1203.64H1203.41H1203.18H1202.94H1202.71H1202.47H1202.24H1202.01H1201.77H1201.54H1201.3H1201.07H1200.83H1200.6H1200.36H1200.13H1199.89H1199.66H1199.42H1199.19H1198.95H1198.71H1198.48H1198.24H1198.01H1197.77H1197.54H1197.3H1197.06H1196.83H1196.59H1196.35H1196.12H1195.88H1195.64H1195.41H1195.17H1194.93H1194.7H1194.46H1194.22H1193.99H1193.75H1193.51H1193.27H1193.04H1192.8H1192.56H1192.32H1192.08H1191.85H1191.61H1191.37H1191.13H1190.9H1190.66H1190.42H1190.18H1189.94H1189.7H1189.46H1189.23H1188.99H1188.75H1188.51H1188.27H1188.03H1187.79H1187.55H1187.32H1187.08H1186.84H1186.6H1186.36H1186.12H1185.88H1185.64H1185.4H1185.16H1184.92H1184.68H1184.44H1184.2H1183.96H1183.72H1183.48H1183.24H1183H1182.76H1182.52H1182.28H1182.04H1181.8H1181.56H1181.32H1181.08H1180.84H1180.6H1180.36H1180.12H1179.88H1179.64H1179.4H1179.16H1178.92H1178.68H1178.44H1178.19H1177.95H1177.71H1177.47H1177.23H1176.99H1176.75H1176.51H1176.27H1176.03H1175.79H1175.54H1175.3H1175.06H1174.82H1174.58H1174.34H1174.1H1173.86H1173.61H1173.37H1173.13H1172.89H1172.65H1172.41H1172.17H1171.92H1171.68H1171.44H1171.2H1170.96H1170.72H1170.47H1170.23H1169.99H1169.75H1169.51H1169.27H1169.02H1168.78H1168.54H1168.3H1168.06H1167.82H1167.57H1167.33H1167.09H1166.85H1166.61H1166.37H1166.12H1165.88H1165.64H1165.4H1165.16H1164.91H1164.67H1164.43H1164.19H1163.95H1163.71H1163.46H1163.22H1162.98H1162.74H1162.5H1162.25H1162.01H1161.77H1161.53H1161.29H1161.05H1160.8H1160.56H1160.32H1160.08H1159.84H1159.59H1159.35H1159.11H1158.87H1158.63H1158.39H1158.14H1157.9H1157.66H1157.42H1157.18H1156.94H1156.7H1156.45H1156.21H1155.97H1155.73H1155.49H1155.25H1155.01H1154.76H1154.52H1154.28H1154.04H1153.8H1153.56H1153.32H1153.07H1152.83H1152.59H1152.35H1152.11H1151.87H1151.63H1151.39H1151.15H1150.91H1150.66H1150.42H1150.18H1149.94H1149.7H1149.46H1149.22H1148.98H1148.74H1148.5H1148.26H1148.02H1147.78H1147.54H1147.3H1147.06H1146.81H1146.57H1146.33H1146.09H1145.85H1145.61H1145.37H1145.13H1144.89H1144.65H1144.41H1144.17H1143.93H1143.7H1143.46H1143.22H1142.98H1142.74H1142.5H1142.26H1142.02H1141.78H1141.54H1141.3H1141.06H1140.82H1140.58H1140.35H1140.11H1139.87H1139.63H1139.39H1139.15H1138.91H1138.67H1138.44H1138.2H1137.96H1137.72H1137.48H1137.24H1137.01H1136.77H1136.53H1136.29H1136.05H1135.82H1135.58H1135.34H1135.1H1134.87H1134.63H1134.39H1134.16H1133.92H1133.68H1133.44H1133.21H1132.97H1132.73H1132.5H1132.26H1132.02H1131.79H1131.55H1131.31H1131.08H1130.84H1130.61H1130.37H1130.13H1129.9H1129.66H1129.43H1129.19H1128.96H1128.72H1128.49H1128.25H1128.02H1127.78H1127.55H1127.31H1127.08H1126.84H1126.61H1126.37H1126.14H1125.9H1125.67H1125.44H1125.2H1124.97H1124.73H1124.5H1124.27H1124.03H1123.8H1123.57H1123.33H1123.1H1122.87H1122.63H1122.4H1122.17H1121.94H1121.7H1121.47H1121.24H1121.01H1120.78H1120.54H1120.31H1120.08H1119.85H1119.62H1119.39H1119.15H1118.92H1118.69H1118.46H1118.23H1118H1117.77H1117.54H1117.31H1117.08H1116.85H1116.62H1116.39H1116.16H1115.93H1115.7H1115.47H1115.24H1115.01H1114.78H1114.55H1114.33H1114.1H1113.87H1113.64H1113.41H1113.18H1112.96H1112.73H1112.5H1112.27H1112.04H1111.82H1111.59H1111.36H1111.14H1110.91H1110.68H1110.46H1110.23H1110H1109.78H1109.55H1109.32H1109.1H1108.87H1108.65H1108.42H1108.2H1107.97H1107.75H1107.52H1107.3H1107.07H1106.85H1106.63H1106.4H1106.18H1105.95H1105.73H1105.51H1105.28H1105.06H1104.84H1104.61H1104.39H1104.17H1103.95L1102.1 1157.01C1109.33 1154.12 1116.61 1148.3 1121 1141.13C1123.97 1134.64 1124.54 1123.89 1122.97 1109.89C1121.4 1095.98 1117.86 1079.8 1113.55 1063.27C1109.24 1046.77 1104.21 1030.09 1099.72 1015.2L1099.65 1014.97C1095.21 1000.26 1091.26 987.146 1089.15 977.904L1089.14 977.863L1089.14 977.823C1086.19 963.779 1081.54 950.055 1076.78 936.024C1076.35 934.745 1075.92 933.463 1075.48 932.177C1070.33 916.925 1065.24 901.289 1062.7 885.137L1062.66 884.941L1062.65 884.743C1061.81 873.93 1060.57 851.983 1059.95 830.661C1059.64 819.999 1059.49 809.447 1059.62 800.498C1059.74 791.967 1060.12 784.524 1060.99 779.85C1061.04 778.282 1061.33 776.648 1062.04 775.181C1062.82 773.563 1064.44 771.568 1067.21 771.104C1069.92 770.651 1072.12 771.934 1073.5 773.168C1074.9 774.434 1076.07 776.167 1077.05 778.127L1077.44 778.911L1077.55 779.782C1078.42 787.152 1078.51 796.628 1078.44 806.923C1078.41 810.238 1078.37 813.643 1078.33 817.115C1078.23 824.561 1078.14 832.317 1078.21 840.162C1078.41 863.37 1080.11 885.82 1087 900.376L1087.06 900.512L1087.12 900.652C1087.32 901.154 1087.59 901.428 1088.26 901.633C1089.11 901.894 1090.5 901.96 1092.36 901.556C1096.21 900.722 1099.99 898.362 1101.57 896.233L1101.62 896.166L1101.68 896.101C1114.21 880.414 1120.6 861.531 1127.22 841.622C1129.24 834.55 1131.18 828.12 1133.04 821.982C1140.33 797.861 1146.25 778.25 1150.13 741.891L1150.13 741.879L1150.13 741.867C1152.56 720.08 1151.36 705.616 1150.13 690.832L1150.13 690.736C1148.89 675.841 1147.62 660.607 1150.13 637.882L1150.15 637.707L1150.18 637.534C1151.3 631.409 1151.4 625.241 1151.53 618.054C1151.58 615.138 1151.63 612.053 1151.76 608.736C1152.18 597.515 1153.46 584.626 1158.62 569.172C1170.21 534.391 1180.46 510.196 1206.18 487.862C1227.39 466.745 1260.49 461.759 1288.21 458.483L1288.5 458.448H1288.79C1308.75 458.448 1323.57 463.9 1334.62 473.188C1345.58 482.396 1352.37 494.984 1357.07 508.436C1361.73 521.78 1364.47 536.413 1367.02 550.043L1367.07 550.28C1369.67 564.185 1372.07 576.898 1376 587.115L1376.04 587.22L1376.08 587.328C1380.97 601.997 1395.72 637.999 1403.76 652.507L1403.86 652.698L1403.95 652.898C1410.55 667.732 1422.18 694.313 1430.52 719.307C1434.08 729.132 1435.35 740.907 1435.13 751.386C1434.92 761.74 1433.25 771.71 1430.27 777.655L1430.19 777.829L1430.09 777.996C1429.44 779.068 1429.31 779.76 1429.29 780.086C1429.38 780.086 1429.5 780.076 1429.66 780.043C1430.13 779.947 1430.89 779.644 1431.78 778.845C1435.36 772.999 1437.2 767.855 1438.72 762.331C1439.22 760.545 1439.7 758.63 1440.2 756.6C1441.27 752.346 1442.46 747.591 1444.16 742.477L1444.16 742.475C1446.42 735.701 1448.34 727.051 1450.32 718.136L1450.62 716.771C1452.65 707.606 1454.79 698.167 1457.42 691.178C1460.9 681.41 1465.83 671.9 1470.6 662.688C1471.66 660.636 1472.72 658.598 1473.75 656.575C1479.5 645.272 1484.59 634.243 1486.92 622.585L1486.92 622.551L1486.93 622.517C1491.6 600.717 1488.57 578.727 1480.66 556.356C1479.18 553.715 1477.07 548.685 1474.73 542.859C1473.26 539.222 1471.63 535.062 1469.9 530.67C1468.61 527.404 1467.28 524.009 1465.93 520.607C1462.73 512.572 1459.41 504.392 1456.28 497.312C1453.21 490.378 1450.45 484.785 1448.27 481.418C1437.28 469.697 1427.45 463.006 1415.51 455.526C1413.92 454.531 1412.3 453.522 1410.63 452.486C1399.58 445.625 1386.62 437.578 1369.92 424.519C1363.6 419.753 1355.61 414.956 1347.3 409.979L1343.55 407.734L1345.27 403.719C1354.43 382.352 1364.99 362.039 1375.4 342.001C1376.35 340.177 1377.3 338.357 1378.24 336.537C1389.59 314.662 1400.62 293 1409.59 270.169C1425.01 230.798 1450.77 210.287 1478.86 188.79L1481.53 186.748L1484.43 188.447C1508.02 202.274 1520.57 210.363 1527.36 222.749C1530.76 228.956 1532.57 235.959 1533.97 244.655C1534.97 250.831 1535.79 258.151 1536.78 266.901C1537.17 270.374 1537.58 274.072 1538.04 278.013L1538.1 278.443L1538.07 278.874C1537.26 293.485 1537.66 308.13 1538.08 322.813L1538.09 323.131C1538.49 337.584 1538.91 352.095 1538.08 366.24C1538.04 372.564 1535.92 382.34 1533.97 391.321L1533.85 391.896C1531.76 401.525 1529.89 410.24 1529.84 415.372C1530.49 422.615 1530.63 428.115 1530.76 433.177C1530.8 434.504 1530.83 435.8 1530.87 437.09C1531.07 443.324 1531.46 449.7 1533.06 459.339L1533.09 459.475L1533.1 459.612C1533.69 464.943 1536.28 470.018 1539.36 476.037C1539.91 477.118 1540.48 478.23 1541.05 479.379C1544.53 486.322 1548.24 494.725 1546.26 503.98C1542.12 531.46 1534.87 558.124 1527.75 584.315C1526.24 589.87 1524.73 595.403 1523.26 600.918C1514.82 632.645 1507.54 663.933 1506.74 696.314L1506.74 696.319C1505.91 728.205 1508.37 765.657 1517.7 800.329C1527.02 835.011 1543.09 866.438 1569.1 886.982C1569.99 887.601 1572.45 887.937 1576.21 885.797C1579.82 883.732 1582.21 880.631 1582.64 878.44L1582.65 878.394L1582.66 878.348C1586.63 860.123 1585.86 840.959 1584.63 821.122C1584.51 819.288 1584.39 817.447 1584.27 815.6C1583.12 797.713 1581.93 779.309 1584.24 761.566L1584.25 761.553C1587.58 736.455 1594.29 708.096 1602.61 683.061L1602.61 683.058C1605.94 673.093 1611.75 656.462 1618.42 640.421C1621.75 632.402 1625.32 624.471 1628.92 617.565C1632.35 610.974 1635.95 605.051 1639.54 600.884C1640.88 598.539 1642.85 596.822 1645.27 596.033C1647.84 595.199 1650.44 595.563 1652.52 596.61C1654.57 597.642 1656.39 599.475 1657.22 601.929C1658.1 604.531 1657.71 607.382 1656.06 609.847L1654.64 611.978C1654.61 612.033 1654.58 612.089 1654.55 612.147C1653.66 613.796 1652.43 616.273 1650.92 619.463C1647.92 625.823 1643.94 634.823 1639.63 645.281C1631.01 666.235 1621.21 692.799 1615.52 715.56L1615.51 715.598L1615.5 715.636C1608.95 740.204 1602.86 770.309 1602.26 799.666C1601.64 829.101 1606.55 857.154 1621.34 878.19L1621.45 878.339L1621.54 878.495C1625.71 885.449 1632.13 892.471 1639.69 900.742C1640.52 901.64 1641.35 902.553 1642.2 903.481C1650.67 912.785 1660.05 923.414 1667.75 936.257L1667.79 936.325L1667.83 936.394C1670.34 940.911 1672.31 948.579 1673.88 957.087C1675.49 965.819 1676.8 976.141 1677.74 986.454C1678.68 996.774 1679.25 1007.17 1679.38 1016.05C1679.51 1024.71 1679.22 1032.34 1678.31 1037.05C1674.78 1061.41 1658.51 1092.33 1636.51 1117.68C1614.52 1143.02 1585.78 1163.98 1556.63 1166.63L1556.41 1166.65H1556.18H1556.07H1555.95H1555.83H1555.72H1555.6H1555.49H1555.37H1555.25H1555.14H1555.02H1554.91H1554.79H1554.67H1554.56H1554.44H1554.33H1554.21H1554.09H1553.98H1553.86H1553.75H1553.63H1553.51H1553.4H1553.28H1553.17H1553.05H1552.93H1552.82H1552.7H1552.59H1552.47H1552.35H1552.24H1552.12H1552.01H1551.89H1551.77H1551.66H1551.54H1551.43H1551.31H1551.19H1551.08H1550.96H1550.85H1550.73H1550.62H1550.5H1550.38H1550.27H1550.15H1550.04H1549.92H1549.8H1549.69H1549.57H1549.46H1549.34H1549.22H1549.11H1548.99H1548.88H1548.76H1548.64H1548.53H1548.41H1548.3H1548.18H1548.06H1547.95H1547.83H1547.72H1547.6H1547.48H1547.37H1547.25H1547.14H1547.02H1546.9H1546.79H1546.67H1546.56H1546.44H1546.32H1546.21H1546.09H1545.98H1545.86H1545.74H1545.63H1545.51H1545.4H1545.28H1545.16H1545.05H1544.93H1544.82H1544.7H1544.58H1544.47H1544.35H1544.24H1544.12H1544H1543.89H1543.77H1543.66H1543.54H1543.42H1543.31H1543.19H1543.08H1542.96H1542.84H1542.73H1542.61H1542.5H1542.38H1542.26H1542.15H1542.03H1541.92H1541.8H1541.68H1541.57H1541.45H1541.34H1541.22H1541.1H1540.99H1540.87H1540.76H1540.64H1540.52H1540.41H1540.29H1540.18H1540.06H1539.94H1539.83H1539.71H1539.6H1539.48H1539.36H1539.25H1539.13H1539.01H1538.9H1538.78H1538.67H1538.55H1538.43H1538.32H1538.2H1538.09H1537.97H1537.85H1537.74H1537.62H1537.51H1537.39H1537.27H1537.16H1537.04H1536.93H1536.81H1536.69H1536.58H1536.46H1536.35H1536.23H1536.11H1536H1535.88H1535.77H1535.65H1535.53H1535.42H1535.3H1535.19H1535.07H1534.95H1534.84H1534.72H1534.61H1534.49H1534.37H1534.26H1534.14H1534.03H1533.91H1533.79H1533.68H1533.56H1533.45H1533.33H1533.21H1533.1H1532.98H1532.87H1532.75H1532.63H1532.52H1532.4H1532.29H1532.17H1532.05H1531.94H1531.82H1531.71H1531.59H1531.47H1531.36H1531.24H1531.12H1531.01H1530.89H1530.78H1530.66H1530.54H1530.43H1530.31H1530.2H1530.08H1529.96H1529.85H1529.73H1529.62H1529.5H1529.38H1529.27H1529.15H1529.04H1528.92H1528.8H1528.69H1528.57H1528.46H1528.34H1528.22H1528.11H1527.99H1527.88H1527.76H1527.64H1527.53H1527.41H1527.3H1527.18H1527.06H1526.95H1526.83H1526.71H1526.6H1526.48H1526.37H1526.25H1526.13H1526.02H1525.9H1525.79H1525.67H1525.55H1525.44H1525.32H1525.21H1525.09H1524.97H1524.86H1524.74H1524.63H1524.51H1524.39H1524.28H1524.16H1524.05H1523.93H1523.81H1523.7H1523.58H1523.47H1523.35H1523.23H1523.12H1523H1522.89H1522.77H1522.65H1522.54H1522.42H1522.3H1522.19H1522.07H1521.96H1521.84H1521.72H1521.61H1521.49H1521.38H1521.26H1521.14H1521.03H1520.91H1520.8H1520.68H1520.56H1520.45H1520.33H1520.22H1520.1H1519.98H1519.87H1519.75H1519.64H1519.52H1519.4H1519.29H1519.17H1519.05H1518.94H1518.82H1518.71H1518.59H1518.47H1518.36H1518.24H1518.13H1518.01H1517.89H1517.78H1517.66H1517.55H1517.43H1517.31H1517.2H1517.08H1516.97H1516.85H1516.73H1516.62H1516.5H1516.39H1516.27H1516.15H1516.04H1515.92H1515.81H1515.69H1515.57H1515.46H1515.34H1515.22H1515.11H1514.99H1514.88H1514.76H1514.64H1514.53H1514.41H1514.3H1514.18H1514.06H1513.95H1513.83H1513.72H1513.6H1513.48H1513.37H1513.25H1513.14H1513.02H1512.9H1512.79H1512.67H1512.55H1512.44H1512.32H1512.21H1512.09H1511.97H1511.86H1511.74H1511.63H1511.51H1511.39H1511.28H1511.16H1511.05H1510.93H1510.81H1510.7H1510.58H1510.47H1510.35H1510.23H1510.12H1510H1509.89H1509.77H1509.65H1509.54H1509.42H1509.3H1509.19H1509.07H1508.96H1508.84H1508.72H1508.61H1508.49H1508.38H1508.26H1508.14H1508.03H1507.91H1507.8H1507.68H1507.56H1507.45H1507.33H1507.22H1507.1H1506.98H1506.87H1506.75H1506.63H1506.52H1506.4H1506.29H1506.17H1506.05H1505.94H1505.82H1505.71H1505.59H1505.47H1505.36H1505.24H1505.13H1505.01H1504.89H1504.78H1504.66H1504.55H1504.43H1504.31H1504.2H1504.08H1503.96H1503.85H1503.73H1503.62H1503.5H1503.38H1503.27H1503.15H1503.04H1502.92H1502.8H1502.69H1502.57H1502.46H1502.34H1502.22H1502.11H1501.99H1501.88H1501.76H1501.64H1501.53H1501.41H1501.29H1501.18H1501.06H1500.95H1500.83H1500.71H1500.6H1500.48H1500.37H1500.25H1500.13H1500.02H1499.9H1499.79H1499.67H1499.55H1499.44H1499.32H1499.2H1499.09H1498.97H1498.86H1498.74H1498.62H1498.51H1498.39H1498.28H1498.16H1498.04H1497.93H1497.81H1497.7H1497.58H1497.46H1497.35H1497.23H1497.12H1497H1496.88H1496.77Z" fill="white" stroke="white" stroke-width="10"/>
<path d="M1390.03 951.244L1390.03 951.244L1390.03 951.244L1390.03 951.25L1390.07 951.274L1390.22 951.374C1390.35 951.461 1390.54 951.59 1390.77 951.75C1391.24 952.072 1391.88 952.515 1392.56 953.005C1392.62 953.046 1392.68 953.087 1392.73 953.128C1392.52 953.171 1392.29 953.21 1392.05 953.246C1389.98 953.557 1387.61 953.53 1385.16 953.429C1384.77 953.413 1384.36 953.394 1383.95 953.375C1383.16 953.339 1382.37 953.303 1381.67 953.283C1380.63 953.255 1379.4 953.247 1378.29 953.398C1377.73 953.474 1376.97 953.619 1376.19 953.947C1375.42 954.27 1374.24 954.934 1373.4 956.273C1371.48 959.338 1373.24 962.257 1373.78 963.07L1373.82 963.136L1373.87 963.2C1380.46 972.438 1378.19 984.961 1373.34 996.276L1373.19 996.642L1373.09 997.029C1372.22 1000.51 1371.7 1003.44 1371.7 1006.51C1371.7 1009.57 1372.22 1012.5 1373.09 1015.98L1373.1 1016.02L1373.11 1016.05C1375.72 1025.88 1380.13 1035.81 1384.38 1045.38C1385.68 1048.31 1386.97 1051.21 1388.19 1054.06C1393.52 1066.56 1397.7 1078.55 1397.7 1090.68C1397.7 1098.41 1403.1 1102.6 1407.11 1105.05C1408.15 1105.69 1409.19 1106.27 1410.13 1106.78C1410.24 1106.84 1410.35 1106.9 1410.45 1106.96C1411.28 1107.41 1412.01 1107.81 1412.69 1108.21C1414.35 1109.19 1414.89 1109.74 1415.03 1109.95L1415.11 1110.07L1415.2 1110.18C1415.56 1110.66 1415.85 1111.42 1415.85 1112.91C1415.85 1114.49 1415.53 1116.29 1415.1 1118.67C1415.09 1118.73 1415.08 1118.8 1415.07 1118.87C1414.68 1121 1414.2 1123.64 1414.19 1126.21C1414.19 1128.74 1414.64 1131.63 1416.37 1134.28C1417.94 1138.15 1421.22 1140.49 1424.3 1141.6C1427.23 1142.67 1430.89 1142.95 1433.98 1141.69C1439.29 1140.41 1442.95 1136.74 1445.37 1134.31C1445.46 1134.22 1445.55 1134.13 1445.64 1134.04C1447.06 1132.62 1448.03 1131.66 1448.97 1131.01C1449.81 1130.42 1450.26 1130.34 1450.56 1130.34H1450.91L1451.26 1130.29C1456.79 1129.51 1462.9 1129.15 1468.47 1129.89C1474.08 1130.64 1478.63 1132.43 1481.68 1135.48L1482.25 1136.05L1482.98 1136.41C1485.45 1137.65 1488.43 1138.2 1491.17 1136.84C1493.68 1135.59 1494.96 1133.21 1495.16 1130.94C1495.56 1128.52 1494.7 1126.47 1493.76 1125.03C1492.78 1123.57 1491.43 1122.29 1490.2 1121.24C1489.05 1120.26 1487.69 1119.21 1486.34 1118.17C1486.21 1118.07 1486.08 1117.97 1485.95 1117.87C1484.42 1116.7 1482.84 1115.47 1481.24 1114.11C1474.87 1108.71 1468.51 1101.49 1467.07 1090.06L1467.07 1089.99L1467.05 1089.92C1466.41 1085.74 1465.96 1081.81 1465.52 1077.99C1463.78 1062.88 1462.25 1049.58 1449.8 1030.22L1449.51 1029.77L1449.14 1029.4C1447.24 1027.48 1444.72 1026.2 1443.25 1025.45C1442.93 1025.28 1442.67 1025.15 1442.46 1025.04C1441.5 1024.5 1441.03 1024.13 1440.74 1023.71C1440.94 1021.57 1441.77 1018.97 1442.91 1015.34L1442.95 1015.23C1444.17 1011.39 1445.67 1006.56 1445.67 1001.56C1445.67 999.255 1445.13 996.196 1444.12 993.438C1443.22 990.955 1441.41 987.248 1437.91 985.521L1437.61 985.371L1437.29 985.264C1433.39 983.96 1429.25 984.702 1426.26 985.297C1426.05 985.339 1425.85 985.381 1425.64 985.422C1426.29 984.921 1426.92 984.369 1427.54 983.763C1433.81 978.357 1439.2 971.175 1442.39 963.433C1445.58 955.679 1446.73 946.929 1443.72 938.813C1440.64 929.688 1433.53 923.767 1425.15 920.892C1416.9 918.063 1407.28 918.095 1398.23 920.745C1391.21 922.059 1386.72 927.404 1385.09 933.126C1383.45 938.863 1384.44 945.808 1389.28 950.629L1389.62 950.973L1390.03 951.244ZM1390.03 951.244L1390.03 951.243L1390.03 951.244ZM1379.61 963.312C1379.61 963.312 1379.62 963.311 1379.63 963.308C1379.62 963.31 1379.61 963.311 1379.61 963.312Z" fill="white" stroke="white" stroke-width="10"/>
<path d="M1431.7 33.7731L1436.01 24.7587C1471.94 40.1585 1505.61 74.0388 1533.85 113.958L1534.07 114.265L1534.24 114.601C1537.78 121.651 1535.62 129.366 1530.14 133.128C1527.37 135.03 1523.85 135.82 1520.22 134.912C1516.63 134.014 1513.43 131.591 1510.86 127.993L1510.79 127.898L1510.73 127.801C1501.65 113.773 1488.55 93.7217 1474.26 75.3433C1459.81 56.7711 1444.7 40.6533 1431.7 33.7731ZM1292.64 468.319L1293.06 458.498C1299.88 457.527 1307.41 458.78 1314.8 461.208C1322.24 463.654 1329.86 467.402 1337.02 471.783C1351.2 480.466 1364.27 492.092 1370.61 502.047L1370.69 502.174L1370.76 502.305C1372.67 505.746 1374.71 508.598 1376.58 510.617C1377.26 511.351 1377.88 511.94 1378.43 512.395C1378.52 510.946 1378.44 508.723 1377.95 505.49L1377.89 505.113V504.731C1377.89 501.069 1379.55 496.499 1381.25 492.893C1382.99 489.208 1385.35 485.288 1387.63 483.028L1387.97 482.687L1388.37 482.417C1396.85 476.75 1405.58 475.224 1413.87 476.687C1422.01 478.123 1429.41 482.373 1435.64 487.705C1446.08 496.408 1453.72 506.63 1457.58 518.211C1461.45 529.821 1461.4 542.458 1457 555.738C1454.81 563.235 1449.01 568.25 1443.3 571.101C1437.74 573.88 1431.14 575.156 1426.3 573.958C1414.63 571.263 1408.99 567.102 1404.63 563.438C1404.32 563.172 1404.02 562.916 1403.72 562.669C1400.31 559.777 1398.41 558.162 1393.96 557.576C1382.99 556.877 1377.88 560.51 1375.57 564.99C1372.96 570.064 1372.96 577.979 1376.08 587.328L1367.17 591.678C1366.69 590.953 1366.15 590.453 1365.72 590.18C1365.67 590.154 1365.64 590.132 1365.6 590.112C1365.35 590.533 1364.97 591.409 1364.7 593.026L1364.66 593.216L1364.62 593.403C1364.42 594.22 1364.17 595.112 1363.85 595.826C1363.76 596.019 1363.62 596.323 1363.4 596.658C1363.31 597.417 1363.21 598.308 1363.1 599.351L1363.06 599.682L1362.98 600.005C1362.37 602.498 1361.09 604.768 1358.93 606.214C1356.74 607.672 1354.32 607.85 1352.31 607.406C1350.36 606.975 1348.62 605.936 1347.33 604.6C1346.07 603.296 1344.87 601.289 1344.87 598.804V598.448L1344.92 598.096C1349.05 569.224 1350.65 552.243 1350.45 540.093C1350.26 528.193 1348.34 520.884 1345.13 511.265L1345.12 511.255C1342.26 502.651 1334.43 493.075 1324.26 484.895C1314.15 476.764 1302.44 470.59 1292.64 468.319ZM1435.35 779.045L1425.98 775.569C1430.61 760.949 1430.32 742.442 1427.86 722.813C1426.03 708.115 1423.05 693.247 1420.26 679.323C1419.34 674.755 1418.45 670.29 1417.62 665.965C1416.58 662.122 1416.89 658.426 1418.6 655.372C1420.32 652.286 1423.22 650.331 1426.37 649.634C1432.88 648.193 1439.84 652.059 1442.16 660.157L1442.21 660.321L1442.24 660.488C1452.29 707.401 1450.71 743.187 1435.35 779.045ZM1483.01 178.383L1484.65 177.572L1486.43 178.015C1493.81 179.855 1500.55 183.496 1506.74 187.552C1510.71 190.158 1514.72 193.118 1518.56 195.951C1520.57 197.439 1522.54 198.893 1524.43 200.241L1524.55 200.323L1524.66 200.411C1532.56 206.744 1541.37 210.864 1547.95 210.864H1548.44L1548.93 210.963C1555.66 212.316 1560.82 211.066 1566.26 207.017C1570.45 203.376 1573.11 198.142 1576.22 192.022C1576.65 191.179 1577.08 190.319 1577.54 189.443C1580.96 182.797 1585.41 174.843 1594 171.6C1603.8 167.693 1612.62 169.159 1619.89 173.972C1626.9 178.615 1632.2 186.165 1636.01 194.108C1639.85 202.121 1642.4 210.995 1643.68 218.86C1644.92 226.491 1645.11 233.999 1643.47 238.914L1643.42 239.054L1643.37 239.191C1639.49 248.891 1630.04 256.521 1620.35 258.642C1610.49 262.413 1600.89 260.267 1592.29 256.817L1591.92 256.669L1591.58 256.464C1587.19 253.826 1583.63 250.021 1580.69 246.875C1580.38 246.547 1580.08 246.226 1579.79 245.915C1576.42 242.333 1573.8 239.851 1570.84 238.659L1570.79 238.639L1570.74 238.617C1569.84 238.231 1568.93 237.836 1568.01 237.439C1562.77 235.16 1557.36 232.805 1552.24 231.686C1546.37 230.402 1542.7 231.133 1540.4 233.736C1540.4 233.747 1540.39 233.762 1540.39 233.781C1540.31 233.982 1540.03 234.665 1539.72 236.157C1539.34 237.945 1539.02 240.318 1538.76 243.181C1538.23 248.892 1537.98 256.113 1537.87 263.6C1537.73 273.974 1537.88 284.457 1537.99 291.959C1538.04 295.363 1538.08 298.154 1538.08 300.042L1528.16 300.94C1524.89 282.994 1518.42 257.164 1510.44 239.56C1499.76 219.849 1476.6 207.375 1459.57 204.285L1446.47 201.911L1457.89 195.076C1461.84 192.708 1467.05 189.1 1471.84 185.77L1472.49 185.319C1474.61 183.843 1476.62 182.441 1478.32 181.295C1480.08 180.103 1481.82 178.97 1483.01 178.383Z" fill="#F57215" stroke="white" stroke-width="10"/>
<path d="M1427.68 945.676L1427.68 945.681L1427.67 945.687C1426.22 947.134 1424.29 948.274 1421.87 948.27C1419.86 948.267 1418.19 947.431 1417.4 947.035C1417.39 947.028 1417.38 947.022 1417.37 947.016C1417.19 946.929 1417.03 946.845 1416.87 946.764C1415.33 945.984 1414.34 945.483 1412.6 945.483C1411.61 945.483 1410.57 945.566 1409.41 945.67C1409.31 945.679 1409.22 945.687 1409.12 945.696C1408.11 945.787 1406.89 945.897 1405.79 945.898C1404.72 945.898 1402.81 945.823 1401.06 944.821C1400.07 944.252 1399.15 943.395 1398.51 942.203C1397.9 941.047 1397.7 939.859 1397.7 938.828C1397.7 934.086 1401.4 931.576 1404.14 930.477C1407.04 929.318 1410.64 928.878 1414.25 928.878C1418.57 928.878 1422.62 931.511 1425.02 933.673C1426.31 934.829 1427.56 936.244 1428.39 937.762C1428.79 938.502 1429.26 939.573 1429.38 940.845C1429.51 942.222 1429.22 944.137 1427.68 945.676Z" fill="#231F20" stroke="white" stroke-width="10"/>
<path d="M210.597 895.509L211.905 891.791C216.051 879.999 221.202 872.839 226.865 869.239C234.691 864.297 247.055 861.463 264.677 861.463C278.389 861.463 286.513 864.104 290.637 868.048L290.646 868.056L290.654 868.064C294.34 871.557 296.951 878.113 297.399 888.89C285.084 893.627 273.409 897.489 262.373 900.488C250.354 903.748 223.867 909.49 182.716 917.736C148.146 924.62 123.288 935.268 109.426 950.457L109.423 950.46C95.7139 965.505 89 984.588 89 1007.31C89 1031.9 98.482 1052.7 117.201 1069.39L117.201 1069.39C136.135 1086.26 163.41 1094.29 198.222 1094.29C224.391 1094.29 247.589 1090.28 267.709 1082.06L267.726 1082.05L267.743 1082.04C280.316 1076.8 292.813 1068.65 305.245 1057.73C306.014 1061.73 306.804 1065.02 307.63 1067.56C309.042 1071.89 311.917 1077.86 316.069 1085.29L317.5 1087.85H320.433H422.908H430.889L427.407 1080.66C421.746 1068.99 418.218 1059.69 416.637 1052.63C415.053 1045.54 414.206 1035.46 414.206 1022.18V896.244C414.206 882.16 411.372 867.477 405.836 852.247L405.834 852.241C400.238 836.911 392.472 824.701 382.369 815.954C368.326 803.665 350.889 795.67 330.237 791.862L210.597 895.509ZM210.597 895.509L206.677 895.107M210.597 895.509L206.677 895.107M206.677 895.107L102.086 884.362L96.5345 883.792M206.677 895.107L96.5345 883.792M96.5345 883.792L97.7084 878.336M96.5345 883.792L97.7084 878.336M97.7084 878.336C101.732 859.637 107.628 844.512 115.595 833.248L115.596 833.247M97.7084 878.336L115.596 833.247M115.596 833.247C123.558 822.002 134.9 812.426 149.393 804.403L149.395 804.401M115.596 833.247L149.395 804.401M149.395 804.401C160.112 798.475 174.515 794.029 192.369 790.913L192.376 790.912M149.395 804.401L192.376 790.912M192.376 790.912C210.268 787.812 229.563 786.269 250.248 786.269M192.376 790.912L250.248 786.269M291.415 995.667L291.415 995.668C287.558 1003.09 280.891 1009.66 270.994 1015.19C261.201 1020.66 250.657 1023.4 239.256 1023.4C228.252 1023.4 220.783 1020.83 215.999 1016.52L291.415 995.667ZM291.415 995.667C295.333 988.131 297.467 977.99 297.467 964.864V954.471M291.415 995.667L297.467 954.471M250.248 786.269C283.21 786.269 309.911 788.111 330.236 791.862L250.248 786.269ZM297.467 954.471C284.244 958.95 270.574 962.949 256.444 966.482C245.41 969.403 236.532 972.268 229.747 975.059C222.85 977.896 218.533 980.491 216.25 982.684L297.467 954.471ZM208.607 999.185C208.607 993.224 210.971 987.763 216.25 982.685L208.607 999.185ZM208.607 999.185C208.607 1006.44 211.085 1012.08 215.999 1016.52L208.607 999.185Z" fill="#231F20" stroke="white" stroke-width="10"/>
<path d="M473.157 688.825V683.825H478.157H587.764H592.764V688.825V1082.85V1087.85H587.764H478.157H473.157V1082.85V688.825Z" fill="#231F20" stroke="white" stroke-width="10"/>
<path d="M787.319 684.378L794.604 680.634V688.825V792.718H849.78H854.78V797.718V877.955V882.955H849.78H794.604V978.767C794.604 984.688 794.89 989.465 795.426 993.154C795.977 996.945 796.735 999.158 797.399 1000.27L797.404 1000.28L797.409 1000.29C799.845 1004.4 804.191 1006.92 811.989 1006.92C819.297 1006.92 830.03 1004.79 844.475 1000.22L850.303 998.371L850.955 1004.45L859.049 1079.89L859.528 1084.36L855.144 1085.31C827.765 1091.29 802.107 1094.29 778.208 1094.29C750.706 1094.29 729.597 1090.8 715.566 1083.27L715.554 1083.26C701.6 1075.71 691.304 1064.27 684.694 1049.11C678.067 1033.92 674.997 1010.02 674.997 978.117V882.955H639.88H634.88V877.955V797.718V792.718H639.88H674.997V745.151V742.099L677.712 740.704L787.319 684.378Z" fill="#231F20" stroke="white" stroke-width="10"/>
<path d="M473.259 1141.05V1136.05H478.259H587.866H592.866V1141.05V1535.08V1540.08H587.866H478.259H473.259V1535.08V1141.05Z" fill="#231F20" stroke="white" stroke-width="10"/>
<path d="M657.188 1141.05V1136.05H662.188H771.793H776.793V1141.05V1215.56V1220.56H771.793H662.188H657.188V1215.56V1141.05ZM657.188 1249.95V1244.95H662.188H771.793H776.793V1249.95V1535.08V1540.08H771.793H662.188H657.188V1535.08V1249.95Z" fill="#231F20" stroke="white" stroke-width="10"/>
<path d="M836.104 1244.95V1249.95V1535.08V1540.08H841.104H950.708H955.708V1535.08V1398.38C955.708 1372.63 959.858 1356.24 966.917 1347.64C974.173 1338.84 983.477 1334.47 995.259 1334.47C1006.12 1334.47 1013.95 1337.79 1019.43 1343.93L836.104 1244.95ZM836.104 1244.95H841.104M836.104 1244.95H841.104M841.104 1244.95H943.164H948.164M841.104 1244.95H948.164M948.164 1244.95V1249.95M948.164 1244.95V1249.95M948.164 1249.95V1282.93M948.164 1249.95V1282.93M948.164 1282.93C960.808 1268.87 973.725 1258.28 986.962 1251.34C1003.41 1242.68 1023.21 1238.5 1046.16 1238.5C1077.42 1238.5 1102.49 1247.85 1120.71 1267.06C1139.03 1286.34 1147.7 1315.62 1147.7 1353.85V1535.08V1540.08H1142.7H1033.09H1028.09V1535.08V1378.52C1028.09 1361 1024.79 1349.93 1019.43 1343.93L948.164 1282.93Z" fill="#231F20" stroke="white" stroke-width="10"/>
<path d="M1513.95 1540.08V1535.08V1249.95V1244.95H1508.95H1399.34H1394.34V1249.95V1387.23C1394.34 1413.01 1390.14 1429.44 1383.01 1438.03C1375.64 1446.92 1366.36 1451.27 1354.79 1451.27C1343.93 1451.27 1336.12 1447.92 1330.64 1441.69L1330.64 1441.68C1325.25 1435.56 1321.96 1424.4 1321.96 1406.84V1249.95V1244.95H1316.96H1207.35H1202.35V1249.95V1431.44C1202.35 1469.49 1211.01 1498.71 1229.34 1517.99C1247.55 1537.16 1272.54 1546.52 1303.64 1546.52C1326.74 1546.52 1346.56 1542.39 1362.92 1533.89L1513.95 1540.08ZM1513.95 1540.08H1508.95H1406.62H1401.62V1535.08V1502.56M1513.95 1540.08L1401.62 1502.56M1401.62 1502.56C1388.98 1516.55 1376.09 1527.05 1362.92 1533.89L1401.62 1502.56Z" fill="#231F20" stroke="white" stroke-width="10"/>
<path d="M1547.34 1252.87L1541.62 1244.95H1551.39H1681.06H1683.98L1685.41 1247.49L1726.18 1319.85L1774.32 1247.19L1775.8 1244.95H1778.48H1898.84H1908.56L1902.9 1252.86L1807.85 1385.83L1910.1 1532.21L1915.59 1540.08H1906H1778.48H1775.59L1774.15 1537.56L1725.48 1452.69L1668.01 1537.87L1666.52 1540.08H1663.86H1545.66H1536.1L1541.55 1532.22L1643.19 1385.85L1547.34 1252.87Z" fill="#231F20" stroke="white" stroke-width="10"/>
<path d="M374.221 486.26V1625.43H1590.36V486.26H374.221Z" fill="#FDD005"/>
<path d="M1410.94 909.119C1394.44 912.409 1366.39 925.618 1348.21 933.878C1344.92 935.535 1344.92 940.483 1348.21 940.483C1353.18 942.14 1356.49 943.775 1359.76 947.087C1368.04 956.984 1377.94 965.244 1377.94 978.453C1377.94 993.294 1369.68 998.244 1371.33 1011.45C1376.28 1037.87 1397.73 1064.26 1397.73 1092.34C1396.09 1113.79 1376.28 1113.79 1364.73 1128.65C1361.42 1133.6 1359.76 1138.55 1359.76 1145.15C1359.76 1151.76 1358.13 1163.31 1364.73 1163.31C1372.97 1164.96 1374.63 1148.46 1382.88 1148.46C1394.44 1150.1 1392.8 1166.62 1402.7 1166.62H1836.78C1835.12 1161.65 1831.83 1155.07 1828.54 1153.41C1807.07 1133.6 1752.6 1107.18 1742.71 1075.84C1726.19 1027.95 1747.66 966.901 1754.26 914.066C1777.36 760.577 1769.13 676.377 1741.05 549.284C1726.19 476.658 1714.64 412.294 1693.19 341.325C1689.88 328.116 1671.74 309.959 1665.12 298.407C1660.17 290.147 1655.22 275.281 1653.57 265.386C1642.01 210.917 1646.98 158.105 1607.36 111.875C1592.49 95.3757 1564.44 93.7184 1546.29 82.1665C1511.63 64.01 1476.98 45.8535 1442.3 24.4072C1437.35 21.0923 1422.49 16.1453 1414.25 21.0925C1453.85 49.1686 1480.27 82.1661 1491.82 131.688C1496.77 154.792 1503.37 172.949 1480.27 186.156C1473.66 189.471 1430.75 217.522 1410.94 265.386C1405.99 275.281 1377.94 339.667 1344.92 400.742C1305.32 379.272 1265.69 377.638 1237.64 377.638C1207.93 377.638 1155.1 380.928 1130.34 399.084C1077.55 438.71 1054.43 489.867 1037.93 547.649C1024.72 592.201 1016.48 638.432 1013.17 684.639C1009.85 747.368 1016.48 816.679 1023.06 879.411C1028.03 920.671 1032.96 960.297 1036.27 1001.56C1044.51 1046.11 1042.87 1080.79 1041.22 1089.02C1026.38 1135.25 1003.27 1151.76 958.7 1160.02C952.095 1160.02 948.783 1163.31 950.44 1166.62C991.722 1166.62 1032.96 1166.62 1074.24 1166.62H1226.09C1239.27 1166.62 1242.59 1160.02 1255.8 1148.46C1273.95 1130.31 1249.19 1098.94 1255.8 1057.68C1270.66 955.327 1315.21 862.91 1336.66 763.867C1339.97 752.315 1341.63 737.451 1343.28 720.952C1351.52 760.577 1363.07 798.525 1374.63 836.493C1386.18 876.096 1397.73 897.567 1415.91 907.462C1414.25 907.462 1412.59 907.462 1410.94 909.119Z" fill="#231F20"/>
<path d="M1496.77 1161.65C1505.03 1133.6 1509.98 1113.79 1500.08 1084.08C1493.45 1060.97 1473.66 1042.82 1465.43 1019.71C1455.51 988.347 1463.77 953.692 1447.25 925.618C1443.96 919.013 1435.7 912.409 1427.46 907.462C1407.65 895.91 1401.04 889.305 1392.8 869.514C1389.49 862.909 1386.18 856.307 1384.52 849.703C1366.39 796.89 1353.18 742.421 1343.28 689.586C1338.31 717.66 1335.02 744.055 1330.07 772.129C1321.81 803.472 1313.55 833.201 1303.66 862.909C1282.21 925.618 1260.74 990.005 1250.83 1056.03C1249.19 1069.23 1249.19 1080.79 1250.83 1093.99C1252.48 1105.55 1262.4 1130.31 1250.83 1143.49C1239.27 1156.7 1235.98 1160.02 1224.43 1161.65C1186.49 1161.65 1141.89 1161.65 1103.95 1161.65C1112.21 1158.36 1120.44 1151.76 1125.41 1143.49C1140.26 1112.15 1102.29 1013.11 1094.03 976.795C1087.45 945.432 1072.58 915.724 1067.63 884.358C1065.98 862.909 1062.69 796.89 1065.98 780.368C1065.98 775.419 1069.27 773.764 1072.58 780.368C1075.89 808.442 1067.63 871.148 1082.48 902.514C1085.79 910.774 1100.65 905.827 1105.58 899.222C1118.79 882.7 1125.42 862.909 1132 843.097C1141.89 808.442 1150.18 788.628 1155.1 742.421C1160.07 697.848 1150.18 682.981 1155.1 638.431C1158.41 620.275 1153.44 600.461 1163.36 570.753C1174.91 536.097 1184.83 512.971 1209.59 491.525C1229.38 471.711 1260.74 466.763 1288.79 463.448C1364.73 463.448 1354.83 545.991 1371.33 588.909C1376.28 603.753 1391.15 640.064 1399.39 654.931C1405.99 669.772 1417.54 696.19 1425.8 720.952C1432.41 739.108 1430.75 765.525 1425.8 775.419C1420.83 783.681 1429.11 788.628 1435.7 782.023C1443.96 768.816 1443.96 758.92 1448.9 744.056C1453.85 729.212 1457.14 706.085 1462.11 692.899C1470.35 669.772 1486.87 648.325 1491.82 623.564C1496.77 600.461 1493.45 577.357 1485.22 554.254C1480.27 545.992 1462.11 493.18 1452.22 478.315C1429.11 453.554 1410.94 450.261 1372.97 420.553C1366.39 415.585 1358.13 410.636 1349.86 405.689C1369.68 359.482 1396.09 318.199 1414.25 271.991C1429.11 234.021 1453.85 214.229 1481.9 192.76C1529.77 220.814 1526.5 222.469 1533.08 278.596C1531.42 308.304 1534.74 338.013 1533.08 366.086C1533.08 377.638 1524.84 404.032 1524.84 415.586C1526.5 433.74 1524.84 440.344 1528.13 460.158C1529.77 475.023 1544.63 488.209 1541.34 503.076C1531.42 569.095 1503.37 630.169 1501.74 696.19C1500.08 760.577 1511.63 848.045 1566.08 890.963C1572.7 895.91 1585.91 887.671 1587.55 879.411C1595.81 841.44 1584.25 800.18 1589.2 762.212C1592.49 737.451 1599.12 709.4 1607.36 684.639C1613.96 664.825 1630.46 618.617 1643.67 603.753C1646.98 597.148 1655.22 602.118 1651.91 607.065C1650.27 607.065 1622.22 668.14 1610.67 714.347C1597.46 763.867 1585.91 836.493 1617.25 881.066C1627.15 897.567 1648.62 914.066 1663.46 938.827C1671.74 953.692 1676.67 1019.71 1673.38 1036.21C1666.77 1082.42 1610.67 1156.7 1556.18 1161.65C1536.39 1161.65 1516.58 1161.65 1496.77 1161.65Z" fill="white"/>
<path d="M1399.39 955.327V952.035C1397.73 950.38 1392.8 947.087 1392.8 947.087C1386.18 940.483 1389.49 927.276 1399.39 925.618C1415.91 920.671 1434.04 925.619 1439.01 940.483C1443.96 953.692 1435.7 970.191 1424.14 980.088C1414.25 990.005 1397.73 981.743 1391.15 983.401C1387.83 985.058 1387.83 986.692 1389.49 988.348C1396.09 991.64 1407.65 991.64 1417.54 991.64C1424.14 991.64 1430.75 988.348 1435.7 990.005C1439.01 991.64 1440.67 998.244 1440.67 1001.56C1440.67 1009.8 1435.7 1018.06 1435.7 1024.66C1437.35 1029.61 1442.3 1029.61 1445.59 1032.92C1460.46 1056.03 1458.8 1069.23 1462.11 1090.68C1465.43 1117.1 1491.82 1123.7 1490.19 1130.31C1490.19 1131.94 1488.53 1133.6 1485.22 1131.94C1476.98 1123.7 1462.11 1123.7 1450.56 1125.34C1443.96 1125.34 1440.67 1135.25 1432.41 1136.91C1429.11 1138.55 1422.49 1136.91 1420.83 1131.94C1415.91 1125.34 1424.14 1113.79 1419.2 1107.18C1415.91 1102.23 1402.7 1100.58 1402.7 1090.68C1402.7 1064.26 1384.52 1039.53 1377.94 1014.77C1376.28 1008.16 1376.28 1004.85 1377.94 998.244C1382.89 986.693 1386.18 971.849 1377.94 960.297C1374.63 955.327 1392.8 961.931 1399.39 955.327Z" fill="white"/>
<path d="M1434.04 29.3543C1462.12 44.2188 1496.77 97.0311 1514.93 125.084C1523.19 136.636 1534.74 126.739 1529.77 116.845C1501.74 77.2192 1468.72 44.2188 1434.04 29.3543ZM1293.77 463.449C1315.21 468.419 1343.29 489.867 1349.87 509.679C1356.5 529.493 1358.13 541.045 1349.87 598.804C1349.87 602.119 1356.5 605.408 1358.13 598.804C1359.76 583.962 1358.13 598.804 1359.76 592.202C1361.42 582.305 1368.05 583.962 1371.34 588.909C1364.73 569.095 1369.68 550.939 1394.44 552.597C1407.65 554.254 1405.99 564.148 1427.46 569.095C1434.04 570.753 1448.91 565.806 1452.22 554.254C1460.46 529.493 1452.22 508.024 1432.41 491.525C1420.83 481.605 1405.99 476.658 1391.15 486.575C1387.84 489.867 1382.89 499.761 1382.89 504.731C1386.18 526.18 1374.63 519.575 1366.39 504.731C1354.84 486.575 1316.87 460.159 1293.77 463.449ZM1430.75 777.077C1440.67 745.711 1429.12 699.503 1422.49 664.825C1419.2 653.273 1434.04 649.983 1437.36 661.535C1447.25 707.742 1445.59 742.421 1430.75 777.077ZM1485.22 182.867C1481.91 184.501 1468.72 194.418 1460.46 199.365C1478.61 202.657 1503.37 215.864 1514.93 237.336C1523.19 255.492 1529.77 281.886 1533.08 300.042C1533.08 288.491 1531.42 237.336 1536.39 230.731C1544.63 220.814 1561.15 229.074 1572.71 234.021C1580.94 237.336 1585.92 247.23 1594.15 252.177C1602.41 255.492 1610.68 257.124 1618.91 253.834C1627.15 252.177 1635.43 245.572 1638.73 237.336C1643.67 222.469 1628.81 163.052 1595.81 176.261C1582.6 181.209 1580.94 201.022 1569.39 210.917C1562.81 215.864 1556.18 217.522 1547.95 215.864C1539.69 215.864 1529.77 210.917 1521.53 204.312C1509.98 196.076 1498.43 186.156 1485.22 182.867Z" fill="#F57215"/>
<path d="M1414.25 933.878C1419.2 933.878 1425.8 940.483 1424.15 942.14C1420.83 945.432 1419.2 940.483 1412.6 940.483C1407.65 940.483 1402.7 942.14 1402.7 938.828C1402.7 935.536 1407.65 933.878 1414.25 933.878Z" fill="#231F20"/>
<path d="M207.188 890.133L102.597 879.388C106.537 861.076 112.234 846.658 119.677 836.136C127.111 825.636 137.822 816.523 151.814 808.777C161.855 803.225 175.656 798.906 193.229 795.838C210.803 792.794 229.809 791.269 250.248 791.269C283.069 791.269 309.429 793.106 329.329 796.779C349.232 800.449 365.811 808.105 379.086 819.726C388.398 827.784 395.752 839.203 401.137 853.955C406.508 868.732 409.206 882.836 409.206 896.244V1022.18C409.206 1035.61 410.057 1046.11 411.758 1053.72C413.461 1061.33 417.177 1071.03 422.908 1082.85H320.433C316.313 1075.48 313.638 1069.86 312.384 1066.01C311.13 1062.16 309.888 1056.07 308.634 1047.81C294.263 1061.65 279.99 1071.52 265.818 1077.43C246.42 1085.35 223.888 1089.29 198.222 1089.29C164.104 1089.29 138.214 1081.41 120.528 1065.65C102.844 1049.89 94 1030.44 94 1007.31C94 985.64 100.371 967.818 113.119 953.827C125.869 939.857 149.396 929.469 183.693 922.64C224.807 914.401 251.47 908.626 263.682 905.314C275.882 901.999 288.811 897.657 302.467 892.283C302.467 879.03 299.668 869.716 294.093 864.435C288.52 859.105 278.713 856.463 264.677 856.463C246.679 856.463 233.191 859.329 224.191 865.015C217.173 869.471 211.509 877.843 207.188 890.133ZM302.467 947.445C287.333 952.818 271.584 957.543 255.198 961.64C232.865 967.55 218.728 973.371 212.786 979.079C206.663 984.969 203.607 991.684 203.607 999.185C203.607 1007.76 206.617 1014.79 212.65 1020.23C218.684 1025.67 227.549 1028.4 239.256 1028.4C251.502 1028.4 262.886 1025.44 273.431 1019.56C283.963 1013.67 291.441 1006.46 295.851 997.974C300.262 989.489 302.467 978.477 302.467 964.864V947.445Z" fill="#231F20"/>
<path d="M478.157 688.825H587.764V1082.85H478.157V688.825Z" fill="#231F20"/>
<path d="M789.604 688.825V797.718H849.78V877.955H789.604V978.767C789.604 990.878 790.766 998.916 793.107 1002.83C796.699 1008.9 802.992 1011.92 811.989 1011.92C820.084 1011.92 831.411 1009.59 845.983 1004.98L854.078 1080.43C826.989 1086.34 801.692 1089.29 778.208 1089.29C750.94 1089.29 730.85 1085.8 717.932 1078.86C705.014 1071.88 695.466 1061.31 689.277 1047.12C683.087 1032.92 679.997 1009.91 679.997 978.117V877.955H639.88V797.718H679.997V745.151L789.604 688.825Z" fill="#231F20"/>
<path d="M478.259 1141.05H587.866V1535.08H478.259V1141.05Z" fill="#231F20"/>
<path d="M662.188 1141.05H771.793V1215.56H662.188V1141.05ZM662.188 1249.95H771.793V1535.08H662.188V1249.95Z" fill="#231F20"/>
<path d="M841.104 1249.95H943.164V1296.58C958.365 1277.53 973.733 1263.92 989.292 1255.77C1004.85 1247.57 1023.8 1243.5 1046.16 1243.5C1076.36 1243.5 1100.01 1252.5 1117.09 1270.5C1134.16 1288.48 1142.7 1316.26 1142.7 1353.85V1535.08H1033.09V1378.52C1033.09 1360.65 1029.78 1348 1023.16 1340.6C1016.54 1333.18 1007.23 1329.47 995.259 1329.47C982.016 1329.47 971.283 1334.48 963.055 1344.47C954.816 1354.5 950.708 1372.45 950.708 1398.38V1535.08H841.104V1249.95Z" fill="#231F20"/>
<path d="M1508.95 1535.08H1406.62V1488.96C1391.42 1507.92 1376.08 1521.42 1360.61 1529.45C1345.14 1537.49 1326.16 1541.52 1303.64 1541.52C1273.6 1541.52 1250.03 1532.52 1232.96 1514.55C1215.88 1496.57 1207.35 1468.85 1207.35 1431.44V1249.95H1316.96V1406.84C1316.96 1424.75 1320.26 1437.46 1326.89 1444.99C1333.5 1452.51 1342.8 1456.27 1354.79 1456.27C1367.84 1456.27 1378.53 1451.26 1386.86 1441.23C1395.18 1431.2 1399.34 1413.2 1399.34 1387.23V1249.95H1508.95V1535.08Z" fill="#231F20"/>
<path d="M1551.39 1249.95H1681.06L1725.83 1329.42L1778.48 1249.95H1898.84L1801.73 1385.79L1906 1535.08H1778.48L1725.83 1443.24L1663.86 1535.08H1545.66L1649.31 1385.79L1551.39 1249.95Z" fill="#231F20"/>
</svg>
