<?xml version="1.0" encoding="UTF-8" standalone="no"?>
<svg
   xmlns:dc="http://purl.org/dc/elements/1.1/"
   xmlns:cc="http://creativecommons.org/ns#"
   xmlns:rdf="http://www.w3.org/1999/02/22-rdf-syntax-ns#"
   xmlns:svg="http://www.w3.org/2000/svg"
   xmlns="http://www.w3.org/2000/svg"
   xmlns:sodipodi="http://sodipodi.sourceforge.net/DTD/sodipodi-0.dtd"
   xmlns:inkscape="http://www.inkscape.org/namespaces/inkscape"
   viewBox="0 0 128 128"
   version="1.1"
   id="svg3908"
   sodipodi:docname="chrome-os.svg"
   width="128"
   height="128"
   inkscape:version="0.92.3 (2405546, 2018-03-11)">
  <metadata
     id="metadata3912">
    <rdf:RDF>
      <cc:Work
         rdf:about="">
        <dc:format>image/svg+xml</dc:format>
        <dc:type
           rdf:resource="http://purl.org/dc/dcmitype/StillImage" />
        <dc:title></dc:title>
      </cc:Work>
    </rdf:RDF>
  </metadata>
  <sodipodi:namedview
     pagecolor="#ffffff"
     bordercolor="#666666"
     borderopacity="1"
     objecttolerance="10"
     gridtolerance="10"
     guidetolerance="10"
     inkscape:pageopacity="0"
     inkscape:pageshadow="2"
     inkscape:window-width="1440"
     inkscape:window-height="846"
     id="namedview3910"
     showgrid="false"
     inkscape:zoom="2.2649514"
     inkscape:cx="-33.837885"
     inkscape:cy="24"
     inkscape:window-x="0"
     inkscape:window-y="0"
     inkscape:window-maximized="1"
     inkscape:current-layer="svg3908" />
  <defs
     id="defs3888">
    <linearGradient
       id="4"
       y1="542.79999"
       x2="0"
       y2="503.85001"
       gradientUnits="userSpaceOnUse">
      <stop
         stop-color="#79a8ca"
         id="stop3858" />
      <stop
         offset="1"
         stop-color="#9ecbda"
         id="stop3860" />
    </linearGradient>
    <linearGradient
       id="5"
       y1="531.79999"
       x2="0"
       y2="514.79999"
       gradientUnits="userSpaceOnUse">
      <stop
         stop-color="#f2f6f7"
         id="stop3863" />
      <stop
         offset="1"
         stop-color="#ecf0f1"
         id="stop3865" />
    </linearGradient>
    <linearGradient
       id="3"
       y1="530.79999"
       x2="0"
       y2="516.79999"
       gradientUnits="userSpaceOnUse">
      <stop
         stop-color="#2566d3"
         id="stop3868" />
      <stop
         offset="1"
         stop-color="#429aff"
         id="stop3870" />
    </linearGradient>
    <linearGradient
       id="1"
       x1="396.64999"
       y1="540.79999"
       x2="396.57001"
       y2="513.79999"
       gradientUnits="userSpaceOnUse">
      <stop
         stop-color="#11aa43"
         id="stop3873" />
      <stop
         offset="1"
         stop-color="#5be654"
         id="stop3875" />
    </linearGradient>
    <linearGradient
       id="0"
       y1="44"
       x2="0"
       y2="15"
       gradientUnits="userSpaceOnUse">
      <stop
         stop-color="#f3b200"
         id="stop3878" />
      <stop
         offset="1"
         stop-color="#fee145"
         id="stop3880" />
    </linearGradient>
    <linearGradient
       id="2"
       y1="519.79999"
       x2="0"
       y2="503.79999"
       gradientUnits="userSpaceOnUse">
      <stop
         stop-color="#f23b2a"
         id="stop3883" />
      <stop
         offset="1"
         stop-color="#fd5757"
         id="stop3885" />
    </linearGradient>
  </defs>
  <g
     transform="matrix(2.6794303,0,0,2.6794303,-1030.7482,-1339.4802)"
     id="g3906">
    <rect
       y="504.79999"
       x="389.57001"
       height="38"
       width="38"
       rx="19"
       id="rect3890"
       style="fill:url(#4)" />
    <path
       transform="translate(384.57,499.8)"
       d="m 24.473,14.699 c -0.262,0 -0.473,0.211 -0.473,0.473 0,0.262 0.211,0.473 0.473,0.473 h 17.05 c 0.034,0 0.065,-0.013 0.098,-0.02 L 41.853,15 40.996,14.699"
       id="path3892"
       inkscape:connector-curvature="0"
       style="opacity:0.8;fill:#649cc1" />
    <g
       id="g3900"
       style="fill-rule:evenodd">
      <path
         d="m 392.58,511.8 c -2.504,3.34 -4,7.548 -4,12.06 0,11.08 8.92,19.938 20,19.938 l 7,-14.337 -13,-2.663 z"
         id="path3894"
         inkscape:connector-curvature="0"
         style="fill:url(#1)" />
      <path
         transform="translate(384.57,499.8)"
         d="M 25,15 31,29.6 24,44 c 11.08,0 20,-8.92 20,-20 0,-3.245 -0.782,-6.295 -2.143,-9 z"
         id="path3896"
         inkscape:connector-curvature="0"
         style="fill:url(#0)" />
      <path
         d="m 408.57,503.8 c -6.565,0 -12.354,3.146 -15.996,8 l 9.996,14.996 13,2.6 -6,-14.6 h 16.857 c -3.285,-6.53 -10.02,-11 -17.857,-11"
         id="path3898"
         inkscape:connector-curvature="0"
         style="fill:url(#2)" />
    </g>
    <rect
       width="18"
       height="18"
       x="399.57001"
       y="514.79999"
       rx="9"
       id="rect3902"
       style="fill:url(#5)" />
    <rect
       y="516.79999"
       x="401.57001"
       height="14"
       width="14"
       rx="7"
       id="rect3904"
       style="fill:url(#3)" />
  </g>
</svg>
