<?xml version="1.0" encoding="UTF-8" standalone="no"?>
<svg
   xmlns:dc="http://purl.org/dc/elements/1.1/"
   xmlns:cc="http://creativecommons.org/ns#"
   xmlns:rdf="http://www.w3.org/1999/02/22-rdf-syntax-ns#"
   xmlns:svg="http://www.w3.org/2000/svg"
   xmlns="http://www.w3.org/2000/svg"
   xmlns:sodipodi="http://sodipodi.sourceforge.net/DTD/sodipodi-0.dtd"
   xmlns:inkscape="http://www.inkscape.org/namespaces/inkscape"
   height="128"
   width="128"
   version="1.1"
   id="svg4"
   sodipodi:docname="elementary-os.svg"
   inkscape:version="0.92.3 (2405546, 2018-03-11)">
  <metadata
     id="metadata10">
    <rdf:RDF>
      <cc:Work
         rdf:about="">
        <dc:format>image/svg+xml</dc:format>
        <dc:type
           rdf:resource="http://purl.org/dc/dcmitype/StillImage" />
        <dc:title></dc:title>
      </cc:Work>
    </rdf:RDF>
  </metadata>
  <defs
     id="defs8" />
  <sodipodi:namedview
     pagecolor="#ffffff"
     bordercolor="#666666"
     borderopacity="1"
     objecttolerance="10"
     gridtolerance="10"
     guidetolerance="10"
     inkscape:pageopacity="0"
     inkscape:pageshadow="2"
     inkscape:window-width="1600"
     inkscape:window-height="1674"
     id="namedview6"
     showgrid="false"
     inkscape:zoom="3.7926636"
     inkscape:cx="35.088277"
     inkscape:cy="26.092992"
     inkscape:window-x="1600"
     inkscape:window-y="60"
     inkscape:window-maximized="0"
     inkscape:current-layer="svg4" />
  <path
     d="m 64,16 c -26.504727,0 -48,21.495273 -48,48 0,26.50473 21.495273,48 48,48 26.504727,0 48,-21.49527 48,-48 C 112,37.495273 90.504727,16 64,16 Z m -0.08727,4.577455 h 0.0087 a 0.30545455,0.30545455 0 0 0 0.07854,0 c 19.845818,0 36.58473,13.317818 41.76,31.492363 a 75.556364,75.556364 0 0 1 -18.384,23.982546 c -3.696,3.198545 -7.736727,6.034909 -12.174545,8.037816 -4.442182,1.99855 -9.320728,3.13746 -14.168728,2.86255 A 24.436364,24.436364 0 0 1 51.122879,84.19055 79.749818,79.749818 0 0 0 73.281425,66.212364 c 4.171636,-4.869819 7.815272,-10.429091 9.22909,-16.725819 0.72,-3.150545 0.829091,-6.458181 0.174546,-9.630545 a 17.799273,17.799273 0 0 0 -4.359273,-8.574545 17.511273,17.511273 0 0 0 -8.094545,-4.791273 21.163636,21.163636 0 0 0 -9.394909,-0.340364 c -6.209455,1.138909 -11.751273,4.738909 -16.167273,9.198546 -7.797818,7.854545 -12.610909,18.938181 -11.725091,30 0.445091,5.528727 2.286545,10.957091 5.463273,15.508363 0.624,0.894546 1.317818,1.736728 2.037818,2.548364 A 70.813091,70.813091 0 0 1 26.978879,86.62982 43.400727,43.400727 0 0 1 63.912697,20.577455 Z M 64.218185,29.392 c 0.01745,-0.0044 0.06982,0.0087 0.05236,0.0044 3.019637,0 6.052364,0.920727 8.448,2.736 a 13.963636,13.963636 0 0 1 4.660364,6.501818 17.978182,17.978182 0 0 1 0.837818,8.064 c -0.624,5.424 -3.36,10.420363 -6.689454,14.805818 -5.908364,7.758545 -13.771637,13.976727 -22.512,18.327273 -0.829091,0.414545 -1.684364,0.816 -2.539637,1.195636 A 22.315636,22.315636 0 0 1 41.893818,75.376 c -2.574545,-4.555636 -3.421091,-9.966545 -2.923636,-15.194182 0.506182,-5.232 2.295273,-10.280727 4.721454,-14.967273 2.805819,-5.428363 6.615273,-10.551272 11.921455,-13.483636 a 18.065455,18.065455 0 0 1 8.609454,-2.343273 z m 42.894545,29.716364 c 0.18327,1.601454 0.30982,3.224727 0.30982,4.874181 0,23.986905 -19.426911,43.431275 -43.418183,43.431275 a 43.274182,43.274182 0 0 1 -33.12,-15.40364 79.147636,79.147636 0 0 0 13.832727,-4.62545 c 2.011636,1.50982 4.219636,2.76654 6.576,3.66545 6.938182,2.66182 14.801454,2.26909 21.800727,-0.15273 6.994909,-2.42181 13.182546,-6.75927 18.571637,-11.803632 A 79.697455,79.697455 0 0 0 107.11273,59.108364 Z"
     id="path2"
     inkscape:connector-curvature="0"
     style="stroke-width:4.36363602" />
</svg>
