<?xml version="1.0" encoding="UTF-8" standalone="no"?>
<svg xmlns:dc="http://purl.org/dc/elements/1.1/" xmlns:cc="http://creativecommons.org/ns#" xmlns:rdf="http://www.w3.org/1999/02/22-rdf-syntax-ns#" xmlns:svg="http://www.w3.org/2000/svg" xmlns="http://www.w3.org/2000/svg" xmlns:xlink="http://www.w3.org/1999/xlink" xmlns:sodipodi="http://sodipodi.sourceforge.net/DTD/sodipodi-0.dtd" xmlns:inkscape="http://www.inkscape.org/namespaces/inkscape" version="1.0" width="128" height="128" id="svg2" sodipodi:version="0.32" inkscape:version="1.0 (4035a4f, 2020-05-01)" sodipodi:docname="PCLinuxOS_128px.svg" inkscape:output_extension="org.inkscape.output.svg.inkscape">
  <metadata id="metadata103">
    <rdf:RDF>
      <cc:Work rdf:about="">
        <dc:format>image/svg+xml</dc:format>
        <dc:type rdf:resource="http://purl.org/dc/dcmitype/StillImage"/>
        <dc:title/>
      </cc:Work>
    </rdf:RDF>
  </metadata>
  <sodipodi:namedview inkscape:window-height="716" inkscape:window-width="1366" inkscape:pageshadow="2" inkscape:pageopacity="0.0" guidetolerance="10.0" gridtolerance="10.0" objecttolerance="10.0" borderopacity="1.0" bordercolor="#666666" pagecolor="#ffffff" id="base" showgrid="false" inkscape:zoom="3.0652721" inkscape:cx="82.190713" inkscape:cy="79.536741" inkscape:current-layer="svg2" inkscape:window-x="0" inkscape:window-y="28" inkscape:window-maximized="1" inkscape:document-rotation="0"/>
  <defs id="defs4">
    <linearGradient id="linearGradient3290">
      <stop offset="0" style="stop-color: rgb(189, 233, 255); stop-opacity: 1;" id="stop3292"/>
      <stop id="stop3302" style="stop-color: rgb(28, 125, 189); stop-opacity: 1;" offset="0.20003237"/>
      <stop offset="0.30369416" style="stop-color: rgb(30, 91, 161); stop-opacity: 1;" id="stop3294"/>
      <stop offset="0.53801841" style="stop-color: rgb(38, 46, 54); stop-opacity: 1;" id="stop3296"/>
      <stop offset="0.73399651" style="stop-color: rgb(24, 109, 153); stop-opacity: 1;" id="stop3298"/>
      <stop offset="1" style="stop-color: rgb(0, 113, 191); stop-opacity: 1;" id="stop3300"/>
    </linearGradient>
    <linearGradient id="linearGradient5929">
      <stop id="stop5931" style="stop-color: rgb(255, 255, 255); stop-opacity: 1;" offset="0"/>
      <stop id="stop5933" style="stop-color:#707070;stop-opacity:1;" offset="1"/>
    </linearGradient>
    <linearGradient inkscape:collect="always" xlink:href="#linearGradient3290" id="linearGradient2915" gradientUnits="userSpaceOnUse" gradientTransform="matrix(8.01055,0,0,8.02948,-1519.2579,-3056.7816)" x1="272.85699" y1="389.56207" x2="272.85699" y2="500.52286"/>
    <linearGradient inkscape:collect="always" xlink:href="#linearGradient5929" id="linearGradient2921" gradientUnits="userSpaceOnUse" gradientTransform="matrix(0.264846,0,0,0.28409041,-264.83029,-231.62566)" x1="1240.7153" y1="1046.4941" x2="1240.7153" y2="1007.4582"/>
    <linearGradient inkscape:collect="always" xlink:href="#linearGradient3290" id="linearGradient3692" x1="649.47369" y1="5.0526428" x2="649.47369" y2="994.52631" gradientUnits="userSpaceOnUse" gradientTransform="matrix(0.09504169,0,0,0.09403062,2.272922,17.004492)"/>
  </defs>
  <circle style="fill:url(#linearGradient3692);fill-opacity:1;stroke:#000000;stroke-width:0.959181;stroke-linecap:round;stroke-linejoin:round;stroke-miterlimit:4;stroke-dasharray:none;stroke-opacity:1" id="path2912" cx="64" cy="64" r="46.520409"/>
  <circle style="fill:#000000;fill-opacity:1;fill-rule:nonzero;stroke:none;stroke-width:0.356387" id="path3288" cx="63.91468" cy="64.119835" r="37.887753"/>
  <path style="font-style:normal;font-variant:normal;font-weight:bold;font-stretch:normal;font-size:49.0059px;line-height:125%;font-family:'Bitstream Vera Sans';text-align:start;text-anchor:start;display:inline;overflow:visible;visibility:visible;fill:#000000;fill-opacity:1;fill-rule:evenodd;stroke:none;stroke-width:0.677149;marker:none" id="path4053" d="m 62.547416,59.64029 c -0.489217,2.8e-5 -0.936995,0.112241 -1.341677,0.33642 -0.404737,0.219463 -0.789793,0.560484 -1.150011,1.028011 v -1.168184 h -2.387159 v 8.008909 h 2.387159 v -3.943714 c 0,-0.729885 0.142245,-1.299912 0.426877,-1.710167 0.284632,-0.41506 0.67806,-0.616792 1.176151,-0.616792 0.204596,0 0.388771,0.04477 0.548893,0.140172 0.160072,0.09065 0.281215,0.216192 0.374626,0.383152 0.07113,0.124033 0.121402,0.317044 0.1481,0.579402 0.03112,0.262384 0.04354,0.73812 0.04357,1.429828 l 0.0087,0.0093 v 0.607439 c 0,1.082926 0.230395,1.908808 0.679572,2.476501 0.453621,0.567696 1.106151,0.850426 1.968968,0.850426 0.484746,0 0.932672,-0.107642 1.332968,-0.327103 0.404674,-0.224199 0.781031,-0.569801 1.141292,-1.0373 v 1.158809 h 2.395847 v -8.008905 h -2.395848 v 3.953059 c -2.7e-5,0.729885 -0.142299,1.299913 -0.426906,1.710167 -0.284659,0.410286 -0.66934,0.61679 -1.167434,0.61679 -0.204594,0 -0.388797,-0.04954 -0.548876,-0.14017 -0.155668,-0.09062 -0.285493,-0.216196 -0.383328,-0.383154 -0.07561,-0.128806 -0.125689,-0.335313 -0.156818,-0.616787 -0.03114,-0.286221 -0.04357,-0.748405 -0.04357,-1.39244 v -0.616786 c 0,-1.082923 -0.221646,-1.908804 -0.670848,-2.4765 -0.444737,-0.567705 -1.09744,-0.850399 -1.960232,-0.850426 z M 28.304541,57.161355 h 4.262816 c 1.267495,9e-6 2.239246,0.302938 2.915251,0.90879 0.680445,0.601095 1.020666,1.459795 1.020679,2.576099 -1.3e-5,1.121078 -0.340234,1.984547 -1.020679,2.590402 -0.676005,0.601093 -1.647756,0.90164 -2.915251,0.901632 h -1.694454 v 3.706717 h -2.568362 v -10.68364 m 2.568362,1.996477 v 2.983974 h 1.420937 c 0.498102,8e-6 0.882799,-0.1288 1.154096,-0.386413 0.271284,-0.262377 0.40693,-0.632092 0.406937,-1.109149 -7e-6,-0.477052 -0.135653,-0.844387 -0.406937,-1.102001 -0.271297,-0.257602 -0.655994,-0.386406 -1.154096,-0.386411 h -1.420937 m 14.540249,8.100383 c -0.471429,0.262383 -0.962869,0.460362 -1.474308,0.593938 -0.511457,0.133572 -1.045139,0.200362 -1.601057,0.200362 -1.658878,0 -2.973072,-0.496136 -3.942602,-1.488414 -0.969531,-0.997038 -1.454291,-2.347106 -1.454291,-4.050193 0,-1.70785 0.48476,-3.057912 1.454291,-4.050193 0.96953,-0.997035 2.283724,-1.49556 3.942602,-1.495571 0.555918,1.1e-5 1.0896,0.0668 1.601057,0.200364 0.511439,0.133589 1.002879,0.331567 1.474308,0.593936 v 2.211146 c -0.47588,-0.34824 -0.945074,-0.603464 -1.407596,-0.765669 -0.462534,-0.162193 -0.949519,-0.243288 -1.460967,-0.2433 -0.916161,1.2e-5 -1.636636,0.314862 -2.161426,0.944568 -0.524795,0.629722 -0.787191,1.497959 -0.787183,2.604719 -8e-6,1.101997 0.262388,1.967856 0.787183,2.597563 0.52479,0.629718 1.245265,0.944567 2.161426,0.944567 0.511448,0 0.998433,-0.0811 1.460967,-0.243299 0.462522,-0.162195 0.931716,-0.417418 1.407596,-0.765671 v 2.211147 m 39.23444,-8.293594 c -0.782744,1.2e-5 -1.389813,0.310095 -1.82121,0.930261 -0.431396,0.620172 -0.64709,1.493185 -0.64709,2.619026 0,1.121083 0.215694,1.991709 0.64709,2.611876 0.431397,0.620176 1.038466,0.930254 1.82121,0.930254 0.787171,0 1.396471,-0.310078 1.827871,-0.930254 0.431392,-0.620167 0.647081,-1.490793 0.647096,-2.611876 -1.5e-5,-1.125841 -0.215704,-1.998854 -0.647096,-2.619026 -0.4314,-0.620166 -1.0407,-0.930249 -1.827871,-0.930261 m 0,-1.996477 c 1.60105,1.1e-5 2.855206,0.491382 3.762477,1.474102 0.907256,0.982743 1.360899,2.339962 1.360906,4.071662 -7e-6,1.726939 -0.45365,3.081776 -1.360906,4.064503 -0.907271,0.982737 -2.161427,1.474104 -3.762477,1.474104 -1.596619,0 -2.85078,-0.491367 -3.762488,-1.474104 -0.907259,-0.982727 -1.3609,-2.337564 -1.3609,-4.064503 0,-1.7317 0.453641,-3.088919 1.3609,-4.071662 0.911708,-0.98272 2.165869,-1.474091 3.762488,-1.474102 m 12.789179,0.529533 v 2.261241 c -0.547043,-0.262371 -1.080728,-0.460349 -1.60107,-0.59393 -0.520358,-0.133568 -1.011789,-0.200355 -1.47431,-0.200367 -0.613728,1.2e-5 -1.067378,0.09065 -1.360892,0.271923 -0.293536,0.181288 -0.440307,0.462751 -0.440307,0.844385 0,0.286242 0.09786,0.510453 0.293543,0.672647 0.200121,0.157433 0.560356,0.293395 1.080706,0.407883 l 1.094057,0.236141 c 1.107406,0.238535 1.894577,0.601096 2.361555,1.087687 0.466978,0.486601 0.70046,1.17833 0.700475,2.075183 -1.5e-5,1.178329 -0.326889,2.056112 -0.980646,2.633347 -0.649321,0.572462 -1.643324,0.858698 -2.98198,0.858698 -0.631528,0 -1.265282,-0.06441 -1.901252,-0.19321 C 91.590679,67.7305 90.9547,67.539679 90.31873,67.28684 v -2.325642 c 0.63597,0.362568 1.249713,0.636869 1.841205,0.822918 0.59595,0.181284 1.169664,0.271922 1.721142,0.271922 0.560364,0 0.989538,-0.10018 1.287517,-0.300544 0.297964,-0.200359 0.446953,-0.486594 0.446968,-0.858699 -1.5e-5,-0.333932 -0.102308,-0.591546 -0.306872,-0.772826 -0.200135,-0.18128 -0.602617,-0.343474 -1.207474,-0.486596 L 93.107242,63.40123 c -0.996214,-0.228983 -1.725592,-0.593927 -2.188113,-1.094837 -0.458085,-0.500903 -0.687131,-1.175936 -0.687124,-2.025106 -7e-6,-1.063817 0.320206,-1.881968 0.960627,-2.454444 0.640429,-0.57245 1.561042,-0.858688 2.761827,-0.858699 0.547036,1.1e-5 1.10961,0.04534 1.687788,0.135963 0.57815,0.08588 1.176324,0.21707 1.794524,0.39357 M 46.434518,57.163279 h 2.568362 v 8.601289 h 4.509653 v 2.082353 H 46.434518 V 57.163279 m 27.661138,6.58334 -2.695088,-3.914228 h 2.528317 l 1.527682,2.375735 1.547675,-2.375735 h 2.528344 l -2.695117,3.899937 2.828557,4.114593 h -2.528348 l -1.681111,-2.533176 -1.66111,2.533176 h -2.528318 l 2.828517,-4.100302 M 55.509679,55.827886 c 0.409239,2.6e-5 0.758043,0.15966 1.046383,0.478888 0.288307,0.309291 0.432467,0.683439 0.43249,1.122384 -2.3e-5,0.458977 -0.144183,0.843066 -0.43249,1.152329 -0.279042,0.309316 -0.627851,0.463944 -1.046383,0.463917 -0.381351,2.7e-5 -0.720829,-0.159604 -1.018461,-0.478886 -0.288339,-0.329203 -0.432488,-0.708326 -0.432466,-1.13736 -2.2e-5,-0.428977 0.144127,-0.803091 0.432466,-1.122384 0.297632,-0.319228 0.63711,-0.478862 1.018461,-0.478888 m 1.060314,12.019035 H 54.393569 V 61.85648 h -1.53729 v -2.020309 h 3.713714 v 8.01075"/>
  <path style="font-style:normal;font-variant:normal;font-weight:bold;font-stretch:normal;font-size:49.0059px;line-height:125%;font-family:'Bitstream Vera Sans';text-align:start;text-anchor:start;display:inline;overflow:visible;visibility:visible;fill:url(#linearGradient2921);fill-opacity:1;fill-rule:evenodd;stroke:none;stroke-width:0.677149;marker:none" id="path4057" d="m 63.117402,60.381152 c -0.489228,3e-5 -0.937002,0.112246 -1.341685,0.336424 -0.404737,0.219459 -0.789794,0.560481 -1.150011,1.028007 v -1.16818 h -2.387159 v 8.008905 h 2.387159 v -3.94371 c 0,-0.729888 0.142248,-1.299913 0.426877,-1.710169 0.284632,-0.415058 0.678058,-0.616788 1.17615,-0.616788 0.204596,0 0.388769,0.04477 0.548892,0.140169 0.160076,0.09065 0.281215,0.216189 0.374628,0.383156 0.07113,0.124026 0.121402,0.317041 0.148101,0.579397 0.03113,0.262386 0.04354,0.738124 0.04357,1.429828 l 0.0087,0.0093 v 0.607442 c 0,1.082922 0.230394,1.908804 0.679566,2.476501 0.453625,0.567694 1.106155,0.850421 1.96897,0.850421 0.484749,0 0.932672,-0.107639 1.332968,-0.327097 0.40468,-0.224205 0.781031,-0.569802 1.141293,-1.037303 v 1.158807 h 2.395848 v -8.008907 h -2.395847 v 3.953059 c -2.7e-5,0.729883 -0.142299,1.299909 -0.426902,1.710163 -0.284655,0.410287 -0.669343,0.616796 -1.167436,0.616796 -0.204594,0 -0.388798,-0.04955 -0.548878,-0.140173 -0.155668,-0.09062 -0.285493,-0.216192 -0.383328,-0.38315 -0.07561,-0.128809 -0.125689,-0.335314 -0.156818,-0.61679 -0.03114,-0.28622 -0.04357,-0.748405 -0.04357,-1.392442 v -0.616783 c 0,-1.082928 -0.221645,-1.908808 -0.670846,-2.476505 -0.444731,-0.567698 -1.097441,-0.850396 -1.960224,-0.850425 z M 28.874518,57.902219 h 4.262817 c 1.267499,1.1e-5 2.239245,0.302936 2.915255,0.908788 0.680439,0.601097 1.020665,1.4598 1.020675,2.5761 -10e-6,1.121077 -0.340236,1.984549 -1.020675,2.590403 -0.67601,0.601095 -1.647756,0.901638 -2.915255,0.901634 h -1.694454 v 3.706713 H 28.874518 V 57.902219 m 2.568363,1.996475 v 2.983978 h 1.420937 c 0.498106,2e-6 0.882799,-0.128805 1.154097,-0.386413 0.271281,-0.262381 0.406929,-0.632092 0.406933,-1.109152 -4e-6,-0.477056 -0.135652,-0.844386 -0.406933,-1.101996 -0.271298,-0.257604 -0.655991,-0.386407 -1.154097,-0.386417 h -1.420937 m 14.540251,8.100387 c -0.471432,0.262384 -0.962869,0.46036 -1.47431,0.593934 -0.511458,0.13357 -1.045144,0.200362 -1.601057,0.200362 -1.658878,0 -2.973075,-0.496132 -3.942603,-1.488412 -0.969529,-0.997039 -1.454293,-2.347105 -1.454293,-4.050191 0,-1.707848 0.484764,-3.057916 1.454293,-4.050193 0.969528,-0.997037 2.283725,-1.495558 3.942603,-1.495569 0.555913,1.1e-5 1.089599,0.06679 1.601057,0.200362 0.511441,0.133585 1.002878,0.331562 1.47431,0.593932 v 2.211151 C 45.50725,60.366214 45.038056,60.110994 44.575533,59.948782 44.113,59.786596 43.626015,59.705497 43.114568,59.705483 c -0.916165,1.4e-5 -1.636636,0.314864 -2.161424,0.944568 -0.524799,0.629728 -0.787193,1.497964 -0.787189,2.604723 -4e-6,1.101996 0.26239,1.967856 0.787189,2.597564 0.524788,0.629713 1.245259,0.944565 2.161424,0.944565 0.511447,0 0.998432,-0.0811 1.460965,-0.243297 0.462523,-0.1622 0.931717,-0.417417 1.407599,-0.765674 v 2.211149 m 39.234442,-8.293598 c -0.78275,1.4e-5 -1.389819,0.310099 -1.821215,0.930261 -0.431396,0.620178 -0.647087,1.493186 -0.647087,2.61903 0,1.121082 0.215691,1.991706 0.647087,2.611873 0.431396,0.620175 1.038465,0.930256 1.821215,0.930256 0.787166,0 1.396465,-0.310081 1.827873,-0.930256 0.431385,-0.620167 0.647081,-1.490791 0.647088,-2.611873 -7e-6,-1.125844 -0.215703,-1.998852 -0.647088,-2.61903 -0.431408,-0.620162 -1.040707,-0.930247 -1.827873,-0.930261 m 0,-1.996471 c 1.601051,1.1e-5 2.855207,0.49138 3.762478,1.474096 0.907249,0.982745 1.360885,2.339962 1.360907,4.071666 -2.2e-5,1.72694 -0.453658,3.081777 -1.360907,4.064503 -0.907271,0.982739 -2.161427,1.4741 -3.762478,1.4741 -1.596616,0 -2.850785,-0.491361 -3.762487,-1.4741 -0.907265,-0.982726 -1.360907,-2.337563 -1.360907,-4.064503 0,-1.731704 0.453642,-3.088921 1.360907,-4.071666 0.911702,-0.982716 2.165871,-1.474085 3.762487,-1.474096 m 12.789159,0.529531 v 2.261237 c -0.547028,-0.262369 -1.080721,-0.460349 -1.601042,-0.593933 -0.520357,-0.133564 -1.011796,-0.20035 -1.474317,-0.200364 -0.613742,1.4e-5 -1.06737,0.09065 -1.360899,0.271925 -0.293535,0.181288 -0.440292,0.462751 -0.440292,0.844383 0,0.286246 0.09784,0.510457 0.293535,0.672649 0.200129,0.157433 0.560357,0.293393 1.080714,0.407881 l 1.094049,0.236141 c 1.107392,0.238536 1.89457,0.6011 2.361555,1.087688 0.466971,0.486603 0.700468,1.178331 0.700475,2.075184 -7e-6,1.178331 -0.326904,2.056112 -0.980653,2.633349 -0.649328,0.572458 -1.643309,0.858694 -2.98198,0.858694 -0.631514,0 -1.265274,-0.0644 -1.901238,-0.193208 -0.635985,-0.128806 -1.271963,-0.319626 -1.907934,-0.572465 v -2.325642 c 0.635971,0.362567 1.249713,0.636873 1.84122,0.822921 0.595935,0.181279 1.169656,0.27192 1.721127,0.27192 0.560364,0 0.989539,-0.100179 1.287539,-0.300545 0.297957,-0.200359 0.446938,-0.486592 0.446938,-0.858697 0,-0.333934 -0.102292,-0.591544 -0.306863,-0.77283 -0.200129,-0.181276 -0.602625,-0.343472 -1.20746,-0.486596 l -0.993981,-0.236141 c -0.996229,-0.228984 -1.7256,-0.593925 -2.188128,-1.094838 -0.458071,-0.500901 -0.687125,-1.175936 -0.687117,-2.025103 -8e-6,-1.063823 0.320207,-1.88197 0.960635,-2.454446 0.640421,-0.572452 1.561027,-0.858684 2.761819,-0.858695 0.547028,1.1e-5 1.109625,0.04534 1.687789,0.135959 0.578156,0.08588 1.176309,0.21707 1.794509,0.393572 m -51.00224,-0.334397 h 2.568364 v 8.601284 h 4.509654 v 2.082358 H 47.004493 V 57.904146 m 27.661141,6.583334 -2.695088,-3.914225 h 2.528319 l 1.527678,2.375735 1.547677,-2.375735 h 2.528344 l -2.695119,3.899937 2.82856,4.114596 h -2.528351 l -1.681111,-2.533182 -1.661107,2.533182 H 71.837118 L 74.665634,64.48748 M 56.07966,56.568748 c 0.409236,2.8e-5 0.758039,0.159659 1.046381,0.478887 0.288308,0.309293 0.432464,0.683438 0.432493,1.122389 -2.9e-5,0.458973 -0.144185,0.843064 -0.432493,1.152325 -0.27904,0.309316 -0.62785,0.463946 -1.046381,0.463917 -0.381352,2.9e-5 -0.720832,-0.159598 -1.018465,-0.478886 -0.288338,-0.329203 -0.43249,-0.708322 -0.432467,-1.137356 -2.3e-5,-0.428977 0.144129,-0.803094 0.432467,-1.122389 0.297633,-0.319228 0.637113,-0.478859 1.018465,-0.478887 m 1.060311,12.01904 h -2.176422 v -5.990446 h -1.537292 v -2.020306 h 3.713714 v 8.010752"/>
</svg>