<?xml version="1.0" encoding="UTF-8" standalone="no"?>
<!-- Created with Inkscape (http://www.inkscape.org/) -->

<svg
   xmlns:dc="http://purl.org/dc/elements/1.1/"
   xmlns:cc="http://creativecommons.org/ns#"
   xmlns:rdf="http://www.w3.org/1999/02/22-rdf-syntax-ns#"
   xmlns:svg="http://www.w3.org/2000/svg"
   xmlns="http://www.w3.org/2000/svg"
   xmlns:sodipodi="http://sodipodi.sourceforge.net/DTD/sodipodi-0.dtd"
   xmlns:inkscape="http://www.inkscape.org/namespaces/inkscape"
   width="128"
   height="128"
   viewBox="0 0 128 128.00001"
   version="1.1"
   id="svg17226"
   inkscape:version="0.92.2 5c3e80d, 2017-08-06"
   sodipodi:docname="redhat.svg">
  <defs
     id="defs17220" />
  <sodipodi:namedview
     id="base"
     pagecolor="#ffffff"
     bordercolor="#666666"
     borderopacity="1.0"
     inkscape:pageopacity="0.0"
     inkscape:pageshadow="2"
     inkscape:zoom="1.4"
     inkscape:cx="-38.085628"
     inkscape:cy="126.52992"
     inkscape:document-units="px"
     inkscape:current-layer="layer1"
     showgrid="false"
     units="px"
     showguides="true"
     inkscape:guide-bbox="true"
     inkscape:window-width="1920"
     inkscape:window-height="1136"
     inkscape:window-x="0"
     inkscape:window-y="27"
     inkscape:window-maximized="1">
    <sodipodi:guide
       position="19.435267,28.015154"
       orientation="1,0"
       id="guide17789"
       inkscape:locked="false" />
    <sodipodi:guide
       position="106.57109,-18.687824"
       orientation="1,0"
       id="guide17791"
       inkscape:locked="false" />
  </sodipodi:namedview>
  <metadata
     id="metadata17223">
    <rdf:RDF>
      <cc:Work
         rdf:about="">
        <dc:format>image/svg+xml</dc:format>
        <dc:type
           rdf:resource="http://purl.org/dc/dcmitype/StillImage" />
        <dc:title></dc:title>
      </cc:Work>
    </rdf:RDF>
  </metadata>
  <g
     inkscape:label="Layer 1"
     inkscape:groupmode="layer"
     id="layer1"
     transform="translate(0,-994.5197)">
    <g
       transform="matrix(2.5782283,0,0,2.5782283,-76.378085,919.29537)"
       id="g871"
       style="stroke-width:0.38786328">
      <g
         id="g869"
         style="stroke-width:0.38786328">
        <path
           inkscape:connector-curvature="0"
           d="m 71.819,62.823 h 0.162 l 0.245,0.402 h 0.158 l -0.265,-0.41 c 0.138,-0.016 0.242,-0.089 0.242,-0.254 0,-0.185 -0.109,-0.264 -0.328,-0.264 h -0.354 v 0.928 h 0.14 z m 0,-0.119 v -0.288 h 0.192 c 0.098,0 0.203,0.022 0.203,0.137 0,0.142 -0.106,0.152 -0.226,0.152 h -0.169 z"
           id="path857"
           style="stroke-width:0.38786328" />
        <path
           inkscape:connector-curvature="0"
           d="m 72.895,62.762 c 0,0.501 -0.408,0.909 -0.91,0.909 -0.502,0 -0.91,-0.408 -0.91,-0.909 0,-0.502 0.408,-0.91 0.91,-0.91 0.503,0 0.91,0.408 0.91,0.91 z m -0.91,-0.749 c -0.414,0 -0.749,0.335 -0.749,0.75 0,0.413 0.335,0.746 0.749,0.746 0.413,0 0.748,-0.334 0.748,-0.746 0,-0.415 -0.335,-0.75 -0.748,-0.75 z"
           id="path859"
           style="stroke-width:0.38786328" />
        <path
           style="fill:#ffffff;stroke-width:0.38786328"
           inkscape:connector-curvature="0"
           d="m 66.938,63.524 c -1.273,0 -2.432,0.22 -3.286,0.577 -0.094,0.047 -0.161,0.145 -0.161,0.257 0,0.041 0.01,0.082 0.026,0.118 0.101,0.293 -0.065,0.61 -0.892,0.792 -1.226,0.269 -2,1.535 -2.443,1.955 -0.52,0.494 -1.989,0.797 -1.768,0.503 0.173,-0.23 0.834,-0.948 1.236,-1.724 0.36,-0.694 0.68,-0.891 1.121,-1.553 0.129,-0.194 0.631,-0.876 0.777,-1.415 0.164,-0.526 0.109,-1.187 0.171,-1.459 0.09,-0.393 0.461,-1.244 0.488,-1.724 0.016,-0.272 -1.135,0.388 -1.681,0.388 -0.546,0 -1.078,-0.328 -1.566,-0.351 -0.604,-0.028 -0.992,0.466 -1.539,0.38 -0.312,-0.05 -0.575,-0.325 -1.12,-0.345 -0.776,-0.028 -1.725,0.432 -3.507,0.374 -1.753,-0.057 -3.372,-2.216 -3.593,-2.559 -0.259,-0.402 -0.575,-0.402 -0.92,-0.086 -0.345,0.316 -0.77,0.067 -0.891,-0.145 -0.23,-0.402 -0.845,-1.577 -1.797,-1.824 -1.317,-0.341 -1.983,0.729 -1.897,1.58 0.088,0.864 0.646,1.107 0.905,1.566 0.258,0.46 0.391,0.756 0.878,0.959 0.345,0.145 0.473,0.357 0.371,0.64 -0.09,0.247 -0.449,0.303 -0.685,0.315 -0.502,0.024 -0.853,-0.112 -1.11,-0.276 -0.298,-0.191 -0.541,-0.455 -0.801,-0.903 -0.301,-0.495 -0.776,-0.71 -1.328,-0.71 -0.263,0 -0.51,0.069 -0.729,0.182 -0.866,0.451 -1.897,0.718 -3.007,0.718 l -1.252,0.001 C 39.34,66.874 46.071,72 54.001,72 c 6.334,0 11.903,-3.271 15.112,-8.216 -0.695,-0.159 -1.43,-0.26 -2.175,-0.26 z"
           id="path861" />
        <path
           inkscape:connector-curvature="0"
           d="m 57.927,62.12 c -0.016,0 -0.031,0.007 -0.042,0.018 -0.233,0.271 -0.334,0.36 -0.502,0.495 -0.406,0.327 -0.87,-0.042 -1.167,-0.217 -0.661,-0.388 -1.193,-0.143 -1.322,0.157 -0.129,0.303 0.014,0.666 0.374,0.618 0.504,-0.065 0.526,0.013 0.891,0.244 0.679,0.43 1.174,0.196 1.427,-0.007 0.211,-0.168 0.328,-0.311 0.438,-0.516 0.195,-0.385 0.036,-0.69 -0.057,-0.78 -0.012,-0.006 -0.026,-0.012 -0.04,-0.012 z"
           id="path863"
           style="stroke-width:0.38786328" />
        <path
           inkscape:connector-curvature="0"
           d="M 54.001,36 C 44.059,36 36,44.059 36,54 c 0,2.012 0.33,3.948 0.939,5.754 h 1.252 c 1.11,0 2.141,-0.267 3.007,-0.718 0.219,-0.112 0.466,-0.182 0.729,-0.182 0.553,0 1.027,0.215 1.328,0.71 0.26,0.449 0.503,0.713 0.801,0.902 0.256,0.164 0.608,0.3 1.11,0.277 0.236,-0.011 0.595,-0.068 0.685,-0.315 0.103,-0.283 -0.026,-0.497 -0.371,-0.64 -0.487,-0.203 -0.619,-0.501 -0.878,-0.961 -0.259,-0.459 -0.818,-0.702 -0.905,-1.566 -0.087,-0.851 0.58,-1.922 1.897,-1.58 0.952,0.246 1.567,1.422 1.797,1.825 0.121,0.212 0.546,0.46 0.891,0.145 0.344,-0.317 0.661,-0.317 0.92,0.086 0.221,0.343 1.84,2.501 3.593,2.558 1.782,0.057 2.731,-0.403 3.507,-0.374 0.545,0.021 0.808,0.295 1.12,0.345 0.547,0.086 0.935,-0.408 1.539,-0.379 0.488,0.024 1.02,0.35 1.566,0.35 0.546,0 1.697,-0.659 1.681,-0.387 -0.028,0.48 -0.398,1.332 -0.488,1.724 -0.063,0.272 -0.008,0.933 -0.171,1.46 -0.146,0.539 -0.648,1.221 -0.777,1.416 -0.441,0.661 -0.761,0.859 -1.121,1.552 -0.402,0.776 -1.063,1.494 -1.236,1.724 -0.221,0.294 1.248,-0.009 1.768,-0.503 0.443,-0.421 1.217,-1.685 2.443,-1.955 0.827,-0.182 0.993,-0.499 0.892,-0.792 -0.015,-0.034 -0.026,-0.076 -0.026,-0.117 0,-0.112 0.067,-0.21 0.161,-0.258 0.854,-0.355 2.013,-0.576 3.286,-0.576 0.744,0 1.48,0.099 2.174,0.26 1.827,-2.818 2.888,-6.177 2.888,-9.785 0,-9.941 -8.059,-18 -18,-18 z"
           id="path865"
           style="stroke-width:0.38786328" />
        <path
           style="fill:#cc0000;stroke-width:0.38786328"
           inkscape:connector-curvature="0"
           d="m 64.158,49.211 c -0.178,0.598 -0.431,1.363 -1.556,1.94 -0.164,0.084 -0.227,-0.054 -0.151,-0.183 0.425,-0.723 0.501,-0.904 0.625,-1.19 0.173,-0.417 0.264,-1.011 -0.08,-2.249 -0.677,-2.436 -2.089,-5.692 -3.116,-6.749 -0.99,-1.019 -2.785,-1.306 -4.408,-0.89 -0.598,0.153 -1.767,0.761 -3.934,0.273 -3.752,-0.845 -4.308,1.034 -4.523,1.852 -0.216,0.819 -0.733,3.145 -0.733,3.145 -0.172,0.948 -0.398,2.595 5.428,3.705 2.714,0.517 2.852,1.218 2.972,1.723 0.216,0.904 0.56,1.422 0.948,1.68 0.388,0.259 0,0.473 -0.43,0.517 -1.156,0.12 -5.428,-1.105 -7.955,-2.541 -2.068,-1.264 -2.102,-2.401 -1.629,-3.367 -3.123,-0.338 -5.468,0.293 -5.892,1.771 -0.729,2.537 5.579,6.872 12.762,9.047 7.538,2.282 15.292,0.689 16.154,-4.05 0.389,-2.152 -1.424,-3.744 -4.482,-4.434 z M 52.6,44.571 c -2.079,0.15 -2.295,0.375 -2.684,0.79 -0.549,0.585 -1.273,-0.759 -1.273,-0.759 -0.434,-0.091 -0.96,-0.791 -0.677,-1.445 0.28,-0.646 0.796,-0.453 0.958,-0.251 0.197,0.245 0.617,0.646 1.163,0.632 0.546,-0.014 1.175,-0.129 2.053,-0.129 0.89,0 1.488,0.332 1.522,0.618 0.03,0.243 -0.072,0.472 -1.062,0.544 z m 4.497,-2.07 c -0.373,-0.009 -0.724,-0.063 -1.026,-0.15 -0.036,-0.009 -0.061,-0.04 -0.061,-0.076 0,-0.036 0.026,-0.067 0.062,-0.076 0.72,-0.167 1.206,-0.439 1.171,-0.696 -0.045,-0.341 -0.987,-0.527 -2.103,-0.415 -0.122,0.013 -0.241,0.028 -0.357,0.046 -0.003,0 -0.006,10e-4 -0.009,10e-4 -0.032,0 -0.058,-0.025 -0.058,-0.055 0,-0.022 0.013,-0.041 0.033,-0.05 0.403,-0.213 1.004,-0.382 1.693,-0.452 0.207,-0.021 0.408,-0.032 0.603,-0.033 0.034,0 0.068,0 0.103,0 1.154,0.026 2.077,0.485 2.064,1.024 -0.014,0.542 -0.96,0.958 -2.115,0.932 z"
           id="path867" />
      </g>
    </g>
  </g>
</svg>
