<?xml version="1.0" encoding="UTF-8"?>
<svg width="181.1" height="179.1" version="1.1" xmlns="http://www.w3.org/2000/svg" xmlns:xlink="http://www.w3.org/1999/xlink">
<title>Trisquel logo</title>
 <defs>
  <linearGradient id="vlpa">
   <stop style="stop-color:#fff" offset="0"/>
   <stop style="stop-color:#fff;stop-opacity:0" offset="1"/>
  </linearGradient>
  <linearGradient id="vlpc" x1="33.11" x2="25.37" y1="43.54" y2="2.44" gradientUnits="userSpaceOnUse" xlink:href="#vlpa"/>
  <linearGradient id="vlpb" x1="29.85" x2="21.8" y1="50.4" y2="15.47" gradientUnits="userSpaceOnUse" xlink:href="#vlpa"/>
 </defs>
 <g transform="matrix(3.413 0 0 3.413 8.82 10.57)">
  <path d="m27.87 43.71c-1.113-0.1508-2.337-0.4496-2.88-0.7032-1.256-0.5861-2.457-1.418-2.886-1.999-0.1122-0.1521-0.3907-0.4236-0.6189-0.6033-0.9071-0.7146-1.437-1.467-2.518-3.576-0.1228-0.2396-0.5067-2.179-0.6479-3.275-0.1116-0.8656-0.1027-2.595 0.01758-3.386 0.1492-0.9822 0.454-2.274 0.6016-2.55 0.1243-0.2322 0.433-1.232 0.529-1.713 0.03626-0.1818 0.1176-0.3943 0.1807-0.4722 0.06314-0.07791 0.1935-0.4179 0.2896-0.7555 0.09614-0.3376 0.3202-0.9081 0.498-1.268 0.3981-0.8055 0.5852-1.406 0.5866-1.881 5.72e-4 -0.1998 0.07085-0.6034 0.1562-0.897 0.209-0.7188 0.1284-2.743-0.1396-3.509-0.2036-0.5819-0.7008-1.559-1.223-2.404-1.082-1.751-4.176-3.905-6.017-4.19-0.7057-0.1092-3.042 0.01163-4.046 0.2092-0.8596 0.1691-1.669 0.5453-2.084 0.9685-1.065 1.085-1.687 1.818-1.932 2.276-0.3536 0.6608-0.5729 1.674-0.6331 2.926-0.06837 1.423-0.008922 1.72 0.6221 3.112 0.5325 1.174 1.965 2.361 3.54 2.933 0.7354 0.2671 1.015 0.3166 2.078 0.3675 1.465 0.07027 2.089-0.03592 2.746-0.467 0.2558-0.1679 0.6563-0.4177 0.8901-0.5549 1.067-0.6266 1.624-1.808 1.62-3.435-0.002809-1.008-0.3621-1.919-0.9709-2.462-0.3786-0.3374-1.714-1.141-2.102-1.265-0.6762-0.2158-1.548-0.07892-2.479 0.3891-0.4531 0.2278-0.9044 0.5245-1.003 0.6593-0.09841 0.1348-0.3213 0.6235-0.4953 1.086-0.174 0.4626-0.3513 0.8411-0.3939 0.8411-0.1692 0-0.1258-0.7336 0.07669-1.297 0.2897-0.806 0.5806-1.225 1.154-1.664 0.6469-0.4944 1.281-0.7389 2.138-0.8243 1.115-0.111 1.289-0.0798 2.253 0.4032 1.122 0.5619 1.461 0.8933 2.014 1.969 0.661 1.284 0.742 1.638 0.5954 2.599-0.1666 1.093-0.541 2.197-0.977 2.88-0.3975 0.6233-1.138 1.191-2.47 1.893-0.9548 0.5031-1.281 0.5909-2.55 0.6869-1.389 0.105-2.198 0.01486-3.258-0.3629-0.4675-0.1666-1.049-0.3599-1.292-0.4294-0.3241-0.09271-0.7433-0.3804-1.571-1.078-1.421-1.197-1.649-1.585-1.925-3.265-0.1024-0.6233-0.1996-1.439-0.216-1.812-0.01637-0.3733-0.05626-0.7215-0.08866-0.7739-0.06776-0.1096 0.08948-2.008 0.2473-2.986 0.1301-0.806 0.1896-0.9285 1.119-2.305 0.5517-0.817 0.9145-1.24 1.43-1.668 1.667-1.384 2.756-1.958 4.649-2.45 1.313-0.341 1.316-0.3414 2.928-0.2986 1.704 0.04528 2.612 0.1517 3.224 0.3783 4.143 1.532 5.777 2.874 7.9 6.485 0.6788 1.155 1.327 1.98 2.498 3.182 0.8619 0.8845 1.138 1.106 1.688 1.358 0.8872 0.4051 1.925 0.5526 3.916 0.5567 1.896 0.003843 2.614-0.1398 3.441-0.6886 0.2629-0.1745 0.69-0.4111 0.9491-0.5256s0.5565-0.2852 0.6611-0.3791c0.1045-0.09396 0.4238-0.2936 0.7095-0.4436 0.656-0.3444 1.422-1.112 1.701-1.705 0.3367-0.7145 0.8519-1.563 1.137-1.874 0.1946-0.2118 0.2843-0.4411 0.3554-0.9086 0.05227-0.3439 0.1842-0.8 0.2931-1.014 0.2738-0.5367 0.3664-1.671 0.1678-2.055-0.08092-0.1565-0.208-0.6071-0.2825-1.001-0.2643-1.4-1.649-3.032-3.238-3.817-0.5763-0.2848-0.8207-0.3455-1.721-0.427-1.871-0.1695-3.241 0.1193-4.32 0.9107-1.02 0.7479-1.46 1.117-1.46 1.223 0 0.1117-0.4698 0.6605-0.6195 0.7236-0.2073 0.08749-0.6082 0.7537-0.6082 1.011 0 0.1527-0.08309 0.4654-0.1846 0.695-0.3872 0.8754-0.3193 1.584 0.2924 3.054 0.348 0.8359 0.4546 1.031 0.7997 1.464 0.4626 0.5803 0.949 0.8492 1.811 1.001 1.002 0.1767 1.504 0.164 2.139-0.05435 1.255-0.4316 2.128-1.168 2.579-2.174 0.2031-0.4528 0.2281-0.6226 0.195-1.324-0.03327-0.7054-0.07788-0.8748-0.3606-1.369-0.1775-0.3104-0.4876-0.7435-0.6892-0.9625-0.2016-0.2189-0.3518-0.4424-0.3337-0.4965 0.05236-0.1571 1.002 0.5356 1.302 0.9495 0.4599 0.6348 0.6076 1.272 0.5402 2.331-0.07399 1.162-0.3913 1.842-1.289 2.76-0.6924 0.7082-1.388 1.049-2.549 1.248-0.9447 0.162-2.144-0.05862-2.902-0.5337-0.9182-0.5759-1.49-1.166-2.012-2.076-0.4286-0.7475-0.5091-0.9787-0.7073-2.031-0.2361-1.253-0.2357-2.276 0.001184-2.556 0.06579-0.07791 0.1696-0.3864 0.2308-0.6856 0.06114-0.2992 0.2066-0.6604 0.3232-0.8027s0.3484-0.5454 0.5151-0.8956c0.2452-0.5153 0.3747-0.6734 0.6782-0.8283 0.2063-0.1053 0.3752-0.2337 0.3752-0.2855s0.1454-0.1634 0.3232-0.2482c0.1778-0.08476 0.3439-0.2334 0.3693-0.3304 0.02719-0.104 0.2721-0.2754 0.5976-0.4181 0.3033-0.133 0.7828-0.3502 1.066-0.4827 0.2827-0.1324 1.069-0.378 1.747-0.5458 1.172-0.29 1.289-0.3016 2.366-0.2376 1.082 0.06427 1.158 0.08271 1.689 0.4082 0.3058 0.1875 0.7096 0.3906 0.8972 0.4513 0.1876 0.06075 0.6734 0.349 1.079 0.6405 0.4061 0.2915 0.8804 0.616 1.054 0.721 0.1736 0.105 0.596 0.4782 0.9386 0.8293 0.711 0.7287 1.457 2.087 1.702 3.101 0.08009 0.3306 0.2304 0.8986 0.3341 1.262 0.1612 0.5657 0.1802 0.8314 0.1315 1.842-0.1517 3.146-1.222 5.568-3.294 7.454-0.2597 0.2365-0.7808 0.7367-1.158 1.112-0.7632 0.7586-1.674 1.385-2.809 1.932-0.4155 0.2004-0.9917 0.4883-1.28 0.6398-0.8821 0.4629-2.231 0.667-4.409 0.667-2.13 0-2.367 0.03229-4.812 0.6569-0.8747 0.2235-1.162 0.345-1.667 0.7053-0.8538 0.6092-1.839 1.878-2.608 3.36-0.1213 0.2337-0.2966 0.51-0.3894 0.6139-0.3077 0.3444-0.5456 1.051-0.5621 1.669-0.04062 1.523 0.02199 4.224 0.1058 4.564 0.13 0.5278 0.372 1.083 0.6177 1.417 0.3185 0.4325 0.8508 1.405 0.975 1.781 0.06666 0.202 0.2906 0.4866 0.561 0.713 0.2475 0.2072 0.5719 0.5526 0.7208 0.7675 0.3237 0.4671 1.494 1.102 2.195 1.19 0.2456 0.03104 0.5332 0.1102 0.6392 0.176 0.106 0.06575 0.4247 0.1676 0.7083 0.2263 0.6149 0.1273 2.007-0.04731 2.81-0.3525 0.4938-0.1876 1.659-0.8685 2.279-1.332 0.4649-0.3474 1.098-1.247 1.285-1.824 0.08794-0.2726 0.2119-0.5807 0.2753-0.6845 0.3271-0.5351 0.4039-1.624 0.2477-3.508-0.05986-0.7221-0.1371-1.071-0.3134-1.417-0.1287-0.252-0.3323-0.6631-0.4525-0.9135-0.3679-0.7664-2.139-2.049-2.85-2.063-0.1184-0.002445-0.5003-0.06373-0.8486-0.1362-0.6689-0.1391-1.645-0.06897-2.049 0.1473-0.4968 0.2659-1.131 0.7412-1.538 1.152-0.361 0.3648-0.4874 0.5887-0.6844 1.213-0.2262 0.7162-0.2363 0.8276-0.1569 1.741 0.09698 1.117 0.2873 1.633 0.8184 2.221 0.4236 0.4689 0.7845 0.6658 1.74 0.95 0.6943 0.2064 1.351 0.2198 1.96 0.04024 0.3577-0.1055 0.236 0.109-0.1643 0.2895-0.5654 0.255-1.901 0.1575-2.783-0.2031-0.8817-0.3607-1.65-1.073-2.058-1.908-0.2943-0.6016-0.3069-0.6736-0.3069-1.761 0-1.081 0.01347-1.159 0.2915-1.7 0.1603-0.3117 0.3895-0.7578 0.5093-0.9914 0.1198-0.2336 0.4675-0.6653 0.7726-0.9593 0.4504-0.4339 0.6923-0.5821 1.285-0.7872 1.632-0.5646 3.618-0.4182 4.838 0.3566 1.116 0.7085 2.094 1.533 2.467 2.078 0.6837 1.002 1.178 2.186 1.25 2.995 0.03466 0.3896 0.1015 1.081 0.1486 1.537 0.08071 0.7814 0.06696 0.9028-0.2407 2.125-0.4805 1.909-0.7433 2.416-1.677 3.236-0.422 0.371-0.9255 0.7558-1.119 0.8552-0.1933 0.09932-0.4908 0.3004-0.6611 0.447-0.4616 0.3972-1.338 0.8658-1.619 0.8658-0.136 0-0.5133 0.1014-0.8385 0.2253-0.6424 0.2448-1.835 0.5371-2.116 0.5187-0.09646-0.00632-0.5579-0.0633-1.025-0.1266z" style="fill:none;opacity:.5021;stroke-linejoin:round;stroke-width:1.5;stroke:#002568"/>
  <path d="m27.87 43.71c-1.113-0.1508-2.337-0.4496-2.88-0.7032-1.256-0.5861-2.457-1.418-2.886-1.999-0.1122-0.1521-0.3907-0.4236-0.6189-0.6033-0.9071-0.7146-1.437-1.467-2.518-3.576-0.1228-0.2396-0.5067-2.179-0.6479-3.275-0.1116-0.8656-0.1027-2.595 0.01758-3.386 0.1492-0.9822 0.454-2.274 0.6016-2.55 0.1243-0.2322 0.433-1.232 0.529-1.713 0.03626-0.1818 0.1176-0.3943 0.1807-0.4722 0.06314-0.07791 0.1935-0.4179 0.2896-0.7555 0.09614-0.3376 0.3202-0.9081 0.498-1.268 0.3981-0.8055 0.5852-1.406 0.5866-1.881 5.72e-4 -0.1998 0.07085-0.6034 0.1562-0.897 0.209-0.7188 0.1284-2.743-0.1396-3.509-0.2036-0.5819-0.7008-1.559-1.223-2.404-1.082-1.751-4.176-3.905-6.017-4.19-0.7057-0.1092-3.042 0.01163-4.046 0.2092-0.8596 0.1691-1.669 0.5453-2.084 0.9685-1.065 1.085-1.687 1.818-1.932 2.276-0.3536 0.6608-0.5729 1.674-0.6331 2.926-0.06837 1.423-0.008922 1.72 0.6221 3.112 0.5325 1.174 1.965 2.361 3.54 2.933 0.7354 0.2671 1.015 0.3166 2.078 0.3675 1.465 0.07027 2.089-0.03592 2.746-0.467 0.2558-0.1679 0.6563-0.4177 0.8901-0.5549 1.067-0.6266 1.624-1.808 1.62-3.435-0.002809-1.008-0.3621-1.919-0.9709-2.462-0.3786-0.3374-1.714-1.141-2.102-1.265-0.6762-0.2158-1.548-0.07892-2.479 0.3891-0.4531 0.2278-0.9044 0.5245-1.003 0.6593-0.09841 0.1348-0.3213 0.6235-0.4953 1.086-0.174 0.4626-0.3513 0.8411-0.3939 0.8411-0.1692 0-0.1258-0.7336 0.07669-1.297 0.2897-0.806 0.5806-1.225 1.154-1.664 0.6469-0.4944 1.281-0.7389 2.138-0.8243 1.115-0.111 1.289-0.0798 2.253 0.4032 1.122 0.5619 1.461 0.8933 2.014 1.969 0.661 1.284 0.742 1.638 0.5954 2.599-0.1666 1.093-0.541 2.197-0.977 2.88-0.3975 0.6233-1.138 1.191-2.47 1.893-0.9548 0.5031-1.281 0.5909-2.55 0.6869-1.389 0.105-2.198 0.01486-3.258-0.3629-0.4675-0.1666-1.049-0.3599-1.292-0.4294-0.3241-0.09271-0.7433-0.3804-1.571-1.078-1.421-1.197-1.649-1.585-1.925-3.265-0.1024-0.6233-0.1996-1.439-0.216-1.812-0.01637-0.3733-0.05626-0.7215-0.08866-0.7739-0.06776-0.1096 0.08948-2.008 0.2473-2.986 0.1301-0.806 0.1896-0.9285 1.119-2.305 0.5517-0.817 0.9145-1.24 1.43-1.668 1.667-1.384 2.756-1.958 4.649-2.45 1.313-0.341 1.316-0.3414 2.928-0.2986 1.704 0.04528 2.612 0.1517 3.224 0.3783 4.143 1.532 5.777 2.874 7.9 6.485 0.6788 1.155 1.327 1.98 2.498 3.182 0.8619 0.8845 1.138 1.106 1.688 1.358 0.8872 0.4051 1.925 0.5526 3.916 0.5567 1.896 0.003843 2.614-0.1398 3.441-0.6886 0.2629-0.1745 0.69-0.4111 0.9491-0.5256s0.5565-0.2852 0.6611-0.3791c0.1045-0.09396 0.4238-0.2936 0.7095-0.4436 0.656-0.3444 1.422-1.112 1.701-1.705 0.3367-0.7145 0.8519-1.563 1.137-1.874 0.1946-0.2118 0.2844-0.4411 0.3554-0.9086 0.05227-0.3439 0.1842-0.8 0.2931-1.014 0.2738-0.5367 0.3664-1.671 0.1678-2.055-0.08092-0.1565-0.208-0.6071-0.2825-1.001-0.2643-1.4-1.649-3.032-3.238-3.817-0.5763-0.2848-0.8208-0.3455-1.721-0.427-1.871-0.1695-3.241 0.1193-4.32 0.9107-1.02 0.7479-1.46 1.117-1.46 1.223 0 0.1117-0.4698 0.6605-0.6195 0.7236-0.2073 0.08749-0.6082 0.7537-0.6082 1.011 0 0.1527-0.08309 0.4654-0.1846 0.695-0.3872 0.8754-0.3193 1.584 0.2924 3.054 0.348 0.8359 0.4546 1.031 0.7997 1.464 0.4626 0.5803 0.949 0.8492 1.811 1.001 1.002 0.1767 1.504 0.164 2.139-0.05435 1.255-0.4316 2.128-1.168 2.579-2.174 0.2031-0.4528 0.2281-0.6226 0.195-1.324-0.03327-0.7054-0.07788-0.8748-0.3606-1.369-0.1775-0.3104-0.4876-0.7435-0.6892-0.9625-0.2016-0.2189-0.3518-0.4424-0.3337-0.4965 0.05236-0.1571 1.002 0.5356 1.302 0.9495 0.4599 0.6348 0.6076 1.272 0.5402 2.331-0.07398 1.162-0.3913 1.842-1.289 2.76-0.6924 0.7082-1.388 1.049-2.549 1.248-0.9447 0.162-2.144-0.05862-2.902-0.5337-0.9182-0.5759-1.49-1.166-2.012-2.076-0.4286-0.7475-0.5091-0.9787-0.7073-2.031-0.2361-1.253-0.2357-2.276 0.001184-2.556 0.06579-0.07791 0.1696-0.3864 0.2308-0.6856 0.06114-0.2992 0.2066-0.6604 0.3232-0.8027s0.3484-0.5454 0.5151-0.8956c0.2452-0.5153 0.3747-0.6734 0.6782-0.8283 0.2063-0.1053 0.3752-0.2337 0.3752-0.2855s0.1454-0.1634 0.3232-0.2482c0.1778-0.08476 0.3439-0.2334 0.3693-0.3304 0.02719-0.104 0.2721-0.2754 0.5976-0.4181 0.3033-0.133 0.7828-0.3502 1.066-0.4827 0.2827-0.1324 1.069-0.378 1.747-0.5458 1.172-0.29 1.289-0.3016 2.366-0.2376 1.082 0.06427 1.158 0.08271 1.689 0.4082 0.3058 0.1875 0.7096 0.3906 0.8972 0.4513 0.1876 0.06075 0.6734 0.349 1.079 0.6405 0.4061 0.2915 0.8804 0.616 1.054 0.721 0.1736 0.105 0.596 0.4782 0.9386 0.8293 0.711 0.7287 1.457 2.087 1.702 3.101 0.08008 0.3306 0.2304 0.8986 0.334 1.262 0.1612 0.5657 0.1802 0.8314 0.1315 1.842-0.1517 3.146-1.222 5.568-3.294 7.454-0.2597 0.2365-0.7808 0.7367-1.158 1.112-0.7632 0.7586-1.674 1.385-2.809 1.932-0.4155 0.2004-0.9916 0.4883-1.28 0.6398-0.8821 0.4629-2.231 0.667-4.409 0.667-2.13 0-2.367 0.03229-4.812 0.6569-0.8747 0.2235-1.162 0.345-1.667 0.7053-0.8538 0.6092-1.839 1.878-2.608 3.36-0.1213 0.2337-0.2966 0.51-0.3894 0.6139-0.3077 0.3444-0.5456 1.051-0.5621 1.669-0.04062 1.523 0.02199 4.224 0.1058 4.564 0.13 0.5278 0.372 1.083 0.6177 1.417 0.3185 0.4325 0.8508 1.405 0.975 1.781 0.06666 0.202 0.2906 0.4866 0.561 0.713 0.2475 0.2072 0.5719 0.5526 0.7208 0.7675 0.3237 0.4671 1.494 1.102 2.195 1.19 0.2456 0.03104 0.5332 0.1102 0.6392 0.176 0.106 0.06575 0.4247 0.1676 0.7083 0.2263 0.6149 0.1273 2.007-0.04731 2.81-0.3525 0.4938-0.1876 1.659-0.8685 2.279-1.332 0.4649-0.3474 1.098-1.247 1.285-1.824 0.08794-0.2726 0.2119-0.5807 0.2753-0.6845 0.3271-0.5351 0.4039-1.624 0.2477-3.508-0.05986-0.7221-0.1371-1.071-0.3134-1.417-0.1287-0.252-0.3323-0.6631-0.4525-0.9135-0.3679-0.7664-2.139-2.049-2.85-2.063-0.1184-0.002445-0.5003-0.06373-0.8486-0.1362-0.6689-0.1391-1.645-0.06897-2.049 0.1473-0.4968 0.2659-1.131 0.7412-1.538 1.152-0.361 0.3648-0.4874 0.5887-0.6844 1.213-0.2262 0.7162-0.2363 0.8276-0.1569 1.741 0.09698 1.117 0.2873 1.633 0.8184 2.221 0.4236 0.4689 0.7845 0.6658 1.74 0.95 0.6943 0.2064 1.351 0.2198 1.96 0.04024 0.3577-0.1055 0.236 0.109-0.1643 0.2895-0.5654 0.255-1.901 0.1575-2.783-0.2031-0.8817-0.3607-1.65-1.073-2.058-1.908-0.2943-0.6016-0.3069-0.6736-0.3069-1.761 0-1.081 0.01347-1.159 0.2915-1.7 0.1603-0.3117 0.3895-0.7578 0.5093-0.9914 0.1198-0.2336 0.4675-0.6653 0.7726-0.9593 0.4504-0.4339 0.6923-0.5821 1.285-0.7872 1.632-0.5646 3.618-0.4182 4.838 0.3566 1.116 0.7085 2.094 1.533 2.467 2.078 0.6837 1.002 1.178 2.186 1.25 2.995 0.03466 0.3896 0.1015 1.081 0.1486 1.537 0.08071 0.7814 0.06696 0.9028-0.2407 2.125-0.4805 1.909-0.7433 2.416-1.677 3.236-0.422 0.371-0.9255 0.7558-1.119 0.8552-0.1933 0.09932-0.4908 0.3004-0.6611 0.447-0.4616 0.3972-1.338 0.8658-1.619 0.8658-0.136 0-0.5133 0.1014-0.8385 0.2253-0.6424 0.2448-1.835 0.5371-2.116 0.5187-0.09646-0.00632-0.5579-0.0633-1.025-0.1266z" style="fill:#004db1"/>
  <path d="m20.16 24.12 21.31-4.844c0.02465-0.02278 0.07241-0.07432 0.09375-0.09375 2.072-1.887 3.13-4.291 3.281-7.438 0.04872-1.01 0.03622-1.278-0.125-1.844-0.1036-0.3636-0.2637-0.9507-0.3438-1.281-0.2455-1.013-0.9765-2.365-1.688-3.094-0.3426-0.3511-0.7639-0.7075-0.9375-0.8125-0.1736-0.105-0.6564-0.4585-1.062-0.75-0.4061-0.2915-0.8749-0.5642-1.062-0.625-0.1876-0.06075-0.6004-0.25-0.9062-0.4375-0.5309-0.3255-0.6054-0.3732-1.688-0.4375-1.078-0.064-1.203-0.03996-2.375 0.25-0.6782 0.1677-1.467 0.4301-1.75 0.5625-0.2827 0.1324-0.7592 0.3357-1.062 0.4688-0.3255 0.1427-0.5666 0.3022-0.5938 0.4062-0.02535 0.09693-0.1972 0.259-0.375 0.3438-0.1777 0.08476-0.3125 0.1983-0.3125 0.25 0 0.05173-0.1687 0.176-0.375 0.2812-0.3036 0.1549-0.4423 0.3285-0.6875 0.8438-0.1667 0.3503-0.3834 0.7327-0.5 0.875-0.1166 0.1423-0.2826 0.5133-0.3438 0.8125-0.06114 0.2992-0.153 0.6096-0.2188 0.6875-0.2368 0.2805-0.2361 1.309 0 2.562 0.1982 1.052 0.2589 1.284 0.6875 2.031 0.5217 0.9098 1.113 1.487 2.031 2.062 0.7574 0.4751 1.962 0.6932 2.906 0.5312 1.161-0.199 1.839-0.5418 2.531-1.25 0.8974-0.9179 1.239-1.588 1.312-2.75 0.0674-1.059-0.1026-1.709-0.5625-2.344-0.2998-0.4139-1.229-1.095-1.281-0.9375-0.01805 0.05415 0.1109 0.2811 0.3125 0.5 0.2016 0.2189 0.51 0.6583 0.6875 0.9688 0.2827 0.4946 0.3417 0.6384 0.375 1.344 0.03308 0.7018 0.01561 0.8909-0.1875 1.344-0.4515 1.007-1.339 1.725-2.594 2.156-0.6345 0.2183-1.123 0.2392-2.125 0.0625-0.8615-0.1519-1.35-0.4197-1.812-1-0.3451-0.4328-0.4645-0.6329-0.8125-1.469-0.6118-1.469-0.6685-2.156-0.2812-3.031 0.1015-0.2296 0.1875-0.5661 0.1875-0.7188 0-0.2571 0.3864-0.9125 0.5938-1 0.1497-0.06315 0.625-0.6071 0.625-0.7188 0-0.1066 0.4491-0.4709 1.469-1.219 1.079-0.7914 2.441-1.107 4.312-0.9375 0.9004 0.08156 1.142 0.1527 1.719 0.4375 1.589 0.7853 2.986 2.413 3.25 3.812 0.07444 0.3943 0.2003 0.8435 0.2812 1 0.1986 0.3841 0.08631 1.526-0.1875 2.062-0.109 0.2136-0.229 0.6874-0.2812 1.031-0.07103 0.4674-0.1803 0.6944-0.375 0.9062-0.2855 0.3107-0.7883 1.16-1.125 1.875-0.2796 0.5932-1.031 1.343-1.688 1.688-0.2857 0.15-0.6142 0.3435-0.7188 0.4375-0.1045 0.09396-0.3972 0.2604-0.6562 0.375-0.2591 0.1146-0.7058 0.3567-0.9688 0.5312-0.8268 0.5488-1.541 0.6913-3.438 0.6875-1.991-0.004034-3.019-0.1574-3.906-0.5625-0.5505-0.2514-0.8256-0.4593-1.688-1.344-1.171-1.202-1.821-2.033-2.5-3.188-2.123-3.611-3.763-4.936-7.906-6.469-0.6126-0.2266-1.514-0.3297-3.219-0.375-1.612-0.04281-1.625-0.05978-2.938 0.2812-1.893 0.4919-2.958 1.085-4.625 2.469-0.5156 0.428-0.8858 0.8393-1.438 1.656-0.9296 1.377-0.9949 1.507-1.125 2.312-0.1578 0.9776-0.3178 2.859-0.25 2.969 0.0324 0.05241 0.07738 0.408 0.09375 0.7812 0.01637 0.3733 0.1163 1.189 0.2188 1.812 0.2761 1.68 0.4856 2.053 1.906 3.25 0.8278 0.6977 1.27 1.001 1.594 1.094 0.2431 0.06954 0.8138 0.2709 1.281 0.4375 1.06 0.3778 1.861 0.4488 3.25 0.3438 1.269-0.09598 1.608-0.1844 2.562-0.6875 1.331-0.7014 2.071-1.252 2.469-1.875 0.4359-0.6836 0.8022-1.782 0.9688-2.875 0.1466-0.9615 0.06728-1.341-0.5938-2.625-0.5538-1.076-0.8783-1.407-2-1.969-0.9642-0.483-1.135-0.486-2.25-0.375-0.8573 0.0854-1.509 0.3181-2.156 0.8125-0.5738 0.4386-0.8666 0.8503-1.156 1.656-0.2025 0.5634-0.2317 1.313-0.0625 1.312 0.04264 0 0.201-0.3812 0.375-0.8438 0.174-0.4626 0.4016-0.959 0.5-1.094 0.09842-0.1348 0.5469-0.4284 1-0.6562 0.9308-0.468 1.824-0.6221 2.5-0.4062 0.3881 0.1239 1.715 0.9438 2.094 1.281 0.6088 0.5426 0.9659 1.461 0.9688 2.469 0.004539 1.626-0.5581 2.811-1.625 3.438-0.2337 0.1373-0.6192 0.3633-0.875 0.5312-0.6566 0.4311-1.285 0.539-2.75 0.4688-1.062-0.05096-1.358-0.07669-2.094-0.3438-1.575-0.5721-2.999-1.763-3.531-2.938-0.631-1.392-0.6934-1.702-0.625-3.125 0.06018-1.252 0.2714-2.277 0.625-2.938 0.2452-0.4581 0.8728-1.165 1.938-2.25 0.4151-0.4231 1.234-0.7996 2.094-0.9688 1.004-0.1976 3.326-0.3279 4.031-0.2188 1.841 0.2848 4.949 2.437 6.031 4.188 0.5224 0.845 1.015 1.824 1.219 2.406 0.2681 0.7662 0.3652 2.781 0.1562 3.5-0.08534 0.2936-0.1557 0.7065-0.1562 0.9062-0.00134 0.4758-0.1956 1.07-0.5938 1.875-0.09976 0.2018-0.1831 0.4625-0.2812 0.7188z" style="fill:url(#vlpc);opacity:.7975"/>
  <path d="m20.16 24.12c-0.07674 0.2003-0.1766 0.4143-0.2188 0.5625-0.09614 0.3376-0.2181 0.6721-0.2812 0.75-0.06315 0.07791-0.1512 0.287-0.1875 0.4688-0.09597 0.4812-0.407 1.487-0.5312 1.719-0.1476 0.2759-0.4445 1.549-0.5938 2.531-0.1202 0.7916-0.1429 2.541-0.03125 3.406 0.1413 1.095 0.5334 3.042 0.6562 3.281 1.081 2.109 1.593 2.848 2.5 3.562 0.2282 0.1798 0.5128 0.4417 0.625 0.5938 0.4282 0.5804 1.65 1.414 2.906 2 0.5433 0.2536 1.762 0.568 2.875 0.7188 0.4675 0.06332 0.9035 0.1187 1 0.125 0.281 0.01842 1.483-0.2864 2.125-0.5312 0.3252-0.1239 0.7078-0.2188 0.8438-0.2188 0.281 0 1.163-0.4778 1.625-0.875 0.1703-0.1465 0.4629-0.3382 0.6562-0.4375 0.1933-0.09932 0.703-0.4727 1.125-0.8438 0.9333-0.8206 1.176-1.341 1.656-3.25 0.3077-1.222 0.3307-1.344 0.25-2.125-0.04709-0.4558-0.1216-1.142-0.1562-1.531-0.07193-0.8088-0.5663-1.998-1.25-3-0.3722-0.5453-1.353-1.354-2.469-2.062-1.22-0.7748-3.181-0.9396-4.812-0.375-0.5928 0.2051-0.8308 0.3473-1.281 0.7812-0.3051 0.294-0.6614 0.7351-0.7812 0.9688s-0.3709 0.6883-0.5312 1c-0.278 0.5404-0.2813 0.6066-0.2812 1.688 0 1.087 0.01819 1.148 0.3125 1.75 0.4087 0.8355 1.181 1.577 2.062 1.938 0.8815 0.3606 2.216 0.4425 2.781 0.1875 0.4003-0.1805 0.5139-0.3867 0.1562-0.2812-0.6091 0.1796-1.274 0.1439-1.969-0.0625-0.956-0.2842-1.295-0.4686-1.719-0.9375-0.5311-0.5879-0.7155-1.102-0.8125-2.219-0.07934-0.9137-0.06999-1.034 0.1562-1.75 0.1971-0.6239 0.2952-0.8539 0.6562-1.219 0.4063-0.4106 1.066-0.8591 1.562-1.125 0.4041-0.2163 1.362-0.2954 2.031-0.1562 0.3484 0.07246 0.7254 0.1226 0.8438 0.125 0.7112 0.01469 2.507 1.296 2.875 2.062 0.1202 0.2504 0.3088 0.6542 0.4375 0.9062 0.1763 0.3453 0.2526 0.7154 0.3125 1.438 0.1562 1.885 0.07708 2.965-0.25 3.5-0.06349 0.1039-0.1933 0.4149-0.2812 0.6875-0.1862 0.5772-0.8163 1.465-1.281 1.812-0.6203 0.4635-1.787 1.156-2.281 1.344-0.8032 0.3052-2.198 0.4711-2.812 0.3438-0.2836-0.05872-0.5815-0.153-0.6875-0.2188-0.106-0.06575-0.4107-0.1565-0.6562-0.1875-0.7012-0.08862-1.864-0.7204-2.188-1.188-0.1489-0.2149-0.4712-0.5428-0.7188-0.75-0.2704-0.2264-0.4958-0.5168-0.5625-0.7188-0.1242-0.3763-0.6503-1.349-0.9688-1.781-0.2456-0.3336-0.495-0.8784-0.625-1.406-0.08381-0.3404-0.1344-3.04-0.09375-4.562 0.01649-0.6183 0.2548-1.343 0.5625-1.688 0.09284-0.1039 0.2537-0.36 0.375-0.5938 0.769-1.481 1.771-2.766 2.625-3.375 0.5049-0.3603 0.7815-0.4953 1.656-0.7188 2.445-0.6246 2.682-0.6563 4.812-0.6562 2.178 0 3.524-0.1933 4.406-0.6562 0.2886-0.1515 0.8657-0.4246 1.281-0.625 1.135-0.5473 2.049-1.179 2.812-1.938 0.3462-0.3441 0.7872-0.7768 1.062-1.031l-21.31 4.844z" style="fill:url(#vlpb);opacity:.3629"/>
 </g>
</svg>