<svg id="Layer_1" data-name="Layer 1" xmlns="http://www.w3.org/2000/svg" viewBox="0 0 1038.90491 1600"><defs><style>.cls-1{fill:#e9500e;}.cls-2{fill:#fff;}</style></defs><rect class="cls-1" width="1038.90491" height="1600"/><circle class="cls-2" cx="226.58835" cy="1056.07411" r="109.02696"/><circle class="cls-2" cx="680.64509" cy="817.00695" r="109.02696"/><path class="cls-2" d="M472.48179,1336.66575a265.525,265.525,0,0,1-181.07121-138.09821,156.94811,156.94811,0,0,1-93.21911,11.45831,354.9352,354.9352,0,0,0,255.53721,214.16456,359.21054,359.21054,0,0,0,77.41948,7.967,156.00315,156.00315,0,0,1-31.92236-91.15471C490.24607,1340.00523,481.27719,1338.548,472.48179,1336.66575Z" transform="translate(0)"/><circle class="cls-2" cx="656.08182" cy="1337.26719" r="109.02696"/><path class="cls-2" d="M807.7978,1297.22089A356.70056,356.70056,0,0,0,825.67268,878.702a157.14405,157.14405,0,0,1-61.30976,71.80309,267.293,267.293,0,0,1-8.73685,265.48842A156.34662,156.34662,0,0,1,807.7978,1297.22089Z" transform="translate(0)"/><path class="cls-2" d="M218.17628,899.71905q4.1505-.2277,8.30533-.22553A157.3464,157.3464,0,0,1,309.164,923.039,265.90648,265.90648,0,0,1,523.2722,808.52964a158.08773,158.08773,0,0,1,33.076-88.42024C419.24532,709.25176,286.02405,780.001,218.17628,899.71905Z" transform="translate(0)"/></svg>
