<svg height="16" width="16" xmlns="http://www.w3.org/2000/svg"><path d="m7 1v5.5625l-1.28125-1.28125c-.18816-.18815-.45345-.28124-.71875-.28125h-1v1c.00001.2653.0931.53058.28125.71875l3 3 .28125.28125h.875l.28125-.28125 3-3c.18819-.18817.28124-.45345.28125-.71875v-1h-1c-.2653.00001-.53059.0931-.71875.28125l-1.28125 1.28125v-5.5625zm-2.5058594 7.9921875a.50005.50005 0 0 0 -.0878906.0078125.50005.50005 0 0 0 -.3125.21875l-1 1.5a.50005.50005 0 0 0 -.09375.546875v3.734375h10v-3.734375a.50005.50005 0 0 0 -.09375-.546875l-1-1.5a.50005.50005 0 0 0 -.5-.21875.50005.50005 0 0 0 -.3125.78125l.8125 1.21875h-7.8125l.8125-1.21875a.50005.50005 0 0 0 -.4121094-.7890625zm5.0058594 3.4375005c.26418 0 .50373.243652.5.507812v.0625c0 .54535-.45465 1-1 1h-2c-.54535 0-1-.45465-1-1v-.0625c-.0108-.21706.13723-.43234.34375-.5.0208-.001.0417-.001.0625 0 .29096-.0556.59898.20383.59375.5v.0625h2v-.0625c-.004-.26416.23582-.507812.5-.507812z"/></svg>