<svg height="16" width="16" xmlns="http://www.w3.org/2000/svg"><g style="mix-blend-mode:normal;fill:#4a90d9;fill-opacity:1"><path style="fill:#4a90d9;stroke:none;stroke-width:1px;stroke-linecap:butt;stroke-linejoin:miter;stroke-opacity:1;fill-opacity:1" d="M474.61 255.118V406.3l-130.927 75.59V330.71zM343.683 330.709V179.528l-130.927 75.59Z" transform="matrix(.04764 0 0 .04764 -8.374 -7.77)"/><path style="fill:#4a90d9;fill-opacity:1;fill-rule:nonzero;stroke:none;stroke-width:82.9362;stroke-linecap:round;stroke-linejoin:round;stroke-dasharray:none;stroke-opacity:1" d="M218.612 233.262a43.667 43.667 0 0 0-21.856 37.856V390.3a43.667 43.667 0 0 0 21.856 37.857l103.214 59.59a43.667 43.667 0 0 0 43.713 0l103.214-59.59a43.667 43.667 0 0 0 21.856-37.857V271.12a43.667 43.667 0 0 0-21.856-37.857l-103.214-59.59a43.667 43.667 0 0 0-43.713 0zm130.927-31.878 103.214 59.59a11.759 11.759 0 0 1 5.856 10.144V390.3c0 4.166-2.249 8.06-5.856 10.144l-103.214 59.59a11.759 11.759 0 0 1-11.713 0l-103.214-59.59a11.759 11.759 0 0 1-5.856-10.144V271.12c0-4.167 2.249-8.062 5.856-10.144l103.214-59.591a11.759 11.759 0 0 1 11.713 0z" transform="matrix(.04764 0 0 .04764 -8.374 -7.77)"/></g></svg>