<?xml version="1.0" encoding="UTF-8" standalone="no"?>
<!-- Generator: Adobe Illustrator 19.2.0, SVG Export Plug-In . SVG Version: 6.00 Build 0)  -->

<svg
   xmlns:dc="http://purl.org/dc/elements/1.1/"
   xmlns:cc="http://creativecommons.org/ns#"
   xmlns:rdf="http://www.w3.org/1999/02/22-rdf-syntax-ns#"
   xmlns:svg="http://www.w3.org/2000/svg"
   xmlns="http://www.w3.org/2000/svg"
   xmlns:sodipodi="http://sodipodi.sourceforge.net/DTD/sodipodi-0.dtd"
   xmlns:inkscape="http://www.inkscape.org/namespaces/inkscape"
   version="1.1"
   id="Layer_1"
   x="0px"
   y="0px"
   viewBox="0 0 119.99999 80"
   xml:space="preserve"
   sodipodi:docname="endless.svg"
   width="120"
   height="80"
   inkscape:version="0.92pre1 r"><metadata
     id="metadata8355"><rdf:RDF><cc:Work
         rdf:about=""><dc:format>image/svg+xml</dc:format><dc:type
           rdf:resource="http://purl.org/dc/dcmitype/StillImage" /><dc:title></dc:title></cc:Work></rdf:RDF></metadata><defs
     id="defs8353" /><sodipodi:namedview
     pagecolor="#4075b1"
     bordercolor="#666666"
     borderopacity="1"
     objecttolerance="10"
     gridtolerance="10"
     guidetolerance="10"
     inkscape:pageopacity="0"
     inkscape:pageshadow="2"
     inkscape:window-width="2560"
     inkscape:window-height="1403"
     id="namedview8351"
     showgrid="false"
     inkscape:zoom="1"
     inkscape:cx="-209.87894"
     inkscape:cy="9.326965"
     inkscape:window-x="2560"
     inkscape:window-y="0"
     inkscape:window-maximized="1"
     inkscape:current-layer="Layer_1"
     showguides="true"
     inkscape:guide-bbox="true"><sodipodi:guide
       position="121.99999,13.999999"
       orientation="0,1"
       id="guide5972"
       inkscape:locked="false" /><inkscape:grid
       type="xygrid"
       id="grid5974" /></sodipodi:namedview><style
     type="text/css"
     id="style8326">
	.st0{fill:#EA5B0C;}
	.st1{fill:#4A4A49;}
</style><g
     style="stroke-width:4.92667198"
     id="g8330"
     transform="matrix(0.20297675,0,0,0.20297675,-25.19998,-18.366277)"><path
       style="fill:#ea5b0c;stroke-width:4.92667198"
       inkscape:connector-curvature="0"
       id="path8328"
       d="m 530.9,213.4 c -19.7,-11.3 -58,2.7 -92.3,20.1 -8.8,-4.1 -17.5,-8.2 -26,-12.1 25.1,-14 45.5,-27.8 50.4,-31.2 3.3,-2.3 4.1,-6.8 1.9,-10.1 -2.3,-3.3 -6.8,-4.1 -10.1,-1.8 -16.4,11.3 -37.5,24.4 -58.8,35.6 -40.8,-17.8 -75.6,-28.9 -93.7,-18.4 -5.2,3 -11.6,9.3 -12.5,22.2 -1.5,19.8 6.6,28.7 13.6,32.7 19.7,11.3 58,-2.7 92.3,-20.1 8.8,4.1 17.5,8.2 26,12.1 -25.1,14 -45.5,27.8 -50.4,31.2 -3.3,2.3 -4.1,6.8 -1.8,10.1 2.3,3.3 6.8,4.1 10.1,1.8 16.4,-11.3 37.5,-24.4 58.8,-35.6 40.8,17.8 75.6,28.9 93.7,18.4 5.2,-3 11.6,-9.3 12.5,-22.2 1.4,-19.8 -6.6,-28.7 -13.7,-32.7 z M 310.6,238 c -1.9,-1.1 -7.5,-4.3 -6.4,-19.1 0.5,-7.2 3.3,-9.6 5.4,-10.8 4.4,-2.6 11.3,-2.9 19.9,-1.5 13.3,2.1 30.7,8.2 49.5,15.9 -29.3,13.9 -56.3,22.4 -68.4,15.5 z m 219.5,7 c -0.5,7.2 -3.3,9.6 -5.4,10.8 -4.4,2.6 -11.3,2.9 -19.9,1.5 -13.3,-2.1 -30.7,-8.2 -49.5,-15.9 29.3,-13.9 56.4,-22.4 68.4,-15.5 1.9,1.1 7.5,4.3 6.4,19.1 z"
       class="st0" /></g><g
     style="fill:#ffffff;stroke-width:4.92667198"
     id="g8346"
     transform="matrix(0.20297675,0,0,0.20297675,-25.19998,-18.366277)"><path
       style="fill:#ffffff;stroke-width:4.92667198"
       inkscape:connector-curvature="0"
       id="path8332"
       d="M 167.1,352 H 206 v 5.8 h -32.6 v 22.1 h 24.4 v 5.6 h -24.4 v 25.8 h 34.5 v 5.7 h -40.7 v -65 z"
       class="st1" /><path
       style="fill:#ffffff;stroke-width:4.92667198"
       inkscape:connector-curvature="0"
       id="path8334"
       d="m 241.3,352 h 6.7 l 35.9,53.6 h 0.2 V 352 h 5.9 v 65 h -5.5 l -37,-55.3 h -0.2 V 417 h -5.9 v -65 z"
       class="st1" /><path
       style="fill:#ffffff;stroke-width:4.92667198"
       inkscape:connector-curvature="0"
       id="path8336"
       d="M 327.6,352 H 344 c 21.2,0 32.4,11 32.4,32.4 0,21.5 -11.4,32.6 -32.4,32.6 h -16.4 z m 17.5,59.4 c 16.1,0 25.1,-8.2 25.1,-27 0,-18.4 -9.1,-26.6 -25.3,-26.6 h -11 v 53.6 z"
       class="st1" /><path
       style="fill:#ffffff;stroke-width:4.92667198"
       inkscape:connector-curvature="0"
       id="path8338"
       d="m 411,352 h 6.2 v 59.3 H 449 v 5.7 h -38 z"
       class="st1" /><path
       style="fill:#ffffff;stroke-width:4.92667198"
       inkscape:connector-curvature="0"
       id="path8340"
       d="m 481.8,352 h 38.9 v 5.8 H 488 v 22.1 h 24.4 v 5.6 H 488 v 25.8 h 34.5 v 5.7 h -40.7 z"
       class="st1" /><path
       style="fill:#ffffff;stroke-width:4.92667198"
       inkscape:connector-curvature="0"
       id="path8342"
       d="m 551,401 5.5,-2 c 2.9,9.1 9.5,13.7 18.6,13.7 9.8,0 16.1,-4.5 16.1,-11.8 0,-6.8 -3.3,-10.2 -17.1,-14.6 -14,-4.4 -21.1,-8.2 -21.1,-18.9 0,-9.3 8.4,-16.7 20.2,-16.7 12.2,0 19.3,6.2 22.3,14.9 l -5.3,2.5 c -3.3,-8.4 -9,-11.8 -17.1,-11.8 -8.7,0 -14,4.7 -14,10.6 0,7.3 4.3,9.8 18,14.2 13.5,4.3 20.2,8.8 20.2,19.3 0,10.8 -9.6,17.8 -22.6,17.8 -12,0 -20.6,-6.6 -23.7,-17.2 z"
       class="st1" /><path
       style="fill:#ffffff;stroke-width:4.92667198"
       inkscape:connector-curvature="0"
       id="path8344"
       d="m 628.3,401 5.5,-2 c 2.9,9.1 9.5,13.7 18.6,13.7 9.8,0 16.1,-4.5 16.1,-11.8 0,-6.8 -3.3,-10.2 -17.1,-14.6 -14,-4.4 -21.1,-8.2 -21.1,-18.9 0,-9.3 8.4,-16.7 20.2,-16.7 12.2,0 19.3,6.2 22.3,14.9 l -5.3,2.5 c -3.3,-8.4 -9,-11.8 -17.1,-11.8 -8.7,0 -14,4.7 -14,10.6 0,7.3 4.3,9.8 18,14.2 13.5,4.3 20.2,8.8 20.2,19.3 0,10.8 -9.6,17.8 -22.6,17.8 -12,0 -20.6,-6.6 -23.7,-17.2 z"
       class="st1" /></g></svg>