<?xml version="1.0" encoding="UTF-8" standalone="no"?>
<!-- Generator: Adobe Illustrator 19.2.0, SVG Export Plug-In . SVG Version: 6.00 Build 0)  -->

<svg
   xmlns:dc="http://purl.org/dc/elements/1.1/"
   xmlns:cc="http://creativecommons.org/ns#"
   xmlns:rdf="http://www.w3.org/1999/02/22-rdf-syntax-ns#"
   xmlns:svg="http://www.w3.org/2000/svg"
   xmlns="http://www.w3.org/2000/svg"
   xmlns:sodipodi="http://sodipodi.sourceforge.net/DTD/sodipodi-0.dtd"
   xmlns:inkscape="http://www.inkscape.org/namespaces/inkscape"
   version="1.1"
   id="Layer_1"
   x="0px"
   y="0px"
   viewBox="0 0 143.99999 80"
   xml:space="preserve"
   sodipodi:docname="gentoo.svg"
   width="144"
   height="80"
   inkscape:version="0.92pre1 r"><metadata
     id="metadata8355"><rdf:RDF><cc:Work
         rdf:about=""><dc:format>image/svg+xml</dc:format><dc:type
           rdf:resource="http://purl.org/dc/dcmitype/StillImage" /><dc:title></dc:title></cc:Work></rdf:RDF></metadata><defs
     id="defs8353"><linearGradient
       gradientTransform="matrix(137.32,719.201,-719.201,137.32,-12.7656,-459.807)"
       gradientUnits="userSpaceOnUse"
       y2="0"
       x2="1"
       y1="0"
       x1="0"
       id="_Linear1"><stop
         id="stop9052"
         style="stop-color:#fff;stop-opacity:1"
         offset="0%" /><stop
         id="stop9054"
         style="stop-color:#fff;stop-opacity:1"
         offset="34%" /><stop
         id="stop9056"
         style="stop-color:#bebdf3;stop-opacity:1"
         offset="51%" /><stop
         id="stop9058"
         style="stop-color:#867fb7;stop-opacity:1"
         offset="75%" /><stop
         id="stop9060"
         style="stop-color:#9f99c7;stop-opacity:1"
         offset="87%" /><stop
         id="stop9062"
         style="stop-color:#524c76;stop-opacity:1"
         offset="100%" /></linearGradient><linearGradient
       gradientTransform="matrix(-41.4782,-185.977,185.977,-41.4782,156.163,202.263)"
       gradientUnits="userSpaceOnUse"
       y2="0"
       x2="1"
       y1="0"
       x1="0"
       id="_Linear2"><stop
         id="stop9065"
         style="stop-color:#fff;stop-opacity:1"
         offset="0%" /><stop
         id="stop9067"
         style="stop-color:#fff;stop-opacity:1"
         offset="34%" /><stop
         id="stop9069"
         style="stop-color:#bebbdb;stop-opacity:1"
         offset="51%" /><stop
         id="stop9071"
         style="stop-color:#928bbe;stop-opacity:1"
         offset="75%" /><stop
         id="stop9073"
         style="stop-color:#9f99c7;stop-opacity:1"
         offset="87%" /><stop
         id="stop9075"
         style="stop-color:#524c76;stop-opacity:1"
         offset="100%" /></linearGradient><radialGradient
       gradientTransform="matrix(36.9132,0,0,28.2927,107.505,89.2005)"
       gradientUnits="userSpaceOnUse"
       r="1"
       cy="0"
       cx="0"
       id="_Radial3"><stop
         id="stop9078"
         style="stop-color:#fff;stop-opacity:1"
         offset="0%" /><stop
         id="stop9080"
         style="stop-color:#fff;stop-opacity:1"
         offset="34%" /><stop
         id="stop9082"
         style="stop-color:#bebbdb;stop-opacity:1"
         offset="51%" /><stop
         id="stop9084"
         style="stop-color:#928bbe;stop-opacity:1"
         offset="75%" /><stop
         id="stop9086"
         style="stop-color:#9f99c7;stop-opacity:1"
         offset="87%" /><stop
         id="stop9088"
         style="stop-color:#524c76;stop-opacity:1"
         offset="100%" /></radialGradient><radialGradient
       gradientTransform="matrix(-5.06038,321.086,-273.845,-4.31164,23.522,98.2549)"
       gradientUnits="userSpaceOnUse"
       r="1"
       cy="0"
       cx="0"
       id="_Radial4"><stop
         id="stop9091"
         style="stop-color:#fff;stop-opacity:1"
         offset="0%" /><stop
         id="stop9093"
         style="stop-color:#fff;stop-opacity:1"
         offset="34%" /><stop
         id="stop9095"
         style="stop-color:#bebbdb;stop-opacity:1"
         offset="51%" /><stop
         id="stop9097"
         style="stop-color:#928bbe;stop-opacity:1"
         offset="75%" /><stop
         id="stop9099"
         style="stop-color:#9f99c7;stop-opacity:1"
         offset="87%" /><stop
         id="stop9101"
         style="stop-color:#524c76;stop-opacity:1"
         offset="100%" /></radialGradient></defs><sodipodi:namedview
     pagecolor="#4075b1"
     bordercolor="#666666"
     borderopacity="1"
     objecttolerance="10"
     gridtolerance="10"
     guidetolerance="10"
     inkscape:pageopacity="0"
     inkscape:pageshadow="2"
     inkscape:window-width="2560"
     inkscape:window-height="1403"
     id="namedview8351"
     showgrid="false"
     inkscape:zoom="2.8284271"
     inkscape:cx="183.1818"
     inkscape:cy="89.418467"
     inkscape:window-x="2560"
     inkscape:window-y="0"
     inkscape:window-maximized="1"
     inkscape:current-layer="g9162"
     showguides="true"
     inkscape:guide-bbox="true"><sodipodi:guide
       position="121.99999,13.999999"
       orientation="0,1"
       id="guide5972"
       inkscape:locked="false" /><inkscape:grid
       type="xygrid"
       id="grid5974" /></sodipodi:namedview><style
     type="text/css"
     id="style8326">
	.st0{fill:#EA5B0C;}
	.st1{fill:#4A4A49;}
</style><g
     style="clip-rule:evenodd;fill-rule:evenodd;stroke-width:5.78998089;stroke-linejoin:round;stroke-miterlimit:1.41420996"
     id="g9162"
     transform="matrix(0.17271214,0,0,0.17271214,8.444181,34.420622)"><g
       style="fill:#ffffff;stroke-width:5.78998089"
       id="g9043"
       transform="translate(-24.564809)"><path
         inkscape:connector-curvature="0"
         d="m 573.027,63.308 h 9.919 v 119.537 c -3.306,-0.07 -6.889,0.137 -10.023,-0.106 V 63.621 c -0.009,-0.148 -0.016,-0.295 0.104,-0.313"
         style="fill:#ffffff;stroke-width:5.78998089"
         id="path9015" /><path
         inkscape:connector-curvature="0"
         d="m 597.979,63.308 h 10.962 V 75.94 h -11.066 c 0.07,-4.176 -0.139,-8.631 0.104,-12.632"
         style="fill:#ffffff;stroke-width:5.78998089"
         id="path9017" /><path
         inkscape:connector-curvature="0"
         d="m 433.134,99.534 h 7.621 v 8.457 h -7.517 c -0.19,18.5 -0.103,39.166 -0.104,58.566 0,2.94 -0.167,5.871 0.836,7.518 1.055,1.734 4.119,2.06 6.785,1.88 v 8.768 c -6.579,0.421 -13.056,0.039 -15.45,-4.489 -2.175,-4.111 -2.089,-10.202 -2.089,-16.496 v -55.747 h -5.428 v -8.457 h 5.428 V 81.16 c 3.239,-1.321 6.785,-2.891 9.918,-3.968 z"
         style="fill:#ffffff;stroke-width:5.78998089"
         id="path9019" /><path
         inkscape:connector-curvature="0"
         d="m 753.846,78.341 h 8.665 v 2.296 h -3.027 c -0.244,8.978 -0.035,18.408 -0.104,27.563 -0.844,-0.062 -1.937,0.126 -2.61,-0.105 V 80.637 h -3.028 c 0.068,-0.731 -0.138,-1.738 0.104,-2.296"
         style="fill:#ffffff;stroke-width:5.78998089"
         id="path9021" /><path
         inkscape:connector-curvature="0"
         d="m 765.33,78.341 h 4.385 c 0.842,9.249 1.934,18.249 2.818,27.457 0.583,-2.126 0.697,-4.434 0.94,-6.682 0.741,-6.884 1.345,-13.929 2.088,-20.775 h 4.385 V 108.2 c -0.742,-0.058 -1.725,0.123 -2.297,-0.105 -0.069,-9.154 0.138,-18.584 -0.105,-27.561 -0.53,0.298 -0.373,1.111 -0.417,1.566 -0.82,8.504 -1.876,17.63 -2.819,26.1 h -3.549 c -1.062,-9.205 -1.857,-18.677 -3.133,-27.666 -0.484,8.786 -0.071,18.475 -0.208,27.666 h -2.192 c 0.069,-9.919 -0.14,-20.116 0.104,-29.859"
         style="fill:#ffffff;stroke-width:5.78998089"
         id="path9023" /><path
         inkscape:connector-curvature="0"
         d="m 286.35,122.814 v 32.99 c 0,5.719 -0.184,11.772 1.879,14.617 1.527,2.103 5.589,2.944 8.039,1.565 3.394,-1.909 3.549,-8.371 3.549,-14.617 v -36.434 c 0,-5.936 0.115,-12.569 -3.759,-14.512 -1.06,-0.531 -3.178,-0.556 -4.175,-0.415 -6.132,0.86 -5.533,9.838 -5.533,16.806 m 13.467,-18.271 c 0.322,-1.626 0.507,-3.39 0.836,-5.009 h 9.291 v 87.694 c 0,7.791 -0.058,14.763 -1.984,19.942 -2.011,5.407 -6.517,8.074 -13.676,8.246 -7.469,0.179 -12.841,-1.693 -15.451,-6.472 -2.511,-4.596 -2.891,-11.123 -2.714,-19.21 h 10.44 c 0.29,5.488 -0.647,11.396 1.462,14.93 1.807,3.03 7.566,3.108 9.708,0.416 2.448,-3.074 2.088,-9.592 2.088,-15.659 v -15.242 c -0.979,1.191 -1.603,2.357 -2.61,3.341 -4.817,4.703 -15.231,4.841 -18.687,-1.044 -2.355,-4.009 -2.401,-10.682 -2.401,-17.331 v -39.462 c 0,-11.007 0.072,-21.328 9.918,-22.133 7.047,-0.576 11.073,2.693 13.78,6.993"
         style="fill:#ffffff;stroke-width:5.78998089"
         id="path9025" /><path
         inkscape:connector-curvature="0"
         d="m 348.258,121.143 c 0,-7.34 0.416,-15.811 -7.203,-15.135 -6.049,0.533 -5.951,8.058 -5.951,14.822 v 16.601 c 4.176,0.243 8.804,0.034 13.154,0.104 z m 10.44,24.848 h -23.594 v 15.346 c 0,4.836 -0.143,10.687 2.087,13.259 2.037,2.347 7.034,2.277 8.979,0 3.449,-4.041 1.512,-13.619 2.088,-20.358 h 10.44 c -0.217,9.403 0.608,17.507 -2.61,23.908 -2.202,4.38 -7.154,6.456 -13.154,6.682 -6.137,0.229 -11.678,-1.256 -14.511,-5.22 -3.297,-4.613 -3.55,-13.199 -3.55,-21.402 v -24.953 c 0,-8.961 -0.431,-17.435 0.94,-24.01 1.543,-7.409 5.482,-11.175 13.572,-11.693 8.245,-0.527 13.826,1.56 16.494,6.472 2.704,4.978 2.819,12.08 2.819,19.627 z"
         style="fill:#ffffff;stroke-width:5.78998089"
         id="path9027" /><path
         inkscape:connector-curvature="0"
         d="m 407.452,182.844 h -9.918 v -57.106 c 0,-5.984 0.619,-13.488 -1.775,-17.227 -2.008,-3.137 -8.162,-3.291 -10.335,-0.104 -2.48,3.637 -1.88,11.303 -1.88,17.226 v 57.211 h -9.918 v -83.31 h 9.292 c 0.245,1.6 0.439,3.25 0.626,4.906 2.324,-3.221 5.391,-6.46 10.649,-6.89 13.435,-1.097 13.259,10.566 13.259,23.176 z"
         style="fill:#ffffff;stroke-width:5.78998089"
         id="path9029" /><path
         inkscape:connector-curvature="0"
         d="m 460.695,123.232 c 0,10.886 0,24.414 0,35.287 0,5.941 -0.492,12.86 1.879,15.869 1.958,2.481 6.857,2.25 8.665,0.625 2.906,-2.61 2.61,-9.946 2.61,-15.973 0,-12.689 0.001,-24.053 0,-37.164 0,-7.626 0.47,-16.766 -7.412,-15.765 -6.494,0.823 -5.742,9.771 -5.742,17.121 m 4.071,-25.578 c 5.931,-0.464 11.53,0.596 14.616,3.549 5.873,5.62 4.907,19.476 4.907,31.217 0.001,6.141 0,12.297 0,18.06 0.001,11.839 0.934,25.581 -5.221,31.006 -3.385,2.985 -9.033,3.795 -14.615,3.236 -5.188,-0.518 -9.336,-2.619 -11.379,-6.68 -2.169,-4.315 -2.58,-10.632 -2.715,-17.436 -0.143,-7.27 0,-13.285 0,-20.043 0,-7.247 -0.316,-13.472 0,-20.149 0.285,-6.006 0.634,-12.946 3.029,-17.017 2.139,-3.639 6.406,-5.354 11.378,-5.743"
         style="fill:#ffffff;stroke-width:5.78998089"
         id="path9031" /><path
         inkscape:connector-curvature="0"
         d="m 509.136,123.755 v 36.434 c 0,5.998 -0.274,13.044 3.027,15.242 2.127,1.417 6.105,0.972 7.621,-0.417 2.851,-2.61 2.506,-10.157 2.506,-16.077 -10e-4,-12.475 0,-24.193 0,-37.166 -10e-4,-7.677 0.41,-16.654 -7.412,-15.659 -6.623,0.839 -5.742,10.235 -5.742,17.643 m 4.071,-26.101 c 7.415,-0.579 14.047,1.159 16.809,6.578 2.97,5.829 2.714,15.851 2.714,25.264 10e-4,9.575 0,18.499 0,27.873 10e-4,9.199 -0.147,18.771 -4.593,23.387 -4.34,4.503 -15.133,5.618 -21.819,2.088 -6.39,-3.375 -7.168,-11.501 -7.517,-21.611 -0.244,-7.055 0,-13.255 0,-19.941 0,-6.805 -0.151,-13.781 0,-20.043 0.146,-6.139 0.558,-13.015 2.714,-17.227 2.097,-4.095 6.452,-5.958 11.692,-6.368"
         style="fill:#ffffff;stroke-width:5.78998089"
         id="path9033" /><path
         inkscape:connector-curvature="0"
         d="m 657.486,182.844 h -9.918 c 10e-4,-18.346 -10e-4,-37.662 0,-56.69 0,-5.993 0.677,-13.366 -1.565,-17.328 -1.468,-2.597 -5.872,-3.822 -8.98,-1.88 -3.815,2.386 -3.339,10.276 -3.339,16.495 v 59.298 c -3.133,0.243 -6.716,0.035 -10.022,0.105 v -83.31 h 9.29 c 0.272,1.573 0.452,3.236 0.626,4.906 2.349,-3.195 5.394,-6.46 10.65,-6.89 13.372,-1.093 13.258,10.381 13.258,23.071 10e-4,20.397 0,43.105 0,62.223"
         style="fill:#ffffff;stroke-width:5.78998089"
         id="path9035" /><path
         inkscape:connector-curvature="0"
         d="m 598.396,99.534 h 9.918 c -0.07,27.736 0.14,55.747 -0.104,83.31 h -9.814 c -0.244,-27.456 -0.034,-55.366 -0.104,-82.997 -0.009,-0.148 -0.018,-0.294 0.104,-0.313"
         style="fill:#ffffff;stroke-width:5.78998089"
         id="path9037" /><path
         inkscape:connector-curvature="0"
         d="m 672.832,99.534 h 9.919 c 0.002,17.894 -0.002,37.717 0,56.688 0,7.36 -1.14,17.744 4.279,19.733 3.185,1.166 6.451,-0.116 7.727,-2.194 2.359,-3.844 1.774,-11.261 1.774,-17.226 -10e-4,-19.007 0.002,-38.493 0,-57.001 h 10.126 v 83.205 c -2.888,0.243 -6.227,0.035 -9.291,0.105 -0.375,-1.573 -0.577,-3.321 -0.835,-5.011 -2.139,3.971 -6.888,7.06 -13.259,6.786 -10.625,-0.459 -10.545,-11.528 -10.544,-22.864 0.002,-20.539 -0.002,-41.962 0,-61.908 -0.009,-0.148 -0.018,-0.294 0.104,-0.313"
         style="fill:#ffffff;stroke-width:5.78998089"
         id="path9039" /><path
         inkscape:connector-curvature="0"
         d="m 716.994,99.534 h 10.334 c 2.417,10.145 4.773,20.352 7.1,30.588 2.451,-10.077 4.67,-20.385 6.995,-30.588 h 9.5 c -3.514,12.367 -6.88,24.96 -10.439,37.689 -0.242,0.86 -0.719,1.771 -0.731,2.399 -0.028,1.307 1.179,4.081 1.566,5.429 3.619,12.62 7.127,25.314 10.752,37.793 h -10.752 c -2.735,-11.428 -5.515,-22.812 -8.143,-34.348 -2.843,11.323 -5.461,22.867 -8.144,34.348 h -9.499 c 3.635,-12.486 7.165,-25.186 10.856,-38.001 0.505,-1.753 1.545,-3.822 1.567,-5.325 0.017,-1.353 -0.913,-3.403 -1.358,-5.011 -3.205,-11.569 -6.396,-23.236 -9.604,-34.66 0.021,-0.18 -0.178,-0.271 0,-0.313"
         style="fill:#ffffff;stroke-width:5.78998089"
         id="path9041" /></g><g
       style="stroke-width:5.78998089"
       id="g5680"
       transform="translate(-24.564809)"><path
         inkscape:connector-curvature="0"
         id="path2973"
         d="m 20.077,215.07 c 0.024,-9.23 7.87,-22.116 19.019,-33.822 7.45,-7.824 15.016,-14.691 31.511,-28.755 -11.41,-6.26 -29.154,-13.813 -38.058,-23.705 -3.294,-3.661 -9.266,-11.953 -8.107,-23.032 2.36,-22.58 30.231,-56.848 69.846,-64.092 13.181,-2.411 28.315,-0.671 40.771,4.929 39.075,17.567 86.863,61.211 92.743,82.522 2.069,7.5 1.671,19.457 -1.896,26.12 -4.422,8.259 -19.73,25.033 -40.673,42.342 -32.862,27.159 -78.911,56.321 -113.295,61.229 -11.111,1.585 -22.462,-0.069 -30.427,-4.563 C 29.047,247.21 24.91,237.821 23.456,235.007 19.589,227.523 20.069,218.043 20.077,215.07 Z m 92.485,-103.696 c 0.424,-5.233 20.945,-0.023 19.648,4.121 -1.368,4.372 -20.135,1.883 -19.648,-4.121 z"
         style="fill:url(#_Linear1);stroke-width:5.78998089" /><g
         style="stroke-width:5.78998089"
         id="mid"><path
           inkscape:connector-curvature="0"
           id="path2975"
           d="m 81.713,143.846 c -10.799,9.118 -17.979,15.265 -26.98,23.492 -21.677,19.812 -36.405,34.893 -28.812,55.508 8.76,23.78 27.961,22.574 50.478,18.154 58.04,-11.447 153.446,-84.794 148.583,-111.885 -3.935,-21.922 -57.237,-65.504 -88.796,-81.013 -9.86,-4.845 -21.222,-7.351 -32.619,-6.814 -43.396,2.048 -77.285,41.557 -75.554,62.964 1.684,20.827 54.321,38.973 53.7,39.594 z M 75.199,71.142 c -13.058,14.528 -4.709,42.636 16.945,57.957 25.339,17.927 66.372,21.173 74.538,7.347 15.231,-25.787 -1.399,-53.055 -26.223,-65.218 -24.531,-12.02 -57.121,-9.142 -65.26,-0.086 z"
           style="fill:url(#_Linear2);stroke-width:5.78998089" /><path
           inkscape:connector-curvature="0"
           id="path4976"
           d="m 119.731,128.489 c 18.331,2.548 34.133,-4.793 36.604,-22.895 1.882,-13.789 -19.222,-28.855 -31.91,-32.33 -10.595,-2.902 -33.598,0.83 -35.149,20.869 -1.612,20.832 19.765,32.871 30.455,34.356 z m -8.978,-34.647 c -12.047,18.664 17.493,24.402 22.015,20.998 19.498,-14.674 -16.707,-29.221 -22.015,-20.998 z"
           style="fill:url(#_Radial3);stroke-width:5.78998089" /></g><path
         inkscape:connector-curvature="0"
         id="path2977"
         d="m 100.069,46.247 c -21.311,2.246 -25.392,4.988 -44.698,19.595 -6.47,4.895 -18.379,16.807 -21.43,30.938 -1.163,5.382 0.211,10.028 4.087,13.286 12.411,10.435 33.184,18.9 50.226,27.083 4.991,2.397 1.686,6.743 -6.363,13.712 -20.312,17.584 -47.773,38.989 -49.69,55.299 -0.904,7.686 1.727,18.13 11.056,23.475 10.898,6.243 33.52,2.168 48.626,-3.457 22.074,-8.22 51.07,-26.361 74.09,-44.193 23.938,-18.544 46.196,-42.096 47.297,-45.938 1.352,-4.717 1.217,-9.074 -1.392,-14.083 -4.097,-7.866 -9.575,-13.712 -15.457,-20.254 C 180.639,85.072 163.942,70.453 143.964,59.25 129.537,51.159 116.844,44.479 100.069,46.247 Z m 31.304,37.3 c 15.396,7.444 31.206,26.995 -0.137,38.248 -8.523,3.06 -35.554,-7.515 -34.726,-21.946 1.206,-21.319 16.064,-25.39 34.863,-16.302 z"
         style="fill:url(#_Radial4);stroke-width:5.78998089" /></g></g></svg>