<?xml version="1.0" encoding="UTF-8" standalone="no"?>
<!-- Generator: Adobe Illustrator 19.2.0, SVG Export Plug-In . SVG Version: 6.00 Build 0)  -->

<svg
   xmlns:dc="http://purl.org/dc/elements/1.1/"
   xmlns:cc="http://creativecommons.org/ns#"
   xmlns:rdf="http://www.w3.org/1999/02/22-rdf-syntax-ns#"
   xmlns:svg="http://www.w3.org/2000/svg"
   xmlns="http://www.w3.org/2000/svg"
   xmlns:sodipodi="http://sodipodi.sourceforge.net/DTD/sodipodi-0.dtd"
   xmlns:inkscape="http://www.inkscape.org/namespaces/inkscape"
   version="1.1"
   id="Layer_1"
   x="0px"
   y="0px"
   viewBox="0 0 109.99999 80"
   xml:space="preserve"
   sodipodi:docname="mageia.svg"
   width="110"
   height="80"
   inkscape:version="0.92pre1 r"><metadata
     id="metadata8355"><rdf:RDF><cc:Work
         rdf:about=""><dc:format>image/svg+xml</dc:format><dc:type
           rdf:resource="http://purl.org/dc/dcmitype/StillImage" /><dc:title></dc:title></cc:Work></rdf:RDF></metadata><defs
     id="defs8353"><linearGradient
       gradientTransform="matrix(137.32,719.201,-719.201,137.32,-12.7656,-459.807)"
       gradientUnits="userSpaceOnUse"
       y2="0"
       x2="1"
       y1="0"
       x1="0"
       id="_Linear1"><stop
         id="stop9052"
         style="stop-color:#fff;stop-opacity:1"
         offset="0%" /><stop
         id="stop9054"
         style="stop-color:#fff;stop-opacity:1"
         offset="34%" /><stop
         id="stop9056"
         style="stop-color:#bebdf3;stop-opacity:1"
         offset="51%" /><stop
         id="stop9058"
         style="stop-color:#867fb7;stop-opacity:1"
         offset="75%" /><stop
         id="stop9060"
         style="stop-color:#9f99c7;stop-opacity:1"
         offset="87%" /><stop
         id="stop9062"
         style="stop-color:#524c76;stop-opacity:1"
         offset="100%" /></linearGradient><linearGradient
       gradientTransform="matrix(-41.4782,-185.977,185.977,-41.4782,156.163,202.263)"
       gradientUnits="userSpaceOnUse"
       y2="0"
       x2="1"
       y1="0"
       x1="0"
       id="_Linear2"><stop
         id="stop9065"
         style="stop-color:#fff;stop-opacity:1"
         offset="0%" /><stop
         id="stop9067"
         style="stop-color:#fff;stop-opacity:1"
         offset="34%" /><stop
         id="stop9069"
         style="stop-color:#bebbdb;stop-opacity:1"
         offset="51%" /><stop
         id="stop9071"
         style="stop-color:#928bbe;stop-opacity:1"
         offset="75%" /><stop
         id="stop9073"
         style="stop-color:#9f99c7;stop-opacity:1"
         offset="87%" /><stop
         id="stop9075"
         style="stop-color:#524c76;stop-opacity:1"
         offset="100%" /></linearGradient><radialGradient
       gradientTransform="matrix(36.9132,0,0,28.2927,107.505,89.2005)"
       gradientUnits="userSpaceOnUse"
       r="1"
       cy="0"
       cx="0"
       id="_Radial3"><stop
         id="stop9078"
         style="stop-color:#fff;stop-opacity:1"
         offset="0%" /><stop
         id="stop9080"
         style="stop-color:#fff;stop-opacity:1"
         offset="34%" /><stop
         id="stop9082"
         style="stop-color:#bebbdb;stop-opacity:1"
         offset="51%" /><stop
         id="stop9084"
         style="stop-color:#928bbe;stop-opacity:1"
         offset="75%" /><stop
         id="stop9086"
         style="stop-color:#9f99c7;stop-opacity:1"
         offset="87%" /><stop
         id="stop9088"
         style="stop-color:#524c76;stop-opacity:1"
         offset="100%" /></radialGradient><radialGradient
       gradientTransform="matrix(-5.06038,321.086,-273.845,-4.31164,23.522,98.2549)"
       gradientUnits="userSpaceOnUse"
       r="1"
       cy="0"
       cx="0"
       id="_Radial4"><stop
         id="stop9091"
         style="stop-color:#fff;stop-opacity:1"
         offset="0%" /><stop
         id="stop9093"
         style="stop-color:#fff;stop-opacity:1"
         offset="34%" /><stop
         id="stop9095"
         style="stop-color:#bebbdb;stop-opacity:1"
         offset="51%" /><stop
         id="stop9097"
         style="stop-color:#928bbe;stop-opacity:1"
         offset="75%" /><stop
         id="stop9099"
         style="stop-color:#9f99c7;stop-opacity:1"
         offset="87%" /><stop
         id="stop9101"
         style="stop-color:#524c76;stop-opacity:1"
         offset="100%" /></radialGradient><linearGradient
       gradientTransform="matrix(1,0,0,-1,-0.80292847,1022.6884)"
       gradientUnits="userSpaceOnUse"
       id="SVGID_12_"
       y2="253.84129"
       x2="-51.767601"
       y1="235.84129"
       x1="-51.767601"><stop
         offset="0"
         style="stop-color:#2397d4;stop-opacity:1"
         id="stop83" /><stop
         offset="1"
         style="stop-color:#65e7ff;stop-opacity:1"
         id="stop85" /></linearGradient><linearGradient
       gradientTransform="matrix(1,0,0,-1,-0.80292847,1022.6884)"
       gradientUnits="userSpaceOnUse"
       id="SVGID_11_"
       y2="265.84329"
       x2="-75.768997"
       y1="249.84129"
       x1="-75.768997"><stop
         offset="0"
         style="stop-color:#2397d4;stop-opacity:1"
         id="stop76" /><stop
         offset="1"
         style="stop-color:#65e7ff;stop-opacity:1"
         id="stop78" /></linearGradient><linearGradient
       gradientTransform="matrix(1,0,0,-1,-0.80292847,1022.6884)"
       gradientUnits="userSpaceOnUse"
       id="SVGID_10_"
       y2="220.8394"
       x2="-48.767601"
       y1="198.83839"
       x1="-48.767601"><stop
         offset="0"
         style="stop-color:#2397d4;stop-opacity:1"
         id="stop69" /><stop
         offset="1"
         style="stop-color:#65e7ff;stop-opacity:1"
         id="stop71" /></linearGradient><linearGradient
       gradientTransform="matrix(1,0,0,-1,-0.80292847,1022.6884)"
       gradientUnits="userSpaceOnUse"
       id="SVGID_9_"
       y2="237.84129"
       x2="-70.767601"
       y1="217.8394"
       x1="-70.767601"><stop
         offset="0"
         style="stop-color:#2397d4;stop-opacity:1"
         id="stop62" /><stop
         offset="1"
         style="stop-color:#65e7ff;stop-opacity:1"
         id="stop64" /></linearGradient><linearGradient
       gradientTransform="matrix(1,0,0,-1,-0.80292847,1022.6884)"
       gradientUnits="userSpaceOnUse"
       id="SVGID_8_"
       y2="214.8394"
       x2="-84.767601"
       y1="190.83839"
       x1="-84.767601"><stop
         offset="0"
         style="stop-color:#2397d4;stop-opacity:1"
         id="stop55" /><stop
         offset="1"
         style="stop-color:#65e7ff;stop-opacity:1"
         id="stop57" /></linearGradient><linearGradient
       gradientTransform="matrix(1,0,0,-1,214.5,339.5771)"
       gradientUnits="userSpaceOnUse"
       id="SVGID_7_"
       y2="193.83791"
       x2="-68.769096"
       y1="67.834"
       x1="-68.768997"><stop
         offset="0"
         style="stop-color:#252d42;stop-opacity:1"
         id="stop48" /><stop
         offset="1"
         style="stop-color:#485e82;stop-opacity:1"
         id="stop50" /></linearGradient><linearGradient
       gradientTransform="matrix(1.2857964,0,0,-1.2857964,258.25103,1168.7191)"
       gradientUnits="userSpaceOnUse"
       id="SVGID_13_"
       y2="191.8867"
       x2="421.94781"
       y1="169.6572"
       x1="421.94781"><stop
         offset="0"
         style="stop-color:#2397d4;stop-opacity:1"
         id="stop4379" /><stop
         offset="1"
         style="stop-color:#65e7ff;stop-opacity:1"
         id="stop4381" /></linearGradient><linearGradient
       gradientTransform="matrix(1.2857964,0,0,-1.2857964,258.25103,1168.7191)"
       gradientUnits="userSpaceOnUse"
       id="SVGID_12_-6"
       y2="253.84129"
       x2="-51.767601"
       y1="235.84129"
       x1="-51.767601"><stop
         offset="0"
         style="stop-color:#2397d4;stop-opacity:1"
         id="stop4372" /><stop
         offset="1"
         style="stop-color:#65e7ff;stop-opacity:1"
         id="stop4374" /></linearGradient><linearGradient
       gradientTransform="matrix(1.2857964,0,0,-1.2857964,258.25103,1168.7191)"
       gradientUnits="userSpaceOnUse"
       id="SVGID_11_-6"
       y2="265.84329"
       x2="-75.768997"
       y1="249.84129"
       x1="-75.768997"><stop
         offset="0"
         style="stop-color:#2397d4;stop-opacity:1"
         id="stop4365" /><stop
         offset="1"
         style="stop-color:#65e7ff;stop-opacity:1"
         id="stop4367" /></linearGradient><linearGradient
       gradientTransform="matrix(1.2857964,0,0,-1.2857964,258.25103,1168.7191)"
       gradientUnits="userSpaceOnUse"
       id="SVGID_10_-9"
       y2="220.8394"
       x2="-48.767601"
       y1="198.83839"
       x1="-48.767601"><stop
         offset="0"
         style="stop-color:#2397d4;stop-opacity:1"
         id="stop4358" /><stop
         offset="1"
         style="stop-color:#65e7ff;stop-opacity:1"
         id="stop4360" /></linearGradient><linearGradient
       gradientTransform="matrix(1.2857964,0,0,-1.2857964,258.25103,1168.7191)"
       gradientUnits="userSpaceOnUse"
       id="SVGID_9_-9"
       y2="237.84129"
       x2="-70.767601"
       y1="217.8394"
       x1="-70.767601"><stop
         offset="0"
         style="stop-color:#2397d4;stop-opacity:1"
         id="stop4351" /><stop
         offset="1"
         style="stop-color:#65e7ff;stop-opacity:1"
         id="stop4353" /></linearGradient><linearGradient
       gradientTransform="matrix(1.2857964,0,0,-1.2857964,258.25103,1168.7191)"
       gradientUnits="userSpaceOnUse"
       id="SVGID_8_-1"
       y2="214.8394"
       x2="-84.767601"
       y1="190.83839"
       x1="-84.767601"><stop
         offset="0"
         style="stop-color:#2397d4;stop-opacity:1"
         id="stop4344" /><stop
         offset="1"
         style="stop-color:#65e7ff;stop-opacity:1"
         id="stop4346" /></linearGradient><linearGradient
       gradientTransform="matrix(1.2857964,0,0,-1.2857964,258.25103,1168.7191)"
       gradientUnits="userSpaceOnUse"
       id="SVGID_6_"
       y2="161.147"
       x2="421.94781"
       y1="87.412102"
       x1="421.94781"><stop
         offset="0"
         style="stop-color:#252d42;stop-opacity:1"
         id="stop4328" /><stop
         offset="1"
         style="stop-color:#485e82;stop-opacity:1"
         id="stop4330" /></linearGradient><linearGradient
       gradientTransform="matrix(1.2857964,0,0,-1.2857964,258.25103,1168.7191)"
       gradientUnits="userSpaceOnUse"
       id="SVGID_5_"
       y2="161.1479"
       x2="89.801804"
       y1="87.414101"
       x1="89.801804"><stop
         offset="0"
         style="stop-color:#252d42;stop-opacity:1"
         id="stop4321" /><stop
         offset="1"
         style="stop-color:#485e82;stop-opacity:1"
         id="stop4323" /></linearGradient><linearGradient
       gradientTransform="matrix(1.2857964,0,0,-1.2857964,258.25103,1168.7191)"
       gradientUnits="userSpaceOnUse"
       id="SVGID_4_"
       y2="161.14841"
       x2="363.0806"
       y1="87.414101"
       x1="363.0806"><stop
         offset="0"
         style="stop-color:#252d42;stop-opacity:1"
         id="stop4314" /><stop
         offset="1"
         style="stop-color:#485e82;stop-opacity:1"
         id="stop4316" /></linearGradient><linearGradient
       gradientTransform="matrix(1.2857964,0,0,-1.2857964,258.25103,1168.7191)"
       gradientUnits="userSpaceOnUse"
       id="SVGID_3_"
       y2="161.147"
       x2="481.40869"
       y1="87.414101"
       x1="481.40869"><stop
         offset="0"
         style="stop-color:#252d42;stop-opacity:1"
         id="stop4307" /><stop
         offset="1"
         style="stop-color:#485e82;stop-opacity:1"
         id="stop4309" /></linearGradient><linearGradient
       gradientTransform="matrix(1.2857964,0,0,-1.2857964,258.25103,1168.7191)"
       gradientUnits="userSpaceOnUse"
       id="SVGID_2_"
       y2="161.147"
       x2="191.85789"
       y1="87.414101"
       x1="191.85789"><stop
         offset="0"
         style="stop-color:#252d42;stop-opacity:1"
         id="stop4300" /><stop
         offset="1"
         style="stop-color:#485e82;stop-opacity:1"
         id="stop4302" /></linearGradient><linearGradient
       gradientTransform="matrix(1,0,0,-1,214.5,339.5771)"
       gradientUnits="userSpaceOnUse"
       id="SVGID_1_"
       y2="162.6368"
       x2="277.86081"
       y1="84.733398"
       x1="277.86081"><stop
         offset="0"
         style="stop-color:#252d42;stop-opacity:1"
         id="stop4293" /><stop
         offset="1"
         style="stop-color:#485e82;stop-opacity:1"
         id="stop4295" /></linearGradient></defs><sodipodi:namedview
     pagecolor="#4075b1"
     bordercolor="#666666"
     borderopacity="1"
     objecttolerance="10"
     gridtolerance="10"
     guidetolerance="10"
     inkscape:pageopacity="0"
     inkscape:pageshadow="2"
     inkscape:window-width="2560"
     inkscape:window-height="1403"
     id="namedview8351"
     showgrid="false"
     inkscape:zoom="11.313708"
     inkscape:cx="58.100211"
     inkscape:cy="35.61362"
     inkscape:window-x="2560"
     inkscape:window-y="0"
     inkscape:window-maximized="1"
     inkscape:current-layer="layer1"
     showguides="true"
     inkscape:guide-bbox="true"><sodipodi:guide
       position="121.99999,13.999999"
       orientation="0,1"
       id="guide5972"
       inkscape:locked="false" /><inkscape:grid
       type="xygrid"
       id="grid5974" /></sodipodi:namedview><style
     type="text/css"
     id="style8326">
	.st0{fill:#EA5B0C;}
	.st1{fill:#4A4A49;}
</style><g
     style="clip-rule:evenodd;fill-rule:evenodd;stroke-width:5.78998089;stroke-linejoin:round;stroke-miterlimit:1.41420996"
     id="g9162"
     transform="matrix(0.17271214,0,0,0.17271214,8.444181,34.420622)"><g
       id="layer1"
       transform="matrix(0.72303974,0,0,0.72303974,-98.050165,-330.47173)"
       style="stroke-width:46.36519241"><path
         style="fill:#89caec;fill-opacity:1;stroke:none;stroke-width:46.36519241"
         id="path9360-1"
         d="m 791,745.27883 c -4.97059,0 -9,-4.02943 -9,-9.00003 0,-4.9705 4.02941,-8.99993 9,-8.99993 4.97048,0 9,4.02943 9,8.99993 0,4.9706 -4.02952,9.00003 -9,9.00003 z"
         inkscape:connector-curvature="0" /><g
         id="g5423"
         transform="translate(-0.20803944,7.0000505)"
         style="stroke-width:46.36519241"><path
           style="fill:#89caec;fill-opacity:1;stroke-width:46.36519241"
           id="path3042-0-6-4"
           d="m 177.89056,597.12767 h -0.01 c -6.6729,0 -12.10712,-5.42671 -12.11419,-12.09501 -0.01,-6.69051 5.42514,-12.12528 12.1041,-12.13236 6.68298,0 12.1162,5.42671 12.12426,12.09501 0,6.69052 -5.42512,12.1263 -12.10408,12.13337 v 0 z"
           inkscape:connector-curvature="0" /><path
           style="fill:#89caec;fill-opacity:1;stroke-width:46.36519241"
           id="path3056-6-4-1"
           d="m 210.60812,588.24494 c -6.23094,0 -11.30246,-5.06615 -11.30657,-11.29167 -0.01,-6.24198 5.06123,-11.31635 11.2963,-11.32148 6.23916,0 11.31068,5.0651 11.31683,11.29063 0,6.24197 -5.06224,11.31635 -11.29628,11.32252 h -0.01 z"
           inkscape:connector-curvature="0" /><path
           style="fill:#89caec;fill-opacity:1;stroke-width:46.36519241"
           id="path4104"
           transform="matrix(1.4421651,0,0,1.4421651,215.7232,578.60266)"
           d="m -10,-15.700835 a 7,7 0 1 1 -14,0 7,7 0 1 1 14,0 z"
           inkscape:connector-curvature="0" /><path
           style="fill:#89caec;fill-opacity:1;stroke-width:46.36519241"
           id="path4106"
           transform="matrix(0.80761247,0,0,0.80761247,140.73061,552.34319)"
           d="m 94,-16.522263 a 11.5,11.5 0 1 1 -23,0 11.5,11.5 0 1 1 23,0 z"
           inkscape:connector-curvature="0" /><path
           style="fill:#89caec;fill-opacity:1;stroke-width:46.36519241"
           id="path4132"
           transform="matrix(0.76915473,0,0,0.76915473,187.18756,551.30398)"
           d="m 11,-37.522263 a 10.5,10.5 0 1 1 -21,0 10.5,10.5 0 1 1 21,0 z"
           inkscape:connector-curvature="0" /></g><path
         style="fill:#ffffff;fill-opacity:1;stroke:none;stroke-width:46.36519241"
         id="path4687-7-56-1-0-2-2-7"
         d="m 346,632.27885 c -24,0 -42,18 -42,42 v 40 h 12 v -40 c 0,-18 12,-30 30,-30 18,0 30,12 30,30 v 40 h 12 v -40 c 0,-18 12,-30 30,-30 18,0 30,12 30,30 v 40 h 12 v -40 c 0,-24 -18,-42 -42,-42 -15.66528,0 -28.78428,7.6868 -36,19.6874 -7.21572,-12.0006 -20.33472,-19.6874 -36,-19.6874 z"
         inkscape:connector-curvature="0" /><path
         style="fill:#ffffff;fill-opacity:1;stroke:none;stroke-width:46.36519241"
         id="path4687-7-56-1-8"
         d="m 521,632.27885 c -24,0 -42,18 -42,42 0,24 18,42 42,42 12,0 22.5,-4.5 30,-12 v 10 h 12 v 0 -40 c 0,-24 -18,-42 -42,-42 z m 0,12 c 18,0 30,12 30,30 0,18 -12,30 -30,30 -18,0 -30,-12 -30,-30 0,-18 12,-30 30,-30 z"
         inkscape:connector-curvature="0" /><path
         style="fill:#ffffff;fill-opacity:1;stroke:none;stroke-width:46.36519241"
         id="path4687-7-56-1-0-6-7"
         d="m 725,632.27885 c -24,0 -42,18 -42,42 0,24 18,42 42,42 v -12 c -15.90756,0 -27.10606,-9.3968 -29.5,-24 3.5,0 65.5,0 71.125,0 0.25558,-1.9564 0.375,-3.9482 0.375,-6 0,-24 -18,-42 -42,-42 z m 0,12 c 15.90756,0 27.10606,9.397 29.5,24 h -59 c 2.39394,-14.603 13.59244,-24 29.5,-24 z"
         inkscape:connector-curvature="0" /><path
         style="fill:#ffffff;fill-opacity:1;stroke:none;stroke-width:46.36519241"
         id="rect4708-59-5-7-0"
         d="m 785,634.27885 c 3,0 9,0 12,0 v 80 c -3,0 -9,0 -12,0 z"
         inkscape:connector-curvature="0" /><path
         style="fill:#ffffff;fill-opacity:1;stroke:none;stroke-width:46.36519241"
         id="path4687-7-56-1-8-5"
         d="m 857,632.27885 c -24,0 -42,18 -42,42 0,24 18,42 42,42 12,0 22.5,-4.5 30,-12 v 10 h 12 v 0 -40 c 0,-24 -18,-42 -42,-42 z m 0,12 c 18,0 30,12 30,30 0,18 -12,30 -30,30 -18,0 -30,-12 -30,-30 0,-18 12,-30 30,-30 z"
         inkscape:connector-curvature="0" /><path
         style="fill:#ffffff;fill-opacity:1;stroke:none;stroke-width:46.36519241"
         id="path4687-7-56-1-0-55"
         d="m 623,632.27885 c -24,0 -42,18 -42,42 0,24 18,42 42,42 12,0 22.5,-4.5 30,-12 v 12 c 0,18 -12,30 -30,30 v 12 c 24,0 42,-18 42,-42 v -42 c 0,-24 -18,-42 -42,-42 z m 0,12 c 18,0 30,12 30,30 0,18 -12,30 -30,30 -18,0 -30,-12 -30,-30 0,-18 12,-30 30,-30 z"
         inkscape:connector-curvature="0" /><path
         style="color:#000000;font-style:normal;font-variant:normal;font-weight:normal;font-stretch:normal;font-size:medium;line-height:normal;font-family:Sans;-inkscape-font-specification:Sans;text-indent:0;text-align:start;text-decoration:none;text-decoration-line:none;letter-spacing:normal;word-spacing:normal;text-transform:none;writing-mode:lr-tb;direction:ltr;baseline-shift:baseline;text-anchor:start;display:inline;overflow:visible;visibility:visible;fill:#ffffff;fill-opacity:1;stroke:none;stroke-width:112.10964966;marker:none;enable-background:accumulate"
         id="path3347-1"
         d="M 143.92581,615.04098 C 133.47541,628.58646 125,643.82201 125,662.2789 c 0,40.00634 30.35843,73 68,73 37.64044,0 68,-32.99349 68,-73 0,-18.46054 -8.48889,-33.21199 -19.53017,-47.2379 -4.14024,-4.34463 -10.11757,-3.69864 -14.46899,-0.91856 -12.73296,6.58855 -19.60609,9.22094 -34.00084,9.15646 -13.92202,-0.0624 -21.23667,-2.33602 -33.97033,-9.27735 -4.35142,-2.65919 -10.96363,-3.3052 -15.10386,1.03943 z M 153,626.2789 c 13.19828,7.29754 24.96911,11 40,11 15.0436,0 26.79494,-3.70251 40,-11 7.2055,10.15985 14,22.7579 14,36 0,32.80129 -24.17531,59 -54,59 -29.82612,0 -55,-26.19854 -55,-59 0,-13.22462 7.77879,-25.8322 15,-36 z"
         inkscape:connector-curvature="0" /></g></g></svg>