<?xml version="1.0" encoding="UTF-8" standalone="no"?>
<!-- Generator: Adobe Illustrator 19.2.0, SVG Export Plug-In . SVG Version: 6.00 Build 0)  -->

<svg
   xmlns:dc="http://purl.org/dc/elements/1.1/"
   xmlns:cc="http://creativecommons.org/ns#"
   xmlns:rdf="http://www.w3.org/1999/02/22-rdf-syntax-ns#"
   xmlns:svg="http://www.w3.org/2000/svg"
   xmlns="http://www.w3.org/2000/svg"
   xmlns:sodipodi="http://sodipodi.sourceforge.net/DTD/sodipodi-0.dtd"
   xmlns:inkscape="http://www.inkscape.org/namespaces/inkscape"
   version="1.1"
   id="Layer_1"
   x="0px"
   y="0px"
   viewBox="0 0 79.99999 80"
   xml:space="preserve"
   sodipodi:docname="opensuse.svg"
   width="80"
   height="80"
   inkscape:version="0.92pre1 r"><metadata
     id="metadata8355"><rdf:RDF><cc:Work
         rdf:about=""><dc:format>image/svg+xml</dc:format><dc:type
           rdf:resource="http://purl.org/dc/dcmitype/StillImage" /><dc:title></dc:title></cc:Work></rdf:RDF></metadata><defs
     id="defs8353"><linearGradient
       gradientTransform="matrix(137.32,719.201,-719.201,137.32,-12.7656,-459.807)"
       gradientUnits="userSpaceOnUse"
       y2="0"
       x2="1"
       y1="0"
       x1="0"
       id="_Linear1"><stop
         id="stop9052"
         style="stop-color:#fff;stop-opacity:1"
         offset="0%" /><stop
         id="stop9054"
         style="stop-color:#fff;stop-opacity:1"
         offset="34%" /><stop
         id="stop9056"
         style="stop-color:#bebdf3;stop-opacity:1"
         offset="51%" /><stop
         id="stop9058"
         style="stop-color:#867fb7;stop-opacity:1"
         offset="75%" /><stop
         id="stop9060"
         style="stop-color:#9f99c7;stop-opacity:1"
         offset="87%" /><stop
         id="stop9062"
         style="stop-color:#524c76;stop-opacity:1"
         offset="100%" /></linearGradient><linearGradient
       gradientTransform="matrix(-41.4782,-185.977,185.977,-41.4782,156.163,202.263)"
       gradientUnits="userSpaceOnUse"
       y2="0"
       x2="1"
       y1="0"
       x1="0"
       id="_Linear2"><stop
         id="stop9065"
         style="stop-color:#fff;stop-opacity:1"
         offset="0%" /><stop
         id="stop9067"
         style="stop-color:#fff;stop-opacity:1"
         offset="34%" /><stop
         id="stop9069"
         style="stop-color:#bebbdb;stop-opacity:1"
         offset="51%" /><stop
         id="stop9071"
         style="stop-color:#928bbe;stop-opacity:1"
         offset="75%" /><stop
         id="stop9073"
         style="stop-color:#9f99c7;stop-opacity:1"
         offset="87%" /><stop
         id="stop9075"
         style="stop-color:#524c76;stop-opacity:1"
         offset="100%" /></linearGradient><radialGradient
       gradientTransform="matrix(36.9132,0,0,28.2927,107.505,89.2005)"
       gradientUnits="userSpaceOnUse"
       r="1"
       cy="0"
       cx="0"
       id="_Radial3"><stop
         id="stop9078"
         style="stop-color:#fff;stop-opacity:1"
         offset="0%" /><stop
         id="stop9080"
         style="stop-color:#fff;stop-opacity:1"
         offset="34%" /><stop
         id="stop9082"
         style="stop-color:#bebbdb;stop-opacity:1"
         offset="51%" /><stop
         id="stop9084"
         style="stop-color:#928bbe;stop-opacity:1"
         offset="75%" /><stop
         id="stop9086"
         style="stop-color:#9f99c7;stop-opacity:1"
         offset="87%" /><stop
         id="stop9088"
         style="stop-color:#524c76;stop-opacity:1"
         offset="100%" /></radialGradient><radialGradient
       gradientTransform="matrix(-5.06038,321.086,-273.845,-4.31164,23.522,98.2549)"
       gradientUnits="userSpaceOnUse"
       r="1"
       cy="0"
       cx="0"
       id="_Radial4"><stop
         id="stop9091"
         style="stop-color:#fff;stop-opacity:1"
         offset="0%" /><stop
         id="stop9093"
         style="stop-color:#fff;stop-opacity:1"
         offset="34%" /><stop
         id="stop9095"
         style="stop-color:#bebbdb;stop-opacity:1"
         offset="51%" /><stop
         id="stop9097"
         style="stop-color:#928bbe;stop-opacity:1"
         offset="75%" /><stop
         id="stop9099"
         style="stop-color:#9f99c7;stop-opacity:1"
         offset="87%" /><stop
         id="stop9101"
         style="stop-color:#524c76;stop-opacity:1"
         offset="100%" /></radialGradient><linearGradient
       gradientTransform="matrix(1,0,0,-1,-0.80292847,1022.6884)"
       gradientUnits="userSpaceOnUse"
       id="SVGID_12_"
       y2="253.84129"
       x2="-51.767601"
       y1="235.84129"
       x1="-51.767601"><stop
         offset="0"
         style="stop-color:#2397d4;stop-opacity:1"
         id="stop83" /><stop
         offset="1"
         style="stop-color:#65e7ff;stop-opacity:1"
         id="stop85" /></linearGradient><linearGradient
       gradientTransform="matrix(1,0,0,-1,-0.80292847,1022.6884)"
       gradientUnits="userSpaceOnUse"
       id="SVGID_11_"
       y2="265.84329"
       x2="-75.768997"
       y1="249.84129"
       x1="-75.768997"><stop
         offset="0"
         style="stop-color:#2397d4;stop-opacity:1"
         id="stop76" /><stop
         offset="1"
         style="stop-color:#65e7ff;stop-opacity:1"
         id="stop78" /></linearGradient><linearGradient
       gradientTransform="matrix(1,0,0,-1,-0.80292847,1022.6884)"
       gradientUnits="userSpaceOnUse"
       id="SVGID_10_"
       y2="220.8394"
       x2="-48.767601"
       y1="198.83839"
       x1="-48.767601"><stop
         offset="0"
         style="stop-color:#2397d4;stop-opacity:1"
         id="stop69" /><stop
         offset="1"
         style="stop-color:#65e7ff;stop-opacity:1"
         id="stop71" /></linearGradient><linearGradient
       gradientTransform="matrix(1,0,0,-1,-0.80292847,1022.6884)"
       gradientUnits="userSpaceOnUse"
       id="SVGID_9_"
       y2="237.84129"
       x2="-70.767601"
       y1="217.8394"
       x1="-70.767601"><stop
         offset="0"
         style="stop-color:#2397d4;stop-opacity:1"
         id="stop62" /><stop
         offset="1"
         style="stop-color:#65e7ff;stop-opacity:1"
         id="stop64" /></linearGradient><linearGradient
       gradientTransform="matrix(1,0,0,-1,-0.80292847,1022.6884)"
       gradientUnits="userSpaceOnUse"
       id="SVGID_8_"
       y2="214.8394"
       x2="-84.767601"
       y1="190.83839"
       x1="-84.767601"><stop
         offset="0"
         style="stop-color:#2397d4;stop-opacity:1"
         id="stop55" /><stop
         offset="1"
         style="stop-color:#65e7ff;stop-opacity:1"
         id="stop57" /></linearGradient><linearGradient
       gradientTransform="matrix(1,0,0,-1,214.5,339.5771)"
       gradientUnits="userSpaceOnUse"
       id="SVGID_7_"
       y2="193.83791"
       x2="-68.769096"
       y1="67.834"
       x1="-68.768997"><stop
         offset="0"
         style="stop-color:#252d42;stop-opacity:1"
         id="stop48" /><stop
         offset="1"
         style="stop-color:#485e82;stop-opacity:1"
         id="stop50" /></linearGradient><linearGradient
       gradientTransform="matrix(1.2857964,0,0,-1.2857964,258.25103,1168.7191)"
       gradientUnits="userSpaceOnUse"
       id="SVGID_13_"
       y2="191.8867"
       x2="421.94781"
       y1="169.6572"
       x1="421.94781"><stop
         offset="0"
         style="stop-color:#2397d4;stop-opacity:1"
         id="stop4379" /><stop
         offset="1"
         style="stop-color:#65e7ff;stop-opacity:1"
         id="stop4381" /></linearGradient><linearGradient
       gradientTransform="matrix(1.2857964,0,0,-1.2857964,258.25103,1168.7191)"
       gradientUnits="userSpaceOnUse"
       id="SVGID_12_-6"
       y2="253.84129"
       x2="-51.767601"
       y1="235.84129"
       x1="-51.767601"><stop
         offset="0"
         style="stop-color:#2397d4;stop-opacity:1"
         id="stop4372" /><stop
         offset="1"
         style="stop-color:#65e7ff;stop-opacity:1"
         id="stop4374" /></linearGradient><linearGradient
       gradientTransform="matrix(1.2857964,0,0,-1.2857964,258.25103,1168.7191)"
       gradientUnits="userSpaceOnUse"
       id="SVGID_11_-6"
       y2="265.84329"
       x2="-75.768997"
       y1="249.84129"
       x1="-75.768997"><stop
         offset="0"
         style="stop-color:#2397d4;stop-opacity:1"
         id="stop4365" /><stop
         offset="1"
         style="stop-color:#65e7ff;stop-opacity:1"
         id="stop4367" /></linearGradient><linearGradient
       gradientTransform="matrix(1.2857964,0,0,-1.2857964,258.25103,1168.7191)"
       gradientUnits="userSpaceOnUse"
       id="SVGID_10_-9"
       y2="220.8394"
       x2="-48.767601"
       y1="198.83839"
       x1="-48.767601"><stop
         offset="0"
         style="stop-color:#2397d4;stop-opacity:1"
         id="stop4358" /><stop
         offset="1"
         style="stop-color:#65e7ff;stop-opacity:1"
         id="stop4360" /></linearGradient><linearGradient
       gradientTransform="matrix(1.2857964,0,0,-1.2857964,258.25103,1168.7191)"
       gradientUnits="userSpaceOnUse"
       id="SVGID_9_-9"
       y2="237.84129"
       x2="-70.767601"
       y1="217.8394"
       x1="-70.767601"><stop
         offset="0"
         style="stop-color:#2397d4;stop-opacity:1"
         id="stop4351" /><stop
         offset="1"
         style="stop-color:#65e7ff;stop-opacity:1"
         id="stop4353" /></linearGradient><linearGradient
       gradientTransform="matrix(1.2857964,0,0,-1.2857964,258.25103,1168.7191)"
       gradientUnits="userSpaceOnUse"
       id="SVGID_8_-1"
       y2="214.8394"
       x2="-84.767601"
       y1="190.83839"
       x1="-84.767601"><stop
         offset="0"
         style="stop-color:#2397d4;stop-opacity:1"
         id="stop4344" /><stop
         offset="1"
         style="stop-color:#65e7ff;stop-opacity:1"
         id="stop4346" /></linearGradient><linearGradient
       gradientTransform="matrix(1.2857964,0,0,-1.2857964,258.25103,1168.7191)"
       gradientUnits="userSpaceOnUse"
       id="SVGID_6_"
       y2="161.147"
       x2="421.94781"
       y1="87.412102"
       x1="421.94781"><stop
         offset="0"
         style="stop-color:#252d42;stop-opacity:1"
         id="stop4328" /><stop
         offset="1"
         style="stop-color:#485e82;stop-opacity:1"
         id="stop4330" /></linearGradient><linearGradient
       gradientTransform="matrix(1.2857964,0,0,-1.2857964,258.25103,1168.7191)"
       gradientUnits="userSpaceOnUse"
       id="SVGID_5_"
       y2="161.1479"
       x2="89.801804"
       y1="87.414101"
       x1="89.801804"><stop
         offset="0"
         style="stop-color:#252d42;stop-opacity:1"
         id="stop4321" /><stop
         offset="1"
         style="stop-color:#485e82;stop-opacity:1"
         id="stop4323" /></linearGradient><linearGradient
       gradientTransform="matrix(1.2857964,0,0,-1.2857964,258.25103,1168.7191)"
       gradientUnits="userSpaceOnUse"
       id="SVGID_4_"
       y2="161.14841"
       x2="363.0806"
       y1="87.414101"
       x1="363.0806"><stop
         offset="0"
         style="stop-color:#252d42;stop-opacity:1"
         id="stop4314" /><stop
         offset="1"
         style="stop-color:#485e82;stop-opacity:1"
         id="stop4316" /></linearGradient><linearGradient
       gradientTransform="matrix(1.2857964,0,0,-1.2857964,258.25103,1168.7191)"
       gradientUnits="userSpaceOnUse"
       id="SVGID_3_"
       y2="161.147"
       x2="481.40869"
       y1="87.414101"
       x1="481.40869"><stop
         offset="0"
         style="stop-color:#252d42;stop-opacity:1"
         id="stop4307" /><stop
         offset="1"
         style="stop-color:#485e82;stop-opacity:1"
         id="stop4309" /></linearGradient><linearGradient
       gradientTransform="matrix(1.2857964,0,0,-1.2857964,258.25103,1168.7191)"
       gradientUnits="userSpaceOnUse"
       id="SVGID_2_"
       y2="161.147"
       x2="191.85789"
       y1="87.414101"
       x1="191.85789"><stop
         offset="0"
         style="stop-color:#252d42;stop-opacity:1"
         id="stop4300" /><stop
         offset="1"
         style="stop-color:#485e82;stop-opacity:1"
         id="stop4302" /></linearGradient><linearGradient
       gradientTransform="matrix(1,0,0,-1,214.5,339.5771)"
       gradientUnits="userSpaceOnUse"
       id="SVGID_1_"
       y2="162.6368"
       x2="277.86081"
       y1="84.733398"
       x1="277.86081"><stop
         offset="0"
         style="stop-color:#252d42;stop-opacity:1"
         id="stop4293" /><stop
         offset="1"
         style="stop-color:#485e82;stop-opacity:1"
         id="stop4295" /></linearGradient><inkscape:perspective
       id="perspective6406"
       inkscape:persp3d-origin="299.99999 : 400 : 1"
       inkscape:vp_z="699.99996 : 600 : 1"
       inkscape:vp_y="0 : 1000 : 0"
       inkscape:vp_x="-49.999997 : 600 : 1"
       sodipodi:type="inkscape:persp3d" /><inkscape:perspective
       id="perspective6239"
       inkscape:persp3d-origin="299.99999 : 400 : 1"
       inkscape:vp_z="699.99996 : 600 : 1"
       inkscape:vp_y="0 : 1000 : 0"
       inkscape:vp_x="-49.999997 : 600 : 1"
       sodipodi:type="inkscape:persp3d" /></defs><sodipodi:namedview
     pagecolor="#4075b1"
     bordercolor="#666666"
     borderopacity="1"
     objecttolerance="10"
     gridtolerance="10"
     guidetolerance="10"
     inkscape:pageopacity="0"
     inkscape:pageshadow="2"
     inkscape:window-width="2560"
     inkscape:window-height="1403"
     id="namedview8351"
     showgrid="false"
     inkscape:zoom="2.8284271"
     inkscape:cx="71.478874"
     inkscape:cy="54.74476"
     inkscape:window-x="2560"
     inkscape:window-y="0"
     inkscape:window-maximized="1"
     inkscape:current-layer="layer1"
     showguides="true"
     inkscape:guide-bbox="true"
     inkscape:snap-global="false"><sodipodi:guide
       position="121.99999,13.999999"
       orientation="0,1"
       id="guide5972"
       inkscape:locked="false" /><inkscape:grid
       type="xygrid"
       id="grid5974" /></sodipodi:namedview><style
     type="text/css"
     id="style8326">
	.st0{fill:#EA5B0C;}
	.st1{fill:#4A4A49;}
</style><g
     style="clip-rule:evenodd;fill-rule:evenodd;stroke-width:5.78998089;stroke-linejoin:round;stroke-miterlimit:1.41420996"
     id="g9162"
     transform="matrix(0.17271214,0,0,0.17271214,8.444181,34.420622)"><g
       id="layer1"
       transform="matrix(0.72303974,0,0,0.72303974,-98.050165,-330.47173)"
       style="stroke-width:46.36519241"><g
         id="layer1-7"
         inkscape:label="Layer 1"
         transform="matrix(2.3586759,0,0,2.3586759,-76.55952,182.75923)"
         style="fill:#ffffff;stroke-width:157.41235352"><g
           id="g6408"
           style="fill:#ffffff;stroke-width:157.41235352"><path
             id="path1977"
             d="m 290.12328,115.07966 c -5.46064,-0.20052 -9.74704,-4.80372 -9.56466,-10.27218 0.0841,-2.64754 1.21583,-5.0947 3.13905,-6.90149 1.93101,-1.80627 4.45313,-2.74648 7.10068,-2.64688 5.46845,0.19137 9.75604,4.7869 9.57234,10.2637 -0.0828,2.6392 -1.19901,5.08622 -3.13004,6.90083 -1.94002,1.79845 -4.46215,2.7388 -7.11751,2.65602 z m 2.2983,-8.98258 c 2.43032,0 4.40267,-1.31476 4.40267,-2.92951 0,-1.62323 -1.97247,-2.93866 -4.40267,-2.93866 -2.43154,0 -4.3962,1.31543 -4.3962,2.93866 0,1.61475 1.96466,2.92951 4.3962,2.92951"
             style="fill:#ffffff;fill-opacity:1;fill-rule:nonzero;stroke:none;stroke-width:157.41235352;stroke-miterlimit:4"
             inkscape:connector-curvature="0" /><path
             id="path1979"
             d="m 177.77915,172.0346 0.35143,-0.033 0.057,-0.41614 c -0.09,-0.32674 -0.30193,-0.62036 -0.62933,-4.67085 -0.2779,-3.58485 -0.84123,-13.41571 4.10688,-18.29079 1.91955,-1.90255 4.85041,-3.59305 7.16205,-4.13988 9.48006,-2.311 21.7856,-0.71053 32.29451,11.44029 5.42256,6.27899 8.08447,9.14514 9.41536,10.42718 l 0.4568,0.42444 0.55566,0.40029 c 0.43263,0.24489 18.06175,8.36159 18.06175,8.36159 l 0.3591,-0.09 0.009,-0.38313 c -0.11419,-0.1307 -11.17005,-14.41297 -9.211,-26.17923 1.55162,-9.37406 9.01444,-8.53296 19.32807,-7.35745 3.3723,0.38378 7.21025,0.82473 11.17889,0.91476 11.0799,0.0654 23.01883,-1.96775 30.37628,-5.18533 4.76036,-2.08196 7.79775,-3.45417 9.7008,-5.18534 0.68506,-0.56333 1.04416,-1.49393 1.41208,-2.47405 l 0.25374,-0.66103 c 0.30959,-0.79237 0.75873,-2.49055 0.95543,-3.41349 0.09,-0.40795 0.13068,-0.84941 -0.15604,-1.0695 l -1.02013,0.18774 c -3.22511,1.9354 -11.30192,5.62627 -18.86243,5.77335 -9.36588,0.19539 -28.24469,-9.42356 -30.21258,-10.44433 l -0.18774,-0.22009 c -0.47445,-1.1273 -3.3076,-7.83127 -3.90392,-9.24336 13.58824,8.94909 24.85586,13.89785 33.48717,14.6654 9.6031,0.85708 17.09125,-4.38477 20.2922,-6.62289 0.62803,-0.42444 1.10249,-0.76755 1.29789,-0.84057 l 0.20423,-0.33493 c -0.53162,-3.37231 -5.55327,-19.70354 -9.34169,-23.62333 -1.05301,-1.07781 -1.89423,-2.12262 -3.59305,-3.11923 -13.72648,-8.001978 -46.3154,-12.83653 -47.8417,-13.056617 l -0.26139,0.07353 -0.0977,0.228399 c 0,0 -0.12302,6.761123 -0.13954,7.512835 -3.33177,-1.110809 -27.52531,-8.925574 -50.2105,-9.717299 -19.22893,-0.677658 -45.49818,-1.592418 -82.61907,21.22216 l -1.09431,0.68571 c -17.45789,10.892822 -29.510359,24.317372 -35.814037,39.929872 -1.97607,4.90744 -4.637854,15.98864 -2.00907,26.41582 1.143159,4.56497 3.258113,9.13748 6.116594,13.23681 6.442691,9.25934 17.261843,15.40894 28.914033,16.44543 16.44542,1.46925 28.90636,-5.9199 33.33998,-19.75304 3.04556,-9.54541 0,-23.54914 -11.67688,-30.69405 -9.49657,-5.8222 -19.72003,-4.4913 -25.64006,-0.57982 -5.14415,3.41297 -8.05901,8.70419 -8.00198,14.52651 0.1142,10.31299 9.00678,15.80025 15.39243,15.80856 1.86122,0 3.72309,-0.31843 5.82986,-1.00414 0.74353,-0.22905 1.45341,-0.50617 2.22916,-0.9883 l 0.23723,-0.15473 0.15473,-0.09 -0.057,0.0247 c 1.46159,-0.98011 2.34335,-2.59644 2.34335,-4.32774 0,-0.47381 -0.0735,-0.95542 -0.20423,-1.43742 -0.75107,-2.60474 -3.33178,-4.18873 -6.01006,-3.69906 l -0.3591,0.0735 -0.4898,0.16305 -0.71052,0.23723 c -1.46978,0.36729 -2.58059,0.39211 -2.80898,0.39964 -0.75107,-0.0489 -4.43428,-1.15069 -4.43428,-5.18469 v -0.0488 c 0.009,-1.4781 0.60452,-2.51524 0.93126,-3.07857 1.13485,-1.79652 4.27058,-3.56005 8.50815,-3.18458 5.55326,0.47329 9.55425,3.32347 12.20785,8.69653 2.46639,4.99695 1.82134,11.13771 -1.65763,15.64487 -3.45417,4.46727 -9.60246,6.36149 -17.78464,5.47076 -8.2474,-0.90593 -15.22042,-5.65032 -19.123707,-13.04011 -3.821442,-7.21857 -4.03399,-15.7844 -0.54683,-22.36532 8.353417,-15.75972 24.120657,-15.59667 32.768467,-14.10208 12.80353,2.21266 24.42324,12.46028 29.59208,26.0892 0.82472,2.17211 1.24904,3.89497 1.61632,5.46258 l 0.55566,2.35985 14.46053,7.06305 0.19669,0.13888 z M 280.56753,95.11467 c -2.72649,2.53108 -4.28708,5.98525 -4.41778,9.70899 -0.25242,7.67524 5.774,14.14261 13.44872,14.42882 3.74025,0.12238 7.28378,-1.19266 10.00273,-3.74024 2.71895,-2.53941 4.27942,-5.98525 4.41777,-9.70081 0.2614,-7.68354 -5.76515,-14.1591 -13.45624,-14.43636 -3.72374,-0.12237 -7.27625,1.19202 -9.9952,3.7396"
             style="fill:#ffffff;fill-opacity:1;fill-rule:evenodd;stroke:none;stroke-width:157.41235352;stroke-miterlimit:4"
             inkscape:connector-curvature="0" /><path
             style="fill:#ffffff;fill-opacity:1;stroke:none;stroke-width:157.41235352"
             d="m 176.72658,185.83248 c -6.02344,0 -9.35885,5.10236 -9.35885,8.6369 v 4.53017 c 0,5.18966 4.24374,8.41293 8.18895,8.41293 h 13.81415 c 1.72999,0 2.09096,1.1323 2.09096,2.09063 v 2.92474 c 0,0.31096 -0.0497,3.12388 -2.09096,3.12388 h -18.85438 c -1.867,0 -3.22327,1.29415 -3.22327,3.07383 v 0.80894 c 0,1.76726 1.34385,3.07416 3.22327,3.07416 h 19.88759 c 5.18966,0 8.54993,-3.60941 8.54993,-9.20975 v -4.89082 c 0,-5.2521 -3.78337,-7.604 -7.52945,-7.604 h -13.59017 c -2.05369,0 -2.97444,-1.51845 -2.97444,-2.61348 v -2.68833 c 0,-1.70482 1.1323,-2.67559 3.12354,-2.67559 h 15.0589 c 1.84184,0 3.22328,-1.31931 3.22328,-3.07416 v -0.80893 c 0,-1.74241 -1.4063,-3.07385 -3.28539,-3.07385 h -16.22881"
             id="path2097"
             inkscape:connector-curvature="0" /><path
             style="fill:#ffffff;fill-opacity:1;stroke:none;stroke-width:157.41235352"
             d="m 233.2655,185.83248 c -1.7797,0 -3.22326,1.44357 -3.22326,3.22326 v 23.14815 c 0,1.84181 -1.50601,3.33541 -3.33542,3.33541 h -10.50389 c -1.84183,0 -3.33543,-1.4936 -3.33543,-3.33541 v -23.14815 c 0,-1.77969 -1.43113,-3.22326 -3.22326,-3.22326 h -1.02047 c -1.79212,0 -3.22327,1.41872 -3.22327,3.22326 v 24.03162 c 0,5.58792 4.39317,9.64527 10.45388,9.64527 h 11.22584 c 6.06071,0 10.45387,-4.05735 10.45387,-9.64527 v -24.03162 c 0,-1.80454 -1.41871,-3.22326 -3.22326,-3.22326 h -1.02048"
             id="path2099"
             inkscape:connector-curvature="0" /><path
             style="fill:#ffffff;fill-opacity:1;stroke:none;stroke-width:157.41235352"
             d="m 253.38949,185.83248 c -6.02342,0 -9.35884,5.10236 -9.35884,8.6369 v 4.53017 c 0,5.18966 4.25617,8.41293 8.18895,8.41293 h 13.81414 c 1.73,0 2.1034,1.1323 2.1034,2.09063 v 2.92474 c 0,0.31096 -0.0621,3.12388 -2.1034,3.12388 h -18.85437 c -1.86699,0 -3.22327,1.29415 -3.22327,3.07383 v 0.80894 c 0,1.76726 1.35628,3.07416 3.22327,3.07416 h 19.87516 c 5.20209,0 8.54961,-3.60941 8.54961,-9.20975 v -4.89082 c 0,-5.2521 -3.77061,-7.604 -7.52914,-7.604 h -13.59048 c -2.05337,0 -2.97412,-1.51845 -2.97412,-2.61348 v -2.68833 c 0,-1.70482 1.1323,-2.67559 3.11112,-2.67559 h 15.05891 c 1.8294,0 3.22327,-1.31931 3.22327,-3.07416 v -0.80893 c 0,-1.74241 -1.4063,-3.07385 -3.29813,-3.07385 h -16.21608"
             id="path2101"
             inkscape:connector-curvature="0" /><path
             style="fill:#ffffff;fill-opacity:1;stroke:none;stroke-width:157.41235352"
             d="m 285.16212,185.83248 c -1.77938,0 -3.1484,1.319 -3.1484,3.07383 v 30.52819 c 0,1.74241 1.319,3.07416 3.08627,3.07416 h 24.33046 c 1.86699,0 3.22359,-1.29447 3.22359,-3.07416 v -0.80894 c 0,-1.76726 -1.34417,-3.07383 -3.22359,-3.07383 0,0 -19.02865,0 -19.92487,0 0,-0.7965 0,-6.98179 0,-7.77829 0.89622,0 14.59854,0 14.59854,0 1.86667,0 3.22326,-1.29446 3.22326,-3.08659 v -0.79649 c 0,-1.7797 -1.35659,-3.08627 -3.22326,-3.08627 0,0 -13.70232,0 -14.59854,0 0,-0.79649 0,-7.19334 0,-7.98983 0.89622,0 18.91682,0 18.91682,0 1.867,0 3.22359,-1.29446 3.22359,-3.07416 v -0.80892 c 0,-1.7797 -1.35659,-3.07384 -3.22359,-3.07384 h -23.24753"
             id="path2103"
             inkscape:connector-curvature="0" /><path
             style="fill:#ffffff;fill-opacity:1;stroke:none;stroke-width:157.41235352"
             d="m 78.309297,200.35583 c -3.036651,0 -5.513263,2.36463 -5.513263,5.28937 v 11.51195 c 0,2.96201 2.389494,5.37636 5.326597,5.37636 h 7.442252 c 2.937103,0 5.33902,-2.41435 5.33902,-5.37636 V 205.6452 c 0,-2.91231 -2.476599,-5.28937 -5.513261,-5.28937 z m -1.605453,16.35305 V 206.2053 c 0,-1.23234 1.00808,-2.24039 2.240167,-2.24039 h 5.799492 c 1.207204,0 2.240134,1.02079 2.240134,2.24039 v 10.50358 c 0,1.23235 -1.008048,2.24038 -2.240134,2.24038 h -5.84929 c -1.232086,0 -2.190369,-0.98318 -2.190369,-2.24038"
             id="path2105"
             inkscape:connector-curvature="0" /><path
             style="fill:#ffffff;fill-opacity:1;stroke:none;stroke-width:157.41235352"
             d="m 107.77981,200.21914 c -2.15309,0 -3.75857,0.77165 -5.06534,1.39387 -0.78404,0.37309 -1.46852,0.69678 -2.00367,0.69678 -0.22401,0 -0.43559,-0.0994 -0.54761,-0.27368 l -0.485353,-0.94592 c -0.112019,-0.24883 -0.60983,-0.73436 -1.232086,-0.73436 h -0.721818 c -0.696936,0 -1.269427,0.62253 -1.269427,1.40628 v 29.18433 c 0,0.90832 0.709393,1.63027 1.630336,1.63027 h 0.634712 c 0.89606,0 1.630336,-0.73437 1.630336,-1.63027 v -9.68255 c 0,-0.2861 0.18667,-0.58495 0.36091,-0.58495 0.53515,0 1.21963,0.29885 2.01613,0.67225 1.29431,0.58494 2.91222,1.33142 5.06531,1.33142 h 0.67192 c 3.79579,0 6.16044,-2.1652 6.16044,-5.65003 v -11.13855 c 0,-3.43482 -2.41435,-5.66247 -6.16044,-5.66247 h -0.68435 v 0 z m -7.44238,16.26576 v -10.0432 c 0,-1.38144 1.08276,-2.46436 2.46418,-2.46436 h 5.42615 c 1.38145,0 2.46405,1.08292 2.46405,2.46436 v 10.0432 c 0,1.35659 -1.09503,2.46436 -2.46405,2.46436 h -5.42615 c -1.35654,0 -2.46418,-1.10777 -2.46418,-2.46436"
             id="path2107"
             inkscape:connector-curvature="0" /><path
             style="fill:#ffffff;fill-opacity:1;stroke:none;stroke-width:157.41235352"
             d="m 125.651,200.35583 c -3.03657,0 -5.51304,2.36463 -5.51304,5.28937 v 11.42465 c 0,2.96201 2.40191,5.47608 5.23936,5.47608 h 7.67887 c 0.94561,0 1.63028,-0.64739 1.63028,-1.54329 v -0.49798 c 0,-0.8959 -0.68467,-1.54296 -1.63028,-1.54296 h -6.29743 c -1.76727,0 -2.70076,-0.85895 -2.70076,-2.51407 0,0 0,-2.87473 0,-3.33542 0.5104,0 11.37526,0 11.37526,0 1.81697,0 2.912,-1.11987 2.912,-3.01171 v -4.43044 c 0,-2.91232 -2.47647,-5.28907 -5.51304,-5.28907 h -7.16848 z m -1.60543,5.79946 c 0,-1.21961 0.95835,-2.19038 2.19037,-2.19038 h 5.98616 c 1.23234,0 2.19037,0.95834 2.19037,2.19038 0,0 0,3.099 0,3.55939 -0.48522,0 -9.88135,0 -10.3669,0 0,-0.46039 0,-3.55939 0,-3.55939"
             id="path2109"
             inkscape:connector-curvature="0" /><path
             style="fill:#ffffff;fill-opacity:1;stroke:none;stroke-width:157.41235352"
             d="m 154.17581,200.21914 c -2.14066,0 -3.75851,0.75922 -5.05298,1.38145 -0.80892,0.37309 -1.5057,0.7092 -2.0658,0.7092 -0.24882,0 -0.34854,-0.0248 -0.53524,-0.36098 l -0.44795,-0.82135 c -0.24883,-0.51007 -0.68435,-0.77163 -1.28173,-0.77163 h -0.63497 c -0.7589,0 -1.30657,0.58493 -1.30657,1.40628 v 19.1408 c 0,0.90865 0.72163,1.64302 1.63027,1.64302 h 0.63465 c 0.89622,0 1.63027,-0.73437 1.63027,-1.64302 v -14.48606 c 0,-1.35659 1.10777,-2.46436 2.46437,-2.46436 h 5.42606 c 1.35659,0 2.46405,1.10777 2.46405,2.46436 v 14.48606 c 0,0.90865 0.72194,1.64302 1.63059,1.64302 h 0.63465 c 0.8959,0 1.63027,-0.73437 1.63027,-1.64302 V 205.8816 c 0,-3.43481 -2.41435,-5.66246 -6.16044,-5.66246 h -0.68435"
             id="path2111"
             inkscape:connector-curvature="0" /><path
             style="font-style:normal;font-variant:normal;font-weight:normal;font-stretch:normal;font-size:18.71269226px;line-height:125%;font-family:Myriad;-inkscape-font-specification:Myriad;text-indent:0;text-align:start;text-decoration:none;text-decoration-line:none;letter-spacing:normal;word-spacing:normal;text-transform:none;writing-mode:lr-tb;direction:ltr;text-anchor:start;display:inline;overflow:visible;visibility:visible;fill:#ffffff;fill-opacity:1;fill-rule:evenodd;stroke:none;stroke-width:3.39505458;stroke-linecap:butt;stroke-linejoin:round;stroke-miterlimit:4;stroke-dashoffset:0;stroke-opacity:1;marker:none;marker-start:none;marker-mid:none;marker-end:none;enable-background:accumulate"
             d="m 318.75767,185.66539 c -1.88704,0 -3.42124,1.53419 -3.42124,3.45194 0,1.94842 1.5342,3.46727 3.42124,3.46727 1.90241,0 3.40591,-1.51885 3.40591,-3.46727 0,-1.91775 -1.5035,-3.45194 -3.39056,-3.45194 h -0.0153 m 0.0153,0.53697 c 1.53419,0 2.76154,1.30407 2.76154,2.9303 0,1.62624 -1.22735,2.93031 -2.76154,2.91497 -1.53419,0 -2.77688,-1.28873 -2.77688,-2.9303 0,-1.6109 1.24269,-2.91497 2.76153,-2.91497 h 0.0153 m -0.6597,3.26783 h 0.42957 c 0.49094,0 0.73642,0.1841 0.82846,0.67504 0.0767,0.50629 0.16876,0.85915 0.26082,0.98188 h 0.64436 c -0.0614,-0.12273 -0.15343,-0.35286 -0.24547,-0.9512 -0.0767,-0.56765 -0.30684,-0.87448 -0.64437,-0.93585 v -0.0307 c 0.41424,-0.12273 0.75176,-0.42957 0.75176,-0.93585 0,-0.36821 -0.12274,-0.62902 -0.35287,-0.79778 -0.23013,-0.16876 -0.61367,-0.2915 -1.19667,-0.2915 -0.46025,0 -0.76709,0.046 -1.08927,0.0921 v 3.85082 h 0.61368 v -1.65692 m 0,-1.77966 c 0.10739,-0.0153 0.24547,-0.0307 0.44491,-0.0307 0.69039,0 0.93586,0.33752 0.93586,0.67505 0,0.47559 -0.42957,0.6597 -0.93586,0.6597 h -0.44491 v -1.30406"
             id="text5975"
             inkscape:connector-curvature="0" /></g></g></g></g></svg>