<?xml version="1.0" encoding="UTF-8" standalone="no"?>
<!-- Created with Inkscape (http://www.inkscape.org/) -->

<svg
   xmlns:dc="http://purl.org/dc/elements/1.1/"
   xmlns:cc="http://creativecommons.org/ns#"
   xmlns:rdf="http://www.w3.org/1999/02/22-rdf-syntax-ns#"
   xmlns:svg="http://www.w3.org/2000/svg"
   xmlns="http://www.w3.org/2000/svg"
   xmlns:xlink="http://www.w3.org/1999/xlink"
   xmlns:sodipodi="http://sodipodi.sourceforge.net/DTD/sodipodi-0.dtd"
   xmlns:inkscape="http://www.inkscape.org/namespaces/inkscape"
   version="1.0"
   width="161"
   height="80"
   id="svg2424"
   sodipodi:docname="ubuntu.svg"
   viewBox="0 0 161 80.000001"
   inkscape:version="0.92pre1 r">
  <metadata
     id="metadata4584">
    <rdf:RDF>
      <cc:Work
         rdf:about="">
        <dc:format>image/svg+xml</dc:format>
        <dc:type
           rdf:resource="http://purl.org/dc/dcmitype/StillImage" />
        <dc:title></dc:title>
      </cc:Work>
    </rdf:RDF>
  </metadata>
  <sodipodi:namedview
     pagecolor="#7179c7"
     bordercolor="#666666"
     borderopacity="1"
     objecttolerance="10"
     gridtolerance="10"
     guidetolerance="10"
     inkscape:pageopacity="0"
     inkscape:pageshadow="2"
     inkscape:window-width="2560"
     inkscape:window-height="1403"
     id="namedview4582"
     showgrid="false"
     borderlayer="true"
     inkscape:showpageshadow="false"
     inkscape:zoom="1"
     inkscape:cx="128.81689"
     inkscape:cy="4.6448414"
     inkscape:window-x="2560"
     inkscape:window-y="0"
     inkscape:window-maximized="1"
     inkscape:current-layer="layer1"
     showguides="true"
     inkscape:guide-bbox="true">
    <sodipodi:guide
       position="164,14"
       orientation="0,1"
       id="guide5976"
       inkscape:locked="false" />
    <inkscape:grid
       type="xygrid"
       id="grid5978" />
  </sodipodi:namedview>
  <defs
     id="defs2426">
    <linearGradient
       x1="112.49854"
       y1="6.1372099"
       x2="112.49853"
       y2="129.3468"
       id="path1082_2_"
       gradientUnits="userSpaceOnUse"
       gradientTransform="translate(287,-83)">
      <stop
         id="stop193"
         style="stop-color:#ffffff;stop-opacity:0"
         offset="0" />
      <stop
         id="stop195"
         style="stop-color:#ffffff;stop-opacity:0.27450982"
         offset="1" />
      <midPointStop
         offset="0"
         style="stop-color:#FFFFFF"
         id="midPointStop197" />
      <midPointStop
         offset="0.5"
         style="stop-color:#FFFFFF"
         id="midPointStop199" />
      <midPointStop
         offset="1"
         style="stop-color:#000000"
         id="midPointStop201" />
    </linearGradient>
    <linearGradient
       x1="541.33502"
       y1="104.50665"
       x2="606.91248"
       y2="303.14029"
       id="linearGradient2544"
       xlink:href="#path1082_2_"
       gradientUnits="userSpaceOnUse"
       gradientTransform="matrix(-0.3937741,0,0,0.393752,357.51969,122.00151)" />
    <linearGradient
       id="linearGradient3388">
      <stop
         id="stop3390"
         style="stop-color:#000000;stop-opacity:0"
         offset="0" />
      <stop
         id="stop3392"
         style="stop-color:#000000;stop-opacity:0.37113401"
         offset="1" />
    </linearGradient>
    <linearGradient
       x1="490.72305"
       y1="237.72447"
       x2="490.72305"
       y2="183.9644"
       id="linearGradient4416"
       xlink:href="#linearGradient3388"
       gradientUnits="userSpaceOnUse"
       gradientTransform="matrix(0.749107,0,0,0.749107,-35.459862,91.44108)" />
  </defs>
  <g
     transform="matrix(0.27190674,0,0,0.27190674,-2.8920639,-11.606519)"
     id="layer1"
     style="stroke-width:3.67773151">
    <path
       inkscape:connector-curvature="0"
       id="text"
       d="m 450.25412,207.15048 v 49.16676 c -4e-5,12.51867 6.06417,19.50494 18.19252,19.50494 3.24691,0 6.44614,-0.14335 9.59764,-0.43003 3.15138,-0.2867 5.82536,-0.71669 8.0219,-1.2901 V 207.15048 H 500.391 v 75.83886 c -4.29752,1.52901 -9.26344,2.62799 -14.89782,3.29689 -5.63448,0.76454 -11.31664,1.14675 -17.04654,1.14675 -10.69591,0 -18.81328,-3.40266 -24.35219,-8.75417 -5.53896,-5.35147 -8.30841,-13.47424 -8.30841,-24.36837 v -47.15996 h 14.46808 m -221.92111,0 v 49.16676 c -4e-5,12.51867 6.06417,19.50494 18.19253,19.50494 3.24689,0 6.44613,-0.14335 9.59762,-0.43003 3.15141,-0.2867 5.82538,-0.71669 8.02191,-1.2901 v -66.95157 h 14.32483 v 75.83886 c -4.29752,1.52901 -9.26344,2.62799 -14.89782,3.29689 -5.63449,0.76454 -11.31666,1.14675 -17.04654,1.14675 -10.69591,0 -18.81329,-3.40266 -24.35221,-8.75417 -5.53894,-5.35147 -8.30839,-13.47424 -8.30839,-24.36837 v -47.15996 h 14.46807 m 163.17776,-25.36867 -12.9165,2.34213 -0.0288,78.1866 c 7e-5,15.00315 8.11938,24.83808 25.97748,24.83812 4.39299,-4e-5 12.91194,-1.19295 17.97331,-2.05297 l -1.70487,-10.12031 c -0.0996,0.39806 -11.39655,1.54406 -17.42427,1.21444 -6.0277,-0.32968 -11.46636,-5.24523 -11.99183,-10.2938 l 0.0288,-47.27629 h 29.76285 v -11.47932 h -29.76285 l 0.0866,-25.3586 z m -247.92748,-13.59013 -14.47688,2.34213 v 112.45553 c 8.49938,2.96244 17.52563,4.45294 27.07552,4.45294 1.63479,0 3.21745,-0.0566 4.73894,-0.17349 v -0.0288 c 28.23733,0.13605 42.85123,-22.25311 39.07154,-48.23495 -2.97057,-18.3258 -18.18041,-33.80182 -35.97961,-33.80182 -7.06683,0 -12.70217,1.91191 -16.90415,3.44091 -1.28093,0.48422 -2.44004,0.98315 -3.52531,1.50359 v -41.95591 -5e-5 h -5e-5 z m 20.28498,48.6353 c 15.88675,0.7831 22.25166,14.76436 22.74526,28.51036 0.67478,18.79242 -12.44193,32.04705 -30.14263,30.48105 -4.08688,-0.36158 -8.39918,-0.51022 -12.88761,-1.56142 v -51.7337 c 1.8906,-1.61297 4.02281,-2.89979 6.38601,-3.84571 3.3425,-1.24232 7.98796,-2.14193 13.89897,-1.85058 z m 148.5516,68.58896 h -14.46808 v -75.11191 c 4.39294,-1.5289 9.26337,-2.62789 14.61133,-3.2969 5.4434,-0.76443 11.03007,-1.14667 16.76005,-1.14675 21.39164,8e-5 32.08749,10.65525 32.0876,31.96556 v 47.59 h -14.32482 v -49.5968 c -8e-5,-12.23188 -5.921,-18.34788 -17.76278,-18.34795 -3.15154,7e-5 -6.20749,0.14336 -9.16789,0.43003 -2.96051,0.2867 -5.53898,0.66902 -7.73541,1.14676 v 66.36796 M 60.042841,207.15048 v 49.16676 c -3.7e-5,12.51867 6.06417,19.50494 18.192528,19.50494 3.246899,0 6.446135,-0.14335 9.597629,-0.43003 3.151394,-0.2867 5.825364,-0.71669 8.021905,-1.2901 v -66.95157 h 14.324817 v 75.83886 c -4.29752,1.52901 -9.26343,2.62799 -14.89782,3.29689 -5.63448,0.76454 -11.316642,1.14675 -17.046531,1.14675 -10.695918,0 -18.813288,-3.40266 -24.352201,-8.75417 -5.538943,-5.35147 -8.308398,-13.47424 -8.308398,-24.36837 v -47.15996 h 14.468071"
       style="font-style:normal;font-variant:normal;font-weight:bold;font-stretch:normal;font-size:40px;line-height:125%;font-family:Xenu;text-align:start;text-anchor:start;fill:#ffffff;fill-opacity:1;stroke:none;stroke-width:13.52571011" />
    <g
       style="stroke-width:14.63151169"
       id="logo"
       transform="matrix(0.67791039,0,0,0.67791039,512.71651,172.19787)">
      <path
         inkscape:connector-curvature="0"
         id="roundel"
         d="M 95.00015,50.000432 C 95.00015,74.852315 74.852463,95 49.999138,95 25.146388,95 4.9998625,74.852315 4.9998625,50.000432 c 0,-24.853612 20.1465255,-45.0004322 44.9992755,-45.0004322 24.853325,0 45.001012,20.1468202 45.001012,45.0004322"
         style="fill:#f47421;fill-opacity:1;fill-rule:nonzero;stroke:none;stroke-width:14.63151169" />
      <path
         inkscape:connector-curvature="0"
         id="circle-of-friends"
         d="m 62.295912,28.701087 c 2.873376,1.659372 6.546563,0.675122 8.204788,-2.197388 1.659075,-2.873664 0.675688,-6.546562 -2.197975,-8.205644 -2.873087,-1.658504 -6.545987,-0.674543 -8.205062,2.199121 -1.6585,2.872509 -0.67455,6.545408 2.198249,8.203911 z M 50,67.549813 c -2.641888,0 -5.145512,-0.587374 -7.392837,-1.632816 l -4.174551,7.480879 C 41.919625,75.124499 45.845375,76.10009 50,76.10009 c 2.416175,0 4.7524,-0.334819 6.9726,-0.949614 0.392825,-2.413 1.825625,-4.636944 4.109888,-5.956013 2.280224,-1.316469 4.919225,-1.446933 7.203499,-0.583622 4.4424,-4.368222 7.333101,-10.311246 7.753925,-16.929679 l -8.5624,-0.124687 C 66.689537,60.521517 59.168538,67.549813 50,67.549813 Z m 0,-35.099916 c 9.168538,0 16.689537,7.029739 17.477512,15.993631 l 8.5624,-0.124975 C 75.6185,41.700699 72.727812,35.757675 68.284837,31.389741 66.00085,32.252475 63.362137,32.121722 61.081625,30.804963 58.797637,29.486472 57.365137,27.262817 56.972312,24.849528 54.7524,24.235311 52.416175,23.900204 50,23.900204 c -4.154625,0 -8.080075,0.975302 -11.566813,2.702502 l 4.174263,7.480012 C 44.854487,33.037277 47.358112,32.449902 50,32.449902 Z M 32.450338,49.999856 c 0,-5.93754 2.950725,-11.181774 7.4624,-14.357351 l -4.392175,-7.357919 c -5.257513,3.512993 -9.168825,8.882784 -10.793275,15.172749 1.897787,1.546802 3.11035,3.902363 3.11035,6.543097 0,2.640447 -1.21285,4.996008 -3.110638,6.542522 1.624163,6.290252 5.535475,11.660045 10.793275,15.173037 l 4.392463,-7.358207 c -4.511675,-3.175289 -7.4624,-8.419523 -7.4624,-14.357928 z m 29.84645,21.298479 c -2.873675,1.659081 -3.857625,5.331691 -2.198838,8.2042 1.659088,2.873663 5.331688,3.858202 8.20535,2.199121 2.8728,-1.658794 3.85705,-5.331691 2.197975,-8.205066 -1.658512,-2.872221 -5.3317,-3.85676 -8.204487,-2.198255 z M 19.400513,43.992755 c -3.31875,0 -6.007975,2.688936 -6.007975,6.007677 0,3.317876 2.689225,6.007102 6.007975,6.007102 3.317587,0 6.0071,-2.689226 6.0071,-6.007102 0,-3.318741 -2.689513,-6.007677 -6.0071,-6.007677"
         style="fill:#ffffff;fill-opacity:1;fill-rule:nonzero;stroke:none;stroke-width:14.63151169" />
    </g>
  </g>
</svg>
