<svg height="256" width="256" xmlns="http://www.w3.org/2000/svg"><g style="mix-blend-mode:normal;fill:#fff"><g style="fill:#fff"><path style="fill:#fff;stroke:none;stroke-width:1px;stroke-linecap:butt;stroke-linejoin:miter;stroke-opacity:1" d="M474.61 255.118V406.3l-130.927 75.59V330.71Zm-130.927 75.591V179.528l-130.927 75.59z" transform="translate(34.434 -38.13) scale(.27224)"/><path style="fill:#fff;fill-opacity:1;fill-rule:nonzero;stroke:none;stroke-width:82.9362;stroke-linecap:round;stroke-linejoin:round;stroke-dasharray:none;stroke-opacity:1" d="M218.612 233.262a43.667 43.667 0 0 0-21.856 37.856V390.3a43.667 43.667 0 0 0 21.856 37.857l103.214 59.59a43.667 43.667 0 0 0 43.713 0l103.214-59.59a43.667 43.667 0 0 0 21.856-37.857V271.12a43.667 43.667 0 0 0-21.856-37.857l-103.214-59.59a43.667 43.667 0 0 0-43.713 0zm130.927-31.878 103.214 59.59a11.759 11.759 0 0 1 5.856 10.144V390.3c0 4.166-2.249 8.06-5.856 10.144l-103.214 59.59a11.759 11.759 0 0 1-11.713 0l-103.214-59.59a11.759 11.759 0 0 1-5.856-10.144V271.12c0-4.167 2.249-8.062 5.856-10.144l103.214-59.591a11.759 11.759 0 0 1 11.713 0z" transform="translate(34.434 -38.13) scale(.27224)"/></g><path d="M93.155 188.336h3.089v-6.034h5.941v-2.546h-5.941v-3.481h6.583v-2.546h-9.672zm14.729-14.607h-3.038v14.607h3.038zm5.55 14.814c1.619 0 2.667-.706 3.202-1.726h.086v1.52h2.882v-7.39c0-2.61-2.212-3.71-4.651-3.71-2.625 0-4.35 1.256-4.772 3.253l2.81.229c.207-.728.856-1.263 1.948-1.263 1.034 0 1.626.52 1.626 1.42v.042c0 .707-.749.8-2.653.985-2.169.2-4.116.927-4.116 3.373 0 2.169 1.548 3.267 3.638 3.267zm.87-2.097c-.934 0-1.605-.435-1.605-1.27 0-.855.706-1.276 1.776-1.426.663-.093 1.748-.25 2.111-.492v1.163c0 1.148-.948 2.025-2.282 2.025zm13.488-9.066h-2.061v-2.624h-3.039v2.624h-1.498v2.283h1.498v5.706c-.014 2.147 1.448 3.21 3.652 3.117a5.91 5.91 0 0 0 1.648-.285l-.478-2.261c-.15.028-.47.1-.756.1-.607 0-1.027-.229-1.027-1.07v-5.307h2.061zm1.976 15.065h3.038v-5.863h.093c.42.913 1.341 1.933 3.11 1.933 2.496 0 4.444-1.976 4.444-5.642 0-3.766-2.033-5.635-4.437-5.635-1.833 0-2.71 1.091-3.117 1.983h-.135v-1.84h-2.996zm2.974-9.587c0-1.954.828-3.202 2.304-3.202 1.505 0 2.304 1.305 2.304 3.202 0 1.912-.813 3.239-2.304 3.239-1.462 0-2.304-1.284-2.304-3.239zm12.853 5.685c1.62 0 2.668-.706 3.203-1.726h.086v1.52h2.881v-7.39c0-2.61-2.211-3.71-4.65-3.71-2.625 0-4.351 1.256-4.772 3.253l2.81.229c.207-.728.856-1.263 1.947-1.263 1.035 0 1.627.52 1.627 1.42v.042c0 .707-.75.8-2.654.985-2.168.2-4.115.927-4.115 3.373 0 2.169 1.547 3.267 3.637 3.267zm.87-2.097c-.934 0-1.604-.435-1.604-1.27 0-.855.706-1.276 1.776-1.426.663-.093 1.747-.25 2.111-.492v1.163c0 1.148-.949 2.025-2.282 2.025zm7.661 1.89h3.039v-3.48l.82-.935 2.989 4.415h3.559l-4.273-6.212 4.066-4.744h-3.488l-3.51 4.159h-.163v-7.81h-3.039z" transform="translate(0 -56)" aria-label="Flatpak" style="font-weight:700;font-size:28.4667px;line-height:1.25;font-family:Inter;-inkscape-font-specification:'Inter, Bold';text-align:center;letter-spacing:0;word-spacing:0;text-anchor:middle"/></g></svg>