<?xml version="1.0" encoding="UTF-8" standalone="no"?>
<svg
   viewBox="0 0 32.014 34.32101"
   version="1.1"
   id="svg71"
   sodipodi:docname="_mastodon.svg"
   width="32.014"
   height="34.321011"
   inkscape:version="1.2 (dc2aedaf03, 2022-05-15)"
   xmlns:inkscape="http://www.inkscape.org/namespaces/inkscape"
   xmlns:sodipodi="http://sodipodi.sourceforge.net/DTD/sodipodi-0.dtd"
   xmlns="http://www.w3.org/2000/svg"
   xmlns:svg="http://www.w3.org/2000/svg">
  <defs
     id="defs75" />
  <sodipodi:namedview
     id="namedview73"
     pagecolor="#ffffff"
     bordercolor="#000000"
     borderopacity="0.25"
     inkscape:showpageshadow="2"
     inkscape:pageopacity="0.0"
     inkscape:pagecheckerboard="true"
     inkscape:deskcolor="#d1d1d1"
     showgrid="false"
     inkscape:zoom="3.4481307"
     inkscape:cx="108.17455"
     inkscape:cy="64.237704"
     inkscape:window-width="1920"
     inkscape:window-height="995"
     inkscape:window-x="0"
     inkscape:window-y="0"
     inkscape:window-maximized="1"
     inkscape:current-layer="svg71" />
  <path
     d="M 15.956501,0 C 11.568752,0.03587296 7.3481057,0.51088688 4.8884152,1.6405095 c 0,0 -4.87819638,2.1822532 -4.87819638,9.6275295 0,1.704867 -0.03319129,3.743511 0.02080265,5.905314 0.17714514,7.281061 1.33487413,14.456872 8.06675773,16.238688 3.1039108,0.821534 5.7687918,0.993441 7.9150528,0.875421 3.892213,-0.215793 6.077261,-1.388867 6.077261,-1.388867 L 21.96151,30.07468 c 0,0 -2.781329,0.876856 -5.90503,0.769982 -3.094885,-0.106162 -6.3619699,-0.333617 -6.8625221,-4.133355 -0.046346,-0.333775 -0.069315,-0.690739 -0.069315,-1.065582 0,0 3.0380311,0.742692 6.8882181,0.919089 2.3543,0.107998 4.562064,-0.138077 6.804447,-0.405651 4.300294,-0.513498 8.044582,-3.162988 8.515183,-5.584025 0.741522,-3.813794 0.680412,-9.307099 0.680412,-9.307099 C 32.012871,3.8227627 27.134991,1.6405095 27.134991,1.6405095 24.675465,0.51088688 20.452052,0.03587296 16.064267,0 Z m -4.965735,5.8174818 c 1.827668,0 3.211573,0.7025639 4.126722,2.1077071 l 0.889578,1.4911348 0.88988,-1.4911348 c 0.914959,-1.4051432 2.298896,-2.1077071 4.126686,-2.1077071 1.579536,0 2.852357,0.5552812 3.824215,1.6384925 0.942134,1.0832096 1.411112,2.5471647 1.411112,4.3896247 v 9.014989 h -3.571674 v -8.749771 c 0,-1.844478 -0.775819,-2.7808834 -2.328142,-2.7808834 -1.716363,0 -2.57665,1.1107174 -2.57665,3.3067444 v 4.789207 h -3.550586 v -4.789207 c 0,-2.196027 -0.860272,-3.3067436 -2.576609,-3.3067444 -1.55234,0 -2.3284325,0.9364054 -2.3284325,2.7808834 v 8.749771 H 5.7551797 v -9.014989 c 0,-1.84246 0.4690855,-3.3064151 1.4113996,-4.3896247 C 8.1382764,6.372763 9.4110817,5.8174818 10.990766,5.8174818 Z"
     fill="#ffffff"
     id="path69"
     style="stroke-width:0.147945" />
</svg>
