<?xml version="1.0" encoding="UTF-8" standalone="no"?>
<svg
   viewBox="0 0 32 31.999999"
   version="1.1"
   id="svg71"
   sodipodi:docname="_mastodon.svg"
   width="32"
   height="32"
   inkscape:version="1.2 (dc2aedaf03, 2022-05-15)"
   xmlns:inkscape="http://www.inkscape.org/namespaces/inkscape"
   xmlns:sodipodi="http://sodipodi.sourceforge.net/DTD/sodipodi-0.dtd"
   xmlns="http://www.w3.org/2000/svg"
   xmlns:svg="http://www.w3.org/2000/svg">
  <defs
     id="defs75" />
  <sodipodi:namedview
     id="namedview73"
     pagecolor="#ffffff"
     bordercolor="#000000"
     borderopacity="0.25"
     inkscape:showpageshadow="2"
     inkscape:pageopacity="0.0"
     inkscape:pagecheckerboard="true"
     inkscape:deskcolor="#d1d1d1"
     showgrid="false"
     inkscape:zoom="27.736436"
     inkscape:cx="8.9052538"
     inkscape:cy="4.4165733"
     inkscape:window-width="1920"
     inkscape:window-height="995"
     inkscape:window-x="0"
     inkscape:window-y="0"
     inkscape:window-maximized="1"
     inkscape:current-layer="svg71" />
  <path
     d="m 16.24106,1.7815 c -3.63558,0.029724 -7.1327045,0.4233083 -9.1707436,1.3592857 0,0 -4.0419533,1.8081614 -4.0419533,7.9771363 0,1.412606 -0.027501,3.101778 0.017237,4.892999 0.1467781,6.032902 1.1060435,11.978605 6.6839168,13.454974 2.5718231,0.680702 4.7798751,0.82314 6.5582161,0.725353 3.224991,-0.178803 5.035472,-1.150782 5.035472,-1.150782 l -0.106542,-2.339825 c 0,0 -2.304544,0.72654 -4.89276,0.637986 -2.564347,-0.08802 -5.271374,-0.276426 -5.686119,-3.424794 -0.03839,-0.276562 -0.05743,-0.572334 -0.05743,-0.882919 0,0 2.517243,0.615376 5.70741,0.761534 1.950704,0.0894 3.780006,-0.114407 5.63798,-0.33611 3.563129,-0.425474 6.665547,-2.620776 7.055472,-4.626782 C 29.595625,15.66954 29.54499,11.117922 29.54499,11.117922 29.544971,4.9489471 25.50328,3.1407857 25.50328,3.1407857 23.465377,2.2048083 19.965963,1.8112236 16.330352,1.7815 Z m -4.114488,4.8202228 c 1.514359,0 2.661031,0.5821265 3.419304,1.7463938 l 0.737078,1.2355176 0.737334,-1.2355176 c 0.758112,-1.1642673 1.904809,-1.7463938 3.41927,-1.7463938 1.308765,0 2.363393,0.460092 3.168659,1.357614 0.780627,0.8975204 1.169207,2.1105182 1.169207,3.6371402 v 7.469591 h -2.959402 v -7.249847 c 0,-1.528284 -0.642821,-2.3041678 -1.929036,-2.3041678 -1.422144,0 -2.134954,0.9203108 -2.134954,2.7398928 v 3.968214 h -2.941927 v -3.968214 c 0,-1.819582 -0.712806,-2.7398918 -2.134914,-2.7398928 -1.286231,0 -1.929283,0.7758838 -1.929283,2.3041678 v 7.249847 H 7.7884969 v -7.469591 c 0,-1.526622 0.3886721,-2.7396198 1.1694505,-3.6371402 0.805124,-0.897522 1.8597396,-1.357614 3.1686246,-1.357614 z"
     fill="#ffffff"
     id="path69"
     style="stroke-width:0.12259;fill:#888a85;fill-opacity:1" />
</svg>
